<svg xmlns="http://www.w3.org/2000/svg" viewBox="0 0 206.19 129.46"><defs><style>.cls-1{fill:#1fa84e;}.cls-2{fill:none;stroke:#1fa84e;stroke-miterlimit:10;}</style></defs><g id="Layer_2" data-name="Layer 2"><g id="Layer_1-2" data-name="Layer 1"><path d="M16.78,126.31h7.35v2.81H16.06a2.66,2.66,0,0,1-2.66-2.66v-13H24v2.78H16.78v3.54H23l-.4,2.76H16.78Z"/><path d="M30.33,126.17h7.31v3h-8A2.71,2.71,0,0,1,27,126.41v-13h3.38Z"/><path d="M43.1,126.31h7.36v2.81H42a2.28,2.28,0,0,1-2.29-2.28V113.43H50.33v2.78H43.1v3.54h6.25l-.4,2.76H43.1Z"/><path d="M54.27,127.27a8.77,8.77,0,0,1-1.85-5.87,9.9,9.9,0,0,1,1-4.84,6.09,6.09,0,0,1,2.73-2.66,8.78,8.78,0,0,1,3.83-.81,10.29,10.29,0,0,1,2.75.35c.37.11.75.24,1.12.39a1.41,1.41,0,0,1,.73,2l0,0a1.37,1.37,0,0,1-1.74.66,6.83,6.83,0,0,0-2.69-.53C57.38,116,56,117.7,56,121.2a6,6,0,0,0,1.15,4,4.1,4.1,0,0,0,3.28,1.35,5.76,5.76,0,0,0,1.9-.28,4.45,4.45,0,0,0,.57-.22,1.4,1.4,0,0,1,1.78.6h0a1.41,1.41,0,0,1-.68,2,11.27,11.27,0,0,1-1.2.46,8.75,8.75,0,0,1-2.69.4Q56.12,129.46,54.27,127.27Z"/><path d="M79.5,113.43v2.93h-5v12.76h0a3.38,3.38,0,0,1-3.38-3.38v-9.38H66v-2.93Z"/><path d="M94.16,128.93v.19H90.27l-4-5.71H84.94v5.71H83.51a2,2,0,0,1-2-2V113.43h5.32a8.49,8.49,0,0,1,3.52.64,4.44,4.44,0,0,1,2.78,4.25A4.66,4.66,0,0,1,89.89,123Zm-9.22-8.11h1.53a4.12,4.12,0,0,0,2.32-.56,2.08,2.08,0,0,0,.81-1.84,2,2,0,0,0-.73-1.67,3.26,3.26,0,0,0-2-.56H84.94Z"/><path d="M96.39,127.32V113.43h1.76a1.62,1.62,0,0,1,1.62,1.62v14.07H98.19A1.79,1.79,0,0,1,96.39,127.32Z"/><path d="M104.29,127.27a8.82,8.82,0,0,1-1.85-5.87,10,10,0,0,1,1-4.84,6.16,6.16,0,0,1,2.74-2.66,8.78,8.78,0,0,1,3.83-.81,10.35,10.35,0,0,1,2.75.35c.37.11.74.24,1.12.39a1.42,1.42,0,0,1,.73,2l0,0a1.39,1.39,0,0,1-1.75.66,6.78,6.78,0,0,0-2.68-.53Q106,116,106,121.2a6,6,0,0,0,1.16,4,4.08,4.08,0,0,0,3.28,1.35,5.7,5.7,0,0,0,1.89-.28,5.24,5.24,0,0,0,.58-.22,1.39,1.39,0,0,1,1.77.6h0a1.4,1.4,0,0,1-.67,2,10.64,10.64,0,0,1-1.21.46,8.69,8.69,0,0,1-2.68.4Q106.15,129.46,104.29,127.27Z"/><path d="M132,114.08a4.71,4.71,0,0,1,2.08,1.78,4.89,4.89,0,0,1,.69,2.61,5.37,5.37,0,0,1-.72,2.79,4.87,4.87,0,0,1-2.17,1.92,8.22,8.22,0,0,1-3.54.69h-2v3.31a1.94,1.94,0,0,1-2,1.94H123V113.43h5.56A8.37,8.37,0,0,1,132,114.08Zm-1.64,6.46a2.24,2.24,0,0,0,.83-2,2.16,2.16,0,0,0-.74-1.78,3.24,3.24,0,0,0-2.06-.59h-2.08v4.92H128A4.1,4.1,0,0,0,130.39,120.54Z"/><path d="M139.83,128.42a6.68,6.68,0,0,1-2.68-2.89,9.61,9.61,0,0,1-.91-4.3,8.6,8.6,0,0,1,1.11-4.54,6.88,6.88,0,0,1,2.92-2.72,9.19,9.19,0,0,1,4.06-.88,8.49,8.49,0,0,1,4.33,1,6.63,6.63,0,0,1,2.67,2.9,9.67,9.67,0,0,1,.89,4.29,8.74,8.74,0,0,1-1.09,4.55,6.78,6.78,0,0,1-2.91,2.71,9.19,9.19,0,0,1-4.06.88A8.39,8.39,0,0,1,139.83,128.42Zm6.79-2.41a3.85,3.85,0,0,0,1.52-1.84,7.18,7.18,0,0,0,.5-2.82,6.44,6.44,0,0,0-1.1-4,3.78,3.78,0,0,0-3.21-1.44,4.07,4.07,0,0,0-3.36,1.42,6,6,0,0,0-1.15,3.88,6.48,6.48,0,0,0,1.1,4,3.84,3.84,0,0,0,3.24,1.44A4.51,4.51,0,0,0,146.62,126Z"/><path d="M175,113.43v.19L171,129.12h-2.49a2.27,2.27,0,0,1-2.22-1.77l-1.56-6.82a34.7,34.7,0,0,1-.61-3.47,34.43,34.43,0,0,1-.62,3.47l-1.91,8.59h-2.82a1.93,1.93,0,0,1-1.87-1.44l-3.72-14.06v-.19h3.56l2,8.5c.12.45.24,1,.37,1.79s.25,1.48.34,2.21c.27-1.67.51-3,.74-4l2-8.5h4l2,8.33c.29,1.31.55,2.71.78,4.19.1-.68.22-1.4.36-2.15s.27-1.44.4-2l1.89-8.33Z"/><path d="M180.56,126.31h7.35v2.81h-7.77a3,3,0,0,1-3-3V113.43h10.61v2.78h-7.23v3.54h6.25l-.4,2.76h-5.85Z"/><path d="M203.33,128.93v.19h-3.89l-4-5.71h-1.34v3.85a1.86,1.86,0,0,1-1.86,1.86h-1.52V113.43h5.32a8.49,8.49,0,0,1,3.52.64,4.73,4.73,0,0,1,2.09,1.74,4.64,4.64,0,0,1,.69,2.51,4.66,4.66,0,0,1-3.29,4.63Zm-9.22-8.11h1.53a4.12,4.12,0,0,0,2.32-.56,2.08,2.08,0,0,0,.81-1.84,2,2,0,0,0-.73-1.67,3.27,3.27,0,0,0-2-.56h-1.9Z"/><path class="cls-1" d="M16.07,52.3a44,44,0,0,0,42.47,44c.52,0,1,0,1.56,0s1.07,0,1.6,0l.86,0,.63,0,1-.08.88-.09.51-.06h.07l1.1-.16c.41-.06.81-.12,1.21-.2l.22,0c.38-.06.76-.14,1.13-.22h.05l1-.23.89-.23.64-.17,1.39-.41.89-.29.35-.12,1-.37c.34-.12.69-.26,1-.4s.91-.36,1.35-.57L79.08,92c.38-.19.76-.37,1.14-.57s.93-.48,1.39-.74l0,0c.47-.27.94-.54,1.4-.82s.82-.51,1.21-.77L84.5,89l1.27-.88q.66-.46,1.29-1s0,0,0,0c.33-.26.65-.51,1-.78.13-.1.26-.2.38-.31l.94-.82c.14-.11.27-.24.4-.36.32-.3.65-.59,1-.9a33,33,0,0,0,5.68-5.14,14.37,14.37,0,0,1-1.9,4.39Q93.18,85,91.67,86.72h0A52.26,52.26,0,1,1,100,30.83v0a.71.71,0,0,1-1.32.23A44,44,0,0,0,16.07,52.3Z"/><path class="cls-1" d="M97.87,34.66l-.23.15h0a1.22,1.22,0,0,1-1.46-.31A32.52,32.52,0,0,0,86,26.8a31.71,31.71,0,0,0-13.85-3.16c-17.91,0-32.43,14.83-32.43,33.13S54.25,89.89,72.16,89.89a31.74,31.74,0,0,0,18.57-6c-.31.31-.64.6-1,.9-.13.12-.26.25-.4.36l-.94.82c-.12.11-.25.21-.38.31-.32.27-.64.52-1,.78,0,0,0,0,0,0q-.63.49-1.29,1L84.5,89l-.23.15c-.39.26-.8.52-1.21.77s-.93.55-1.4.82l0,0c-.46.26-.92.5-1.39.74s-.76.38-1.14.57l-1.16.53q-.66.31-1.35.57c-.33.14-.68.28-1,.4l-1,.37-.35.12-.89.29-1.39.41-.64.17-.89.23-1,.23h-.05c-.37.08-.75.16-1.13.22l-.22,0c-.4.08-.8.14-1.21.2l-1.1.16h-.07l-.51.06-.88.09-1,.08-.63,0-.86,0c-.53,0-1.07,0-1.6,0s-1,0-1.56,0A40.37,40.37,0,1,1,97.87,34.66Z"/><path class="cls-1" d="M148.66,75.92a1.54,1.54,0,0,1,0,2,27.45,27.45,0,0,1-20.38,8.94,27.94,27.94,0,0,1-9.61-1.69A26.21,26.21,0,0,1,120.81,35a27.86,27.86,0,0,1,7.42-1,27.47,27.47,0,0,1,20.28,8.83,2.15,2.15,0,0,1-.29,3.22c-.25.19-.52.37-.79.55a9,9,0,0,1-9.65-.22,17.62,17.62,0,0,0-9.55-2.79,17.2,17.2,0,0,0-3.9.44,16.7,16.7,0,0,0-2.72,32,17.69,17.69,0,0,0,6.62,1.27A17.51,17.51,0,0,0,138.46,74a7.12,7.12,0,0,1,8.83.47A14,14,0,0,1,148.66,75.92Z"/><path class="cls-1" d="M95.83,75.92a1.53,1.53,0,0,1,0,2A27.42,27.42,0,0,1,75.4,86.89a27.92,27.92,0,0,1-9.6-1.69A26.22,26.22,0,0,1,68,35a27.92,27.92,0,0,1,7.42-1,27.44,27.44,0,0,1,20.28,8.83,2.16,2.16,0,0,1-.28,3.22l-.79.55A9,9,0,0,1,85,46.42a17.65,17.65,0,0,0-9.56-2.79,17.27,17.27,0,0,0-3.9.44,16.7,16.7,0,0,0-2.71,32,17.76,17.76,0,0,0,16.85-2,7.12,7.12,0,0,1,8.83.47A13.92,13.92,0,0,1,95.83,75.92Z"/><path class="cls-1" d="M175.4,60.81l29.5,25.93L192,87a3.63,3.63,0,0,1-2.44-.88L169.36,68.71V83a4.85,4.85,0,0,1-4.85,4.85h-6.26a.71.71,0,0,1-.7-.71V34.77A1.45,1.45,0,0,1,159,33.32h5.29a5.07,5.07,0,0,1,5.07,5.07V52.85l22.57-19.93,14.26,0Z"/><path class="cls-2" d="M96.41,78.78a14.37,14.37,0,0,1-1.9,4.39Q93.18,85,91.67,86.72h0c-3.8,3.8-8.43,5.61-11.44,4.73a43.69,43.69,0,0,0,10.51-7.54A33,33,0,0,0,96.41,78.78Z"/></g></g></svg>