<svg xmlns="http://www.w3.org/2000/svg" viewBox="0 0 355.92 192.17"><defs><style>.cls-1{fill:#fdbc2d;}</style></defs><g id="Layer_2" data-name="Layer 2"><g id="Layer_1-2" data-name="Layer 1"><rect class="cls-1" width="355.92" height="192.17"/><path d="M169.59,69.83V26.94H29.51V169.41H169.59V129.62H158.46v28.47H40.63V38.25H158.46V69.83Z"/><path d="M179.22,70.09V20.37H42.56V155H179.22V129.61h-2.3v23.12H44.85V22.62H176.92V70.09Z"/><path d="M155.82,70.09V41.72H24.16V174.44H155.82V129.58h-2.21v42.64H26.37V43.94H153.61V70.09Z"/><path d="M76.7,76.81h7.7a7.3,7.3,0,0,1,6.08,2.75,10,10,0,0,1,1.93,6.36,12.54,12.54,0,0,1-1.14,5.41,7,7,0,0,1-6.89,4.27H76.7Zm7.18,16.61A7.18,7.18,0,0,0,86,93.15a4.73,4.73,0,0,0,2.46-1.91,7.71,7.71,0,0,0,1.1-2.92,10.9,10.9,0,0,0,.19-2,9.08,9.08,0,0,0-1.4-5.42A5.2,5.2,0,0,0,83.86,79H79.29V93.42Z"/><path d="M102.63,76.81h2.91l6.89,18.79h-2.82L107.68,90h-7.51L98.11,95.6H95.47Zm4.23,11.09L104,79.6l-3.07,8.3Z"/><path d="M128,76.81v2.24h-6.4V95.6H119V79.05h-6.4V76.81Z"/><path d="M135.33,76.81h2.92l6.89,18.79h-2.82L140.39,90h-7.51l-2.06,5.63h-2.64Zm4.23,11.09-2.88-8.3-3.07,8.3Z"/><path d="M160.23,76.81h2.91L170,95.6h-2.83L165.29,90h-7.52l-2.06,5.63h-2.64Zm4.23,11.09-2.89-8.3-3.06,8.3Z"/><path d="M173.76,76.81h3L186.4,92V76.81h2.44V95.6H186l-9.75-15.21V95.6h-2.45Z"/><path d="M199.79,76.81h2.92L209.6,95.6h-2.82L204.85,90h-7.51l-2.06,5.63h-2.64ZM204,87.9l-2.89-8.3-3.07,8.3Z"/><path d="M213.32,76.81h2.58V93.36h9.62V95.6h-12.2Z"/><path d="M226,76.81h3l5.46,9,5.46-9h3L235.76,88V95.6h-2.57V88Z"/><path d="M260.37,76.81v2.24H254V95.6h-2.61V79.05h-6.41V76.81Z"/><path d="M264.68,76.81h2.6V95.6h-2.6Z"/><path d="M286.45,78.18a6.57,6.57,0,0,1,2.21,4.27h-2.51a5.08,5.08,0,0,0-1.7-2.87,5.42,5.42,0,0,0-3.58-1.07,5.76,5.76,0,0,0-4.53,1.95c-1.15,1.3-1.73,3.3-1.73,6a8.6,8.6,0,0,0,1.56,5.35,5.47,5.47,0,0,0,4.65,2.06,5,5,0,0,0,4.34-2.17,8.19,8.19,0,0,0,1.17-3h2.51a8.41,8.41,0,0,1-2.22,5,8,8,0,0,1-6.11,2.41,8.11,8.11,0,0,1-5.56-2c-2-1.75-3-4.44-3-8.09a10.31,10.31,0,0,1,2.23-6.82,8.19,8.19,0,0,1,6.64-2.89A7.87,7.87,0,0,1,286.45,78.18Z"/><path d="M295,89.54a5.15,5.15,0,0,0,.77,2.59c.85,1.25,2.36,1.87,4.51,1.87a8.12,8.12,0,0,0,2.64-.41,2.91,2.91,0,0,0,2.31-2.84,2.47,2.47,0,0,0-1-2.19,10.29,10.29,0,0,0-3.08-1.11l-2.58-.57a12,12,0,0,1-3.57-1.24,3.92,3.92,0,0,1-1.81-3.52A5.41,5.41,0,0,1,295,78a7.18,7.18,0,0,1,5-1.62,8.8,8.8,0,0,1,5.08,1.43,5.12,5.12,0,0,1,2.09,4.55h-2.42A4.62,4.62,0,0,0,304,80c-.78-1-2.12-1.47-4-1.47a4.68,4.68,0,0,0-3.27.95,3,3,0,0,0-1,2.2,2.15,2.15,0,0,0,1.17,2,17.6,17.6,0,0,0,3.45,1l2.67.6a8.35,8.35,0,0,1,3,1.19,4.45,4.45,0,0,1,1.81,3.82,4.75,4.75,0,0,1-2.3,4.46,10.34,10.34,0,0,1-5.34,1.35,8.07,8.07,0,0,1-5.55-1.79,6,6,0,0,1-2-4.82Z"/><path d="M323,82.85a4.49,4.49,0,0,1-.4-1.8,4,4,0,0,1,1.24-3,4.61,4.61,0,0,1,3.32-1.19A4.18,4.18,0,0,1,330.21,78a3.61,3.61,0,0,1,1.12,2.66,4.77,4.77,0,0,1-1.15,3.16,10.67,10.67,0,0,1-2.26,1.83l3.47,4.09c.24-.68.4-1.19.49-1.53s.18-.81.28-1.41h2.21a14.07,14.07,0,0,1-.88,3.46c-.44,1.1-.66,1.55-.66,1.33l3.38,4.06h-3l-1.78-2.15a9.51,9.51,0,0,1-1.94,1.66,6.83,6.83,0,0,1-3.55.92,5,5,0,0,1-5.65-5.14,5.12,5.12,0,0,1,1.3-3.57,14.72,14.72,0,0,1,3-2.17A9.65,9.65,0,0,1,323,82.85Zm5.61,10.51a5.39,5.39,0,0,0,1.59-1.46l-4.29-5.18a13.1,13.1,0,0,0-2.38,1.84,3.4,3.4,0,0,0-.86,2.34,2.69,2.69,0,0,0,1.11,2.31,4,4,0,0,0,2.36.8A4.57,4.57,0,0,0,328.57,93.36Zm-.18-10.64a2.84,2.84,0,0,0,.76-1.93,2,2,0,0,0-.55-1.43,1.94,1.94,0,0,0-1.5-.6,2.12,2.12,0,0,0-2,.94,2.08,2.08,0,0,0-.28,1.06,2.85,2.85,0,0,0,.43,1.5,12.87,12.87,0,0,0,1.45,1.85A10,10,0,0,0,328.39,82.72Z"/><path d="M79.46,121.2a3.67,3.67,0,0,0,.73,1.93,4.24,4.24,0,0,0,3.39,1.17,7.53,7.53,0,0,0,2.34-.31,2.2,2.2,0,0,0,1.7-2.19,1.61,1.61,0,0,0-.83-1.44,9.08,9.08,0,0,0-2.65-.88L82.08,119a12.92,12.92,0,0,1-4.19-1.45A4.57,4.57,0,0,1,76,113.51a5.38,5.38,0,0,1,1.88-4.21,8.1,8.1,0,0,1,5.54-1.68,8.59,8.59,0,0,1,5.21,1.58,5.62,5.62,0,0,1,2.26,4.59H87a2.71,2.71,0,0,0-1.54-2.42,5.29,5.29,0,0,0-2.38-.47,4.56,4.56,0,0,0-2.52.61,2,2,0,0,0-.94,1.71,1.61,1.61,0,0,0,.93,1.51,11.8,11.8,0,0,0,2.54.78l3.34.78a8.54,8.54,0,0,1,3.3,1.37,4.59,4.59,0,0,1,1.71,3.85,5.41,5.41,0,0,1-2,4.29,8.59,8.59,0,0,1-5.71,1.71,9.44,9.44,0,0,1-5.93-1.68,5.56,5.56,0,0,1-2.16-4.63Z"/><path d="M109.32,125.35a8.4,8.4,0,0,1-6.25,2.19,8.39,8.39,0,0,1-6.25-2.19q-2.89-2.7-2.9-7.78t2.9-7.77a8.35,8.35,0,0,1,6.25-2.2,8.37,8.37,0,0,1,6.25,2.2q2.88,2.6,2.88,7.77T109.32,125.35Zm-2.49-2.87a9.35,9.35,0,0,0,0-9.81,4.56,4.56,0,0,0-3.76-1.73,4.63,4.63,0,0,0-3.78,1.72,9.25,9.25,0,0,0,0,9.82,4.64,4.64,0,0,0,3.78,1.73A4.58,4.58,0,0,0,106.83,122.48Z"/><path d="M115.61,108.17h4v15.46h9.52V127H115.61Z"/><path d="M132.17,108.17h4.05v11.58a6.68,6.68,0,0,0,.46,2.84c.49,1,1.53,1.58,3.15,1.58s2.65-.53,3.13-1.58a6.51,6.51,0,0,0,.47-2.84V108.17h4v11.59a9.62,9.62,0,0,1-.95,4.68c-1.17,2-3.4,3.07-6.7,3.07s-5.54-1-6.72-3.07a9.74,9.74,0,0,1-.94-4.68Z"/><path d="M165.54,108.17v3.34h-5.71V127h-4V111.51h-5.73v-3.34Z"/><path d="M171.87,127h-4V108.17h4Z"/><path d="M190.65,125.35a10,10,0,0,1-12.49,0c-1.94-1.8-2.9-4.39-2.9-7.78s1-6,2.9-7.77a10,10,0,0,1,12.49,0q2.9,2.6,2.89,7.77T190.65,125.35Zm-2.49-2.87a9.35,9.35,0,0,0,0-9.81,4.54,4.54,0,0,0-3.76-1.73,4.62,4.62,0,0,0-3.77,1.72,9.25,9.25,0,0,0,0,9.82,4.63,4.63,0,0,0,3.77,1.73A4.57,4.57,0,0,0,188.16,122.48Z"/><path d="M196.89,108.17h4.17l7.57,13.15V108.17h3.72V127h-4l-7.76-13.37V127h-3.71Z"/><path d="M219.33,121.2a3.75,3.75,0,0,0,.73,1.93,4.24,4.24,0,0,0,3.39,1.17,7.53,7.53,0,0,0,2.34-.31,2.19,2.19,0,0,0,1.7-2.19,1.59,1.59,0,0,0-.83-1.44,9.08,9.08,0,0,0-2.65-.88L222,119a12.92,12.92,0,0,1-4.19-1.45,4.57,4.57,0,0,1-1.92-4.07,5.42,5.42,0,0,1,1.88-4.21,8.1,8.1,0,0,1,5.54-1.68,8.59,8.59,0,0,1,5.21,1.58,5.6,5.6,0,0,1,2.26,4.59H226.9a2.69,2.69,0,0,0-1.54-2.42,5.27,5.27,0,0,0-2.37-.47,4.52,4.52,0,0,0-2.52.61,1.94,1.94,0,0,0-.95,1.71,1.61,1.61,0,0,0,.93,1.51,12,12,0,0,0,2.54.78l3.34.78a8.54,8.54,0,0,1,3.3,1.37,4.59,4.59,0,0,1,1.71,3.85,5.41,5.41,0,0,1-2,4.29,8.59,8.59,0,0,1-5.71,1.71,9.44,9.44,0,0,1-5.93-1.68,5.58,5.58,0,0,1-2.15-4.63Z"/></g></g></svg>