<svg xmlns="http://www.w3.org/2000/svg" viewBox="0 0 459.7 132.33"><defs><style>.cls-1{fill:#318250;}.cls-2{fill:#0f496f;}</style></defs><g id="Layer_2" data-name="Layer 2"><g id="Layer_1-2" data-name="Layer 1"><path class="cls-1" d="M25,90.37Q26.24,99,29.8,103.22,36.31,111,52.13,111q9.46,0,15.38-2Q78.72,105,78.72,94.37a10.72,10.72,0,0,0-5.5-9.61q-5.49-3.33-17.41-5.87l-13.58-3q-20-4.43-27.51-9.62Q2,57.61,2,39.15a36,36,0,0,1,12.41-28Q26.85,0,50.89,0,71,0,85.13,10.51T100,41H74.8q-.69-11.33-10.12-16.09Q58.4,21.8,49.07,21.79q-10.4,0-16.58,4.08a12.91,12.91,0,0,0-6.19,11.4,10.74,10.74,0,0,0,6.1,10q3.93,2.22,16.67,5.2l22,5.19q14.48,3.4,21.69,9.1Q104,75.65,104,92.42,104,109.61,90.7,121T53.16,132.33q-24.78,0-39-11.19T0,90.37Z"/><path class="cls-1" d="M215.13,25.87H148.75V52.51h60.93V74.29H148.75v32.25h69.44v22.55h-95V3.66h92Z"/><path class="cls-2" d="M304.14,3.66H274.48L229.71,129.1h27.42l8.49-25.79h24.05a1.47,1.47,0,0,1-.2-.89,3.84,3.84,0,0,0-1-2.88,5.93,5.93,0,0,1-1.3-3.46,9.14,9.14,0,0,0-1.34-4,6.43,6.43,0,0,1-.83-1.78,5.07,5.07,0,0,1,.35-3.16,4.33,4.33,0,0,1,.31-.73,4,4,0,0,0,.29-3.17,10.2,10.2,0,0,0-2.89-5.06,2.22,2.22,0,0,1-.51-2.29,20.5,20.5,0,0,0,.37-2.17c0-.7-.33-1-1-1a8.14,8.14,0,0,0-1,0,1.12,1.12,0,0,1-1.24-.67,1.6,1.6,0,0,0-1.68-.93,5.13,5.13,0,0,0-1,.17c-.77.24-1.54.51-2.3.79a1.73,1.73,0,0,1-1.12.1,3.21,3.21,0,0,0-2.3.18,2,2,0,0,1-2.4-.38c-.68-.59-1.44-1.12-2.1-1.75A3.84,3.84,0,0,1,265.9,69a4.05,4.05,0,0,0-1.15-1.5l-.73-.62a1.89,1.89,0,0,1-.69-1.14,1.91,1.91,0,0,0-.19-.52,1.61,1.61,0,0,1-.07-1.37c.23-.68.5-1.34.69-2a4,4,0,0,0-.07-2.12.78.78,0,0,0-.2-.37.65.65,0,0,1-.16-.84,14.47,14.47,0,0,1,3.34-4.91,2.89,2.89,0,0,1,.78-.5,2.11,2.11,0,0,0,1.29-1.81,2.93,2.93,0,0,1,.38-1.18,2.07,2.07,0,0,1,.81-.74,3.66,3.66,0,0,0,1.56-1.43,2.05,2.05,0,0,1,.5-.6c.25-.2.5-.11.75.11a.85.85,0,0,0,.49.17c.47,0,.94,0,1.42,0a1.35,1.35,0,0,0,.93-.22,7,7,0,0,1,3.53-1.17c1.13-.1,2.26-.17,3.4-.27a6.41,6.41,0,0,0,.73-.17.73.73,0,0,1,1,.8,2.57,2.57,0,0,1-.42,1.57.53.53,0,0,0,0,.46,1.77,1.77,0,0,0,1.35.85A4.92,4.92,0,0,1,288,50.56a2.71,2.71,0,0,0,.69.38c.35.19.73.34,1.07.57.51.33,1.05.21,1.07-.48a7.43,7.43,0,0,1,.09-.81.94.94,0,0,1,.78-.79,2.53,2.53,0,0,1,1.75.22,7.59,7.59,0,0,0,1.93.6,15.64,15.64,0,0,1,1.76.56,2.1,2.1,0,0,0,1.54-.07,2,2,0,0,1,1.52-.06,2,2,0,0,0,1.26.09.43.43,0,0,1,.55.29,2.18,2.18,0,0,1-.09,2.09c-.09.15-.29.24-.44.36h-.14l1.26,2.43.92,1.82a1.46,1.46,0,0,0,.2.37,3.45,3.45,0,0,1,.79,1.93,2.31,2.31,0,0,0,.75,1.4,3,3,0,0,1,.89,1.51,2.42,2.42,0,0,0,1.14,1.48c.41.28.83.54,1.21.84a3.89,3.89,0,0,1,.68.78.57.57,0,0,1,0,.68.43.43,0,0,0,0,.38,1.6,1.6,0,0,0,1.66.63c.81-.17,1.62-.3,2.42-.5a9.63,9.63,0,0,0,1.4-.48c.34-.12.53-.06.55.28a3.22,3.22,0,0,1-.15,1.16A28.54,28.54,0,0,1,313,72.66a10.62,10.62,0,0,1-2.2,2.24,15.71,15.71,0,0,0-3.8,4.28c-.24.46-.45.93-.68,1.39a1.45,1.45,0,0,0,.12,1.42,1.52,1.52,0,0,1,.22.83,2.79,2.79,0,0,0,.44,1.85,1.83,1.83,0,0,1,.25,1.14,8.42,8.42,0,0,0,0,1.42,2.26,2.26,0,0,1-1.37,2.59,9.24,9.24,0,0,0-2.59,1.86,2,2,0,0,0-.51,1.84c.08.5.14,1,.17,1.53a1.11,1.11,0,0,1-.6,1.1,9.69,9.69,0,0,1-.91.46,1,1,0,0,0-.66.85,5.1,5.1,0,0,1-1.51,3.19c-.58.65-1.18,1.29-1.81,1.9a3.4,3.4,0,0,1-1.2.76h15.52l8.28,25.79h28.42Zm10.5,85.59-.32-.19a7.64,7.64,0,0,1-.22,1c-.27.83-.55,1.66-.86,2.48-.37,1-.77,2-1.16,3.08a2.06,2.06,0,0,1-1.66,1.48,1.06,1.06,0,0,1-1.31-.86,10.66,10.66,0,0,1-.2-1.77,2,2,0,0,1,.29-1,3.14,3.14,0,0,0,.51-2.36,4,4,0,0,1,0-.92c.05-.61.42-1,1.13-1.09l.39-.07a1.78,1.78,0,0,0,1.45-1.16,2.27,2.27,0,0,1,.63-.91,2.17,2.17,0,0,0,.37-.71,3.76,3.76,0,0,0,.11-.49A4.56,4.56,0,0,1,314.64,89.25Z"/><path class="cls-2" d="M448.68,74.8q-11,9.2-31.45,9.19H391.11v45.1h-26V3.66h53.86q18.61,0,29.7,9.7t11.07,30Q459.7,65.62,448.68,74.8Zm-20-45.19q-5-4.16-13.95-4.17H391.11V62.38h23.62q9,0,13.95-4.51t5-14.3Q433.66,33.79,428.68,29.61Z"/></g></g></svg>