<svg width="238" height="21" viewBox="0 0 238 21" fill="none" xmlns="http://www.w3.org/2000/svg">
<path d="M7.86 15.14C6.56667 15.14 5.38667 14.84 4.32 14.24C3.25333 13.6267 2.40667 12.78 1.78 11.7C1.16667 10.6067 0.86 9.38 0.86 8.02C0.86 6.66 1.16667 5.44 1.78 4.36C2.40667 3.26667 3.25333 2.42 4.32 1.82C5.38667 1.20667 6.56667 0.899999 7.86 0.899999C9.16667 0.899999 10.3533 1.20667 11.42 1.82C12.4867 2.42 13.3267 3.26 13.94 4.34C14.5533 5.42 14.86 6.64667 14.86 8.02C14.86 9.39333 14.5533 10.62 13.94 11.7C13.3267 12.78 12.4867 13.6267 11.42 14.24C10.3533 14.84 9.16667 15.14 7.86 15.14ZM7.86 13.56C8.83333 13.56 9.70667 13.3333 10.48 12.88C11.2667 12.4267 11.88 11.78 12.32 10.94C12.7733 10.1 13 9.12667 13 8.02C13 6.9 12.7733 5.92667 12.32 5.1C11.88 4.26 11.2733 3.61333 10.5 3.16C9.72667 2.70667 8.84667 2.48 7.86 2.48C6.87333 2.48 5.99333 2.70667 5.22 3.16C4.44667 3.61333 3.83333 4.26 3.38 5.1C2.94 5.92667 2.72 6.9 2.72 8.02C2.72 9.12667 2.94 10.1 3.38 10.94C3.83333 11.78 4.44667 12.4267 5.22 12.88C6.00667 13.3333 6.88667 13.56 7.86 13.56ZM26.9827 4.04V15H25.1627V13.38C24.816 13.94 24.3293 14.38 23.7027 14.7C23.0893 15.0067 22.4093 15.16 21.6627 15.16C20.8093 15.16 20.0427 14.9867 19.3627 14.64C18.6827 14.28 18.1427 13.7467 17.7427 13.04C17.356 12.3333 17.1627 11.4733 17.1627 10.46V4.04H18.9627V10.22C18.9627 11.3 19.236 12.1333 19.7827 12.72C20.3293 13.2933 21.076 13.58 22.0227 13.58C22.996 13.58 23.7627 13.28 24.3227 12.68C24.8827 12.08 25.1627 11.2067 25.1627 10.06V4.04H26.9827ZM31.8756 5.82C32.1956 5.19333 32.649 4.70667 33.2356 4.36C33.8356 4.01333 34.5623 3.84 35.4156 3.84V5.72H34.9356C32.8956 5.72 31.8756 6.82667 31.8756 9.04V15H30.0556V4.04H31.8756V5.82ZM52.1686 5.14C52.1686 6.3 51.7686 7.26667 50.9686 8.04C50.1819 8.8 48.9753 9.18 47.3486 9.18H44.6686V15H42.8486V1.06H47.3486C48.9219 1.06 50.1153 1.44 50.9286 2.2C51.7553 2.96 52.1686 3.94 52.1686 5.14ZM47.3486 7.68C48.3619 7.68 49.1086 7.46 49.5886 7.02C50.0686 6.58 50.3086 5.95333 50.3086 5.14C50.3086 3.42 49.3219 2.56 47.3486 2.56H44.6686V7.68H47.3486ZM53.7506 9.48C53.7506 8.36 53.9773 7.38 54.4306 6.54C54.884 5.68667 55.504 5.02667 56.2906 4.56C57.0906 4.09333 57.9773 3.86 58.9506 3.86C59.9106 3.86 60.744 4.06667 61.4506 4.48C62.1573 4.89333 62.684 5.41333 63.0306 6.04V4.04H64.8706V15H63.0306V12.96C62.6706 13.6 62.1306 14.1333 61.4106 14.56C60.704 14.9733 59.8773 15.18 58.9306 15.18C57.9573 15.18 57.0773 14.94 56.2906 14.46C55.504 13.98 54.884 13.3067 54.4306 12.44C53.9773 11.5733 53.7506 10.5867 53.7506 9.48ZM63.0306 9.5C63.0306 8.67333 62.864 7.95333 62.5306 7.34C62.1973 6.72667 61.744 6.26 61.1706 5.94C60.6106 5.60667 59.9906 5.44 59.3106 5.44C58.6306 5.44 58.0106 5.6 57.4506 5.92C56.8906 6.24 56.444 6.70667 56.1106 7.32C55.7773 7.93333 55.6106 8.65333 55.6106 9.48C55.6106 10.32 55.7773 11.0533 56.1106 11.68C56.444 12.2933 56.8906 12.7667 57.4506 13.1C58.0106 13.42 58.6306 13.58 59.3106 13.58C59.9906 13.58 60.6106 13.42 61.1706 13.1C61.744 12.7667 62.1973 12.2933 62.5306 11.68C62.864 11.0533 63.0306 10.3267 63.0306 9.5ZM69.7663 5.82C70.0863 5.19333 70.5396 4.70667 71.1263 4.36C71.7263 4.01333 72.4529 3.84 73.3063 3.84V5.72H72.8263C70.7863 5.72 69.7663 6.82667 69.7663 9.04V15H67.9463V4.04H69.7663V5.82ZM77.6272 5.54V12C77.6272 12.5333 77.7405 12.9133 77.9672 13.14C78.1939 13.3533 78.5872 13.46 79.1472 13.46H80.4872V15H78.8472C77.8339 15 77.0739 14.7667 76.5672 14.3C76.0605 13.8333 75.8072 13.0667 75.8072 12V5.54H74.3872V4.04H75.8072V1.28H77.6272V4.04H80.4872V5.54H77.6272ZM88.0323 3.84C89.3657 3.84 90.4457 4.24667 91.2723 5.06C92.099 5.86 92.5123 7.02 92.5123 8.54V15H90.7123V8.8C90.7123 7.70667 90.439 6.87333 89.8923 6.3C89.3457 5.71333 88.599 5.42 87.6523 5.42C86.6923 5.42 85.9257 5.72 85.3523 6.32C84.7923 6.92 84.5123 7.79333 84.5123 8.94V15H82.6923V4.04H84.5123V5.6C84.8723 5.04 85.359 4.60667 85.9723 4.3C86.599 3.99333 87.2857 3.84 88.0323 3.84ZM105.485 9.1C105.485 9.44667 105.465 9.81333 105.425 10.2H96.6653C96.732 11.28 97.0986 12.1267 97.7653 12.74C98.4453 13.34 99.2653 13.64 100.225 13.64C101.012 13.64 101.665 13.46 102.185 13.1C102.719 12.7267 103.092 12.2333 103.305 11.62H105.265C104.972 12.6733 104.385 13.5333 103.505 14.2C102.625 14.8533 101.532 15.18 100.225 15.18C99.1853 15.18 98.252 14.9467 97.4253 14.48C96.612 14.0133 95.972 13.3533 95.5053 12.5C95.0386 11.6333 94.8053 10.6333 94.8053 9.5C94.8053 8.36667 95.032 7.37333 95.4853 6.52C95.9386 5.66667 96.572 5.01333 97.3853 4.56C98.212 4.09333 99.1586 3.86 100.225 3.86C101.265 3.86 102.185 4.08667 102.985 4.54C103.785 4.99333 104.399 5.62 104.825 6.42C105.265 7.20667 105.485 8.1 105.485 9.1ZM103.605 8.72C103.605 8.02667 103.452 7.43333 103.145 6.94C102.839 6.43333 102.419 6.05333 101.885 5.8C101.365 5.53333 100.785 5.4 100.145 5.4C99.2253 5.4 98.4386 5.69333 97.7853 6.28C97.1453 6.86667 96.7786 7.68 96.6853 8.72H103.605ZM109.708 5.82C110.028 5.19333 110.481 4.70667 111.068 4.36C111.668 4.01333 112.394 3.84 113.248 3.84V5.72H112.768C110.728 5.72 109.708 6.82667 109.708 9.04V15H107.888V4.04H109.708V5.82ZM119.229 15.18C118.389 15.18 117.635 15.04 116.969 14.76C116.302 14.4667 115.775 14.0667 115.389 13.56C115.002 13.04 114.789 12.4467 114.749 11.78H116.629C116.682 12.3267 116.935 12.7733 117.389 13.12C117.855 13.4667 118.462 13.64 119.209 13.64C119.902 13.64 120.449 13.4867 120.849 13.18C121.249 12.8733 121.449 12.4867 121.449 12.02C121.449 11.54 121.235 11.1867 120.809 10.96C120.382 10.72 119.722 10.4867 118.829 10.26C118.015 10.0467 117.349 9.83333 116.829 9.62C116.322 9.39333 115.882 9.06667 115.509 8.64C115.149 8.2 114.969 7.62667 114.969 6.92C114.969 6.36 115.135 5.84667 115.469 5.38C115.802 4.91333 116.275 4.54667 116.889 4.28C117.502 4 118.202 3.86 118.989 3.86C120.202 3.86 121.182 4.16667 121.929 4.78C122.675 5.39333 123.075 6.23333 123.129 7.3H121.309C121.269 6.72667 121.035 6.26667 120.609 5.92C120.195 5.57333 119.635 5.4 118.929 5.4C118.275 5.4 117.755 5.54 117.369 5.82C116.982 6.1 116.789 6.46667 116.789 6.92C116.789 7.28 116.902 7.58 117.129 7.82C117.369 8.04667 117.662 8.23333 118.009 8.38C118.369 8.51333 118.862 8.66667 119.489 8.84C120.275 9.05333 120.915 9.26667 121.409 9.48C121.902 9.68 122.322 9.98667 122.669 10.4C123.029 10.8133 123.215 11.3533 123.229 12.02C123.229 12.62 123.062 13.16 122.729 13.64C122.395 14.12 121.922 14.5 121.309 14.78C120.709 15.0467 120.015 15.18 119.229 15.18ZM132.95 1.06V15H131.13V1.06H132.95ZM141.392 3.84C142.725 3.84 143.805 4.24667 144.632 5.06C145.458 5.86 145.872 7.02 145.872 8.54V15H144.072V8.8C144.072 7.70667 143.798 6.87333 143.252 6.3C142.705 5.71333 141.958 5.42 141.012 5.42C140.052 5.42 139.285 5.72 138.712 6.32C138.152 6.92 137.872 7.79333 137.872 8.94V15H136.052V4.04H137.872V5.6C138.232 5.04 138.718 4.60667 139.332 4.3C139.958 3.99333 140.645 3.84 141.392 3.84ZM163.497 5.14C163.497 6.3 163.097 7.26667 162.297 8.04C161.51 8.8 160.303 9.18 158.677 9.18H155.997V15H154.177V1.06H158.677C160.25 1.06 161.443 1.44 162.257 2.2C163.083 2.96 163.497 3.94 163.497 5.14ZM158.677 7.68C159.69 7.68 160.437 7.46 160.917 7.02C161.397 6.58 161.637 5.95333 161.637 5.14C161.637 3.42 160.65 2.56 158.677 2.56H155.997V7.68H158.677ZM167.579 5.82C167.899 5.19333 168.352 4.70667 168.939 4.36C169.539 4.01333 170.265 3.84 171.119 3.84V5.72H170.639C168.599 5.72 167.579 6.82667 167.579 9.04V15H165.759V4.04H167.579V5.82ZM178 15.18C176.973 15.18 176.04 14.9467 175.2 14.48C174.373 14.0133 173.72 13.3533 173.24 12.5C172.773 11.6333 172.54 10.6333 172.54 9.5C172.54 8.38 172.78 7.39333 173.26 6.54C173.753 5.67333 174.42 5.01333 175.26 4.56C176.1 4.09333 177.04 3.86 178.08 3.86C179.12 3.86 180.06 4.09333 180.9 4.56C181.74 5.01333 182.4 5.66667 182.88 6.52C183.373 7.37333 183.62 8.36667 183.62 9.5C183.62 10.6333 183.366 11.6333 182.86 12.5C182.366 13.3533 181.693 14.0133 180.84 14.48C179.986 14.9467 179.04 15.18 178 15.18ZM178 13.58C178.653 13.58 179.266 13.4267 179.84 13.12C180.413 12.8133 180.873 12.3533 181.22 11.74C181.58 11.1267 181.76 10.38 181.76 9.5C181.76 8.62 181.586 7.87333 181.24 7.26C180.893 6.64667 180.44 6.19333 179.88 5.9C179.32 5.59333 178.713 5.44 178.06 5.44C177.393 5.44 176.78 5.59333 176.22 5.9C175.673 6.19333 175.233 6.64667 174.9 7.26C174.566 7.87333 174.4 8.62 174.4 9.5C174.4 10.3933 174.56 11.1467 174.88 11.76C175.213 12.3733 175.653 12.8333 176.2 13.14C176.746 13.4333 177.346 13.58 178 13.58ZM190.533 3.86C191.479 3.86 192.306 4.06667 193.013 4.48C193.733 4.89333 194.266 5.41333 194.613 6.04V4.04H196.453V15.24C196.453 16.24 196.239 17.1267 195.813 17.9C195.386 18.6867 194.773 19.3 193.973 19.74C193.186 20.18 192.266 20.4 191.213 20.4C189.773 20.4 188.573 20.06 187.613 19.38C186.653 18.7 186.086 17.7733 185.913 16.6H187.713C187.913 17.2667 188.326 17.8 188.953 18.2C189.579 18.6133 190.333 18.82 191.213 18.82C192.213 18.82 193.026 18.5067 193.653 17.88C194.293 17.2533 194.613 16.3733 194.613 15.24V12.94C194.253 13.58 193.719 14.1133 193.013 14.54C192.306 14.9667 191.479 15.18 190.533 15.18C189.559 15.18 188.673 14.94 187.873 14.46C187.086 13.98 186.466 13.3067 186.013 12.44C185.559 11.5733 185.333 10.5867 185.333 9.48C185.333 8.36 185.559 7.38 186.013 6.54C186.466 5.68667 187.086 5.02667 187.873 4.56C188.673 4.09333 189.559 3.86 190.533 3.86ZM194.613 9.5C194.613 8.67333 194.446 7.95333 194.113 7.34C193.779 6.72667 193.326 6.26 192.753 5.94C192.193 5.60667 191.573 5.44 190.893 5.44C190.213 5.44 189.593 5.6 189.033 5.92C188.473 6.24 188.026 6.70667 187.693 7.32C187.359 7.93333 187.193 8.65333 187.193 9.48C187.193 10.32 187.359 11.0533 187.693 11.68C188.026 12.2933 188.473 12.7667 189.033 13.1C189.593 13.42 190.213 13.58 190.893 13.58C191.573 13.58 192.193 13.42 192.753 13.1C193.326 12.7667 193.779 12.2933 194.113 11.68C194.446 11.0533 194.613 10.3267 194.613 9.5ZM201.348 5.82C201.668 5.19333 202.122 4.70667 202.708 4.36C203.308 4.01333 204.035 3.84 204.888 3.84V5.72H204.408C202.368 5.72 201.348 6.82667 201.348 9.04V15H199.528V4.04H201.348V5.82ZM216.989 9.1C216.989 9.44667 216.969 9.81333 216.929 10.2H208.169C208.236 11.28 208.603 12.1267 209.269 12.74C209.949 13.34 210.769 13.64 211.729 13.64C212.516 13.64 213.169 13.46 213.689 13.1C214.223 12.7267 214.596 12.2333 214.809 11.62H216.769C216.476 12.6733 215.889 13.5333 215.009 14.2C214.129 14.8533 213.036 15.18 211.729 15.18C210.689 15.18 209.756 14.9467 208.929 14.48C208.116 14.0133 207.476 13.3533 207.009 12.5C206.543 11.6333 206.309 10.6333 206.309 9.5C206.309 8.36667 206.536 7.37333 206.989 6.52C207.443 5.66667 208.076 5.01333 208.889 4.56C209.716 4.09333 210.663 3.86 211.729 3.86C212.769 3.86 213.689 4.08667 214.489 4.54C215.289 4.99333 215.903 5.62 216.329 6.42C216.769 7.20667 216.989 8.1 216.989 9.1ZM215.109 8.72C215.109 8.02667 214.956 7.43333 214.649 6.94C214.343 6.43333 213.923 6.05333 213.389 5.8C212.869 5.53333 212.289 5.4 211.649 5.4C210.729 5.4 209.943 5.69333 209.289 6.28C208.649 6.86667 208.283 7.68 208.189 8.72H215.109ZM223.272 15.18C222.432 15.18 221.678 15.04 221.012 14.76C220.345 14.4667 219.818 14.0667 219.432 13.56C219.045 13.04 218.832 12.4467 218.792 11.78H220.672C220.725 12.3267 220.978 12.7733 221.432 13.12C221.898 13.4667 222.505 13.64 223.252 13.64C223.945 13.64 224.492 13.4867 224.892 13.18C225.292 12.8733 225.492 12.4867 225.492 12.02C225.492 11.54 225.278 11.1867 224.852 10.96C224.425 10.72 223.765 10.4867 222.872 10.26C222.058 10.0467 221.392 9.83333 220.872 9.62C220.365 9.39333 219.925 9.06667 219.552 8.64C219.192 8.2 219.012 7.62667 219.012 6.92C219.012 6.36 219.178 5.84667 219.512 5.38C219.845 4.91333 220.318 4.54667 220.932 4.28C221.545 4 222.245 3.86 223.032 3.86C224.245 3.86 225.225 4.16667 225.972 4.78C226.718 5.39333 227.118 6.23333 227.172 7.3H225.352C225.312 6.72667 225.078 6.26667 224.652 5.92C224.238 5.57333 223.678 5.4 222.972 5.4C222.318 5.4 221.798 5.54 221.412 5.82C221.025 6.1 220.832 6.46667 220.832 6.92C220.832 7.28 220.945 7.58 221.172 7.82C221.412 8.04667 221.705 8.23333 222.052 8.38C222.412 8.51333 222.905 8.66667 223.532 8.84C224.318 9.05333 224.958 9.26667 225.452 9.48C225.945 9.68 226.365 9.98667 226.712 10.4C227.072 10.8133 227.258 11.3533 227.272 12.02C227.272 12.62 227.105 13.16 226.772 13.64C226.438 14.12 225.965 14.5 225.352 14.78C224.752 15.0467 224.058 15.18 223.272 15.18ZM233.721 15.18C232.881 15.18 232.127 15.04 231.461 14.76C230.794 14.4667 230.267 14.0667 229.881 13.56C229.494 13.04 229.281 12.4467 229.241 11.78H231.121C231.174 12.3267 231.427 12.7733 231.881 13.12C232.347 13.4667 232.954 13.64 233.701 13.64C234.394 13.64 234.941 13.4867 235.341 13.18C235.741 12.8733 235.941 12.4867 235.941 12.02C235.941 11.54 235.727 11.1867 235.301 10.96C234.874 10.72 234.214 10.4867 233.321 10.26C232.507 10.0467 231.841 9.83333 231.321 9.62C230.814 9.39333 230.374 9.06667 230.001 8.64C229.641 8.2 229.461 7.62667 229.461 6.92C229.461 6.36 229.627 5.84667 229.961 5.38C230.294 4.91333 230.767 4.54667 231.381 4.28C231.994 4 232.694 3.86 233.481 3.86C234.694 3.86 235.674 4.16667 236.421 4.78C237.167 5.39333 237.567 6.23333 237.621 7.3H235.801C235.761 6.72667 235.527 6.26667 235.101 5.92C234.687 5.57333 234.127 5.4 233.421 5.4C232.767 5.4 232.247 5.54 231.861 5.82C231.474 6.1 231.281 6.46667 231.281 6.92C231.281 7.28 231.394 7.58 231.621 7.82C231.861 8.04667 232.154 8.23333 232.501 8.38C232.861 8.51333 233.354 8.66667 233.981 8.84C234.767 9.05333 235.407 9.26667 235.901 9.48C236.394 9.68 236.814 9.98667 237.161 10.4C237.521 10.8133 237.707 11.3533 237.721 12.02C237.721 12.62 237.554 13.16 237.221 13.64C236.887 14.12 236.414 14.5 235.801 14.78C235.201 15.0467 234.507 15.18 233.721 15.18Z" fill="black"/>
</svg>
