<svg xmlns="http://www.w3.org/2000/svg" viewBox="0 0 709.84 267.02"><defs><style>.cls-1{fill:#318250;}.cls-2{fill:#0f496f;}</style></defs><g id="Layer_2" data-name="Layer 2"><g id="Layer_1-2" data-name="Layer 1"><path class="cls-1" d="M101.79,164.1q1.5,10.62,5.9,15.88,8.06,9.57,27.6,9.57,11.7,0,19-2.53,13.84-4.83,13.85-18a13.25,13.25,0,0,0-6.79-11.88q-6.78-4.11-21.52-7.26l-16.78-3.68q-24.75-5.47-34-11.88Q73.4,123.6,73.39,100.79q0-20.82,15.33-34.6t45-13.78q24.8,0,42.31,13t18.37,37.7H163.31q-.87-14-12.51-19.87-7.76-3.9-19.29-3.9-12.84,0-20.49,5a16,16,0,0,0-7.65,14.09q0,8.31,7.54,12.41,4.86,2.75,20.6,6.42l27.2,6.41q17.88,4.22,26.81,11.26,13.86,10.93,13.86,31.65,0,21.24-16.42,35.28t-46.4,14q-30.61,0-48.15-13.83t-17.54-38Z"/><path class="cls-1" d="M336.72,84.38h-82V117.3H330v26.92H254.7v39.86h85.81V212H223v-155H336.72Z"/><path class="cls-2" d="M446.72,56.94H410.08L354.74,212h33.89l10.5-31.87h29.71a1.83,1.83,0,0,1-.24-1.1,4.75,4.75,0,0,0-1.18-3.55,7.43,7.43,0,0,1-1.61-4.28,11.18,11.18,0,0,0-1.64-4.94,8.36,8.36,0,0,1-1-2.2,6.28,6.28,0,0,1,.44-3.91,4.76,4.76,0,0,1,.38-.9,4.92,4.92,0,0,0,.36-3.92,12.71,12.71,0,0,0-3.58-6.26,2.77,2.77,0,0,1-.63-2.83,22.07,22.07,0,0,0,.46-2.68c.07-.86-.4-1.25-1.27-1.25-.41,0-.82,0-1.23,0a1.37,1.37,0,0,1-1.52-.83,2,2,0,0,0-2.08-1.14,5.59,5.59,0,0,0-1.29.2c-.95.3-1.89.64-2.84,1a2.14,2.14,0,0,1-1.39.12,4,4,0,0,0-2.83.22,2.53,2.53,0,0,1-3-.46c-.84-.74-1.78-1.39-2.6-2.16a5.18,5.18,0,0,1-1.08-1.57,5,5,0,0,0-1.41-1.87l-.91-.76a2.36,2.36,0,0,1-.85-1.4,1.89,1.89,0,0,0-.24-.65,2,2,0,0,1-.07-1.7c.28-.83.61-1.64.85-2.5a5.07,5.07,0,0,0-.09-2.62.94.94,0,0,0-.25-.46.81.81,0,0,1-.2-1,17.94,17.94,0,0,1,4.13-6.07,3.59,3.59,0,0,1,1-.62,2.63,2.63,0,0,0,1.6-2.24,3.54,3.54,0,0,1,.47-1.45,2.47,2.47,0,0,1,1-.92,4.5,4.5,0,0,0,1.92-1.77,2.75,2.75,0,0,1,.62-.74c.32-.25.63-.14.93.14a1.09,1.09,0,0,0,.61.21c.58,0,1.16,0,1.75,0a1.64,1.64,0,0,0,1.15-.27,8.81,8.81,0,0,1,4.37-1.45c1.39-.12,2.79-.2,4.19-.34a7,7,0,0,0,.91-.2.91.91,0,0,1,1.22,1,3.15,3.15,0,0,1-.51,1.94.64.64,0,0,0,0,.57,2.15,2.15,0,0,0,1.67,1,6,6,0,0,1,3.47,1.4,4.33,4.33,0,0,0,.85.47,12.72,12.72,0,0,1,1.32.69c.63.42,1.31.27,1.33-.58a6.93,6.93,0,0,1,.11-1,1.15,1.15,0,0,1,1-1,3.17,3.17,0,0,1,2.16.27,9.92,9.92,0,0,0,2.39.75,18.19,18.19,0,0,1,2.17.68,2.57,2.57,0,0,0,1.91-.09,2.47,2.47,0,0,1,1.87-.07,2.52,2.52,0,0,0,1.56.12.54.54,0,0,1,.69.36,2.72,2.72,0,0,1-.11,2.58,2,2,0,0,1-.55.44h-.17c.51,1,1,2,1.55,3l1.14,2.25a1.69,1.69,0,0,0,.25.46,4.29,4.29,0,0,1,1,2.38,2.83,2.83,0,0,0,.92,1.73,3.83,3.83,0,0,1,1.11,1.87,3,3,0,0,0,1.4,1.83c.51.35,1,.66,1.51,1a5.46,5.46,0,0,1,.83,1,.7.7,0,0,1,.05.84.56.56,0,0,0,.05.47,2,2,0,0,0,2,.79c1-.22,2-.39,3-.62a14.57,14.57,0,0,0,1.72-.6c.42-.15.66-.07.68.35a3.83,3.83,0,0,1-.18,1.43,35.22,35.22,0,0,1-2.69,5.48A13,13,0,0,1,454.9,145a19.53,19.53,0,0,0-4.7,5.3c-.3.56-.56,1.14-.84,1.71a1.77,1.77,0,0,0,.15,1.75,1.74,1.74,0,0,1,.26,1,3.55,3.55,0,0,0,.55,2.28,2.18,2.18,0,0,1,.31,1.41,10.23,10.23,0,0,0,0,1.75,2.79,2.79,0,0,1-1.7,3.2,11.75,11.75,0,0,0-3.19,2.3,2.46,2.46,0,0,0-.63,2.27c.1.63.17,1.27.21,1.9a1.37,1.37,0,0,1-.74,1.35,10.87,10.87,0,0,1-1.13.57,1.28,1.28,0,0,0-.81,1.06,6.41,6.41,0,0,1-1.87,3.94c-.72.8-1.46,1.59-2.24,2.34a4,4,0,0,1-1.49.94h19.18L466.44,212h35.13Zm13,105.77-.39-.24a10.71,10.71,0,0,1-.27,1.26c-.34,1-.68,2.05-1.07,3.07-.46,1.27-1,2.54-1.43,3.8a2.52,2.52,0,0,1-2.05,1.83,1.31,1.31,0,0,1-1.62-1.06,14.84,14.84,0,0,1-.25-2.19,2.56,2.56,0,0,1,.36-1.27,3.91,3.91,0,0,0,.63-2.91,4.91,4.91,0,0,1,0-1.15c.05-.75.51-1.19,1.39-1.34l.48-.08a2.22,2.22,0,0,0,1.8-1.44,2.63,2.63,0,0,1,.77-1.12,2.46,2.46,0,0,0,.46-.88,3.36,3.36,0,0,0,.14-.6A5.61,5.61,0,0,1,459.7,162.71Z"/><path class="cls-2" d="M625.35,144.85q-13.61,11.35-38.87,11.36H554.2V212H522v-155h66.56q23,0,36.7,12T639,106.05Q639,133.5,625.35,144.85ZM600.63,89q-6.15-5.15-17.24-5.15H554.2V129.5h29.19q11.08,0,17.24-5.58t6.16-17.66Q606.79,94.17,600.63,89Z"/><path class="cls-2" d="M4.59,16.62A4.61,4.61,0,0,0,5.47,19c.8,1,2.16,1.43,4.1,1.43A8.81,8.81,0,0,0,12.39,20a2.68,2.68,0,0,0,2.06-2.67,2,2,0,0,0-1-1.76,10.74,10.74,0,0,0-3.2-1.08L7.75,14a15.68,15.68,0,0,1-5-1.76,5.64,5.64,0,0,1-2.33-5A6.59,6.59,0,0,1,2.65,2.08Q4.93,0,9.34,0A10.22,10.22,0,0,1,15.62,2a6.83,6.83,0,0,1,2.73,5.6H13.73a3.3,3.3,0,0,0-1.86-2.95A6.3,6.3,0,0,0,9,4a5.45,5.45,0,0,0-3,.75A2.36,2.36,0,0,0,4.83,6.87,2,2,0,0,0,6,8.71,14.22,14.22,0,0,0,9,9.67l4,.95a10.39,10.39,0,0,1,4,1.67,5.63,5.63,0,0,1,2,4.7,6.6,6.6,0,0,1-2.44,5.24,10.27,10.27,0,0,1-6.88,2.09A11.27,11.27,0,0,1,2.6,22.26,6.81,6.81,0,0,1,0,16.62Z"/><path class="cls-2" d="M22.46.7h4.88V14.84a8,8,0,0,0,.56,3.46c.59,1.29,1.85,1.94,3.8,1.94s3.2-.65,3.78-1.94A7.86,7.86,0,0,0,36,14.84V.7h4.89V14.85a11.88,11.88,0,0,1-1.14,5.72q-2.11,3.75-8.09,3.75t-8.11-3.75a12,12,0,0,1-1.13-5.72Z"/><path class="cls-2" d="M49,16.62A4.61,4.61,0,0,0,49.9,19c.79,1,2.16,1.43,4.09,1.43A8.87,8.87,0,0,0,56.82,20a2.68,2.68,0,0,0,2-2.67,2,2,0,0,0-1-1.76,10.74,10.74,0,0,0-3.2-1.08L52.18,14a15.68,15.68,0,0,1-5-1.76,5.64,5.64,0,0,1-2.33-5,6.59,6.59,0,0,1,2.28-5.13Q49.36,0,53.77,0A10.22,10.22,0,0,1,60.05,2a6.86,6.86,0,0,1,2.73,5.6H58.16A3.3,3.3,0,0,0,56.3,4.61,6.3,6.3,0,0,0,53.43,4a5.45,5.45,0,0,0-3,.75,2.37,2.37,0,0,0-1.14,2.09,2,2,0,0,0,1.12,1.84,14.58,14.58,0,0,0,3.06,1l4,.95a10.26,10.26,0,0,1,4,1.67A5.61,5.61,0,0,1,63.51,17a6.6,6.6,0,0,1-2.44,5.24q-2.43,2.09-6.89,2.09A11.26,11.26,0,0,1,47,22.26a6.81,6.81,0,0,1-2.6-5.64Z"/><path class="cls-2" d="M83.61.7V4.78H76.72V23.72H71.88V4.78H65V.7Z"/><path class="cls-2" d="M90.65.7h5.44l8.14,23H99L97.5,19H89l-1.56,4.73h-5ZM90.33,15h5.9L93.32,6Z"/><path class="cls-2" d="M111.55,23.72h-4.78V.7h4.78Z"/><path class="cls-2" d="M116,.7h5l9.14,16.05V.7h4.48v23h-4.81L120.45,7.39V23.72H116Z"/><path class="cls-2" d="M145.73.7h5.44l8.14,23H154.1L152.58,19H144.1l-1.56,4.73h-5ZM145.41,15h5.89l-2.9-9Z"/><path class="cls-2" d="M179.41,3.15a5.9,5.9,0,0,1,1.06,3.52,5.16,5.16,0,0,1-1.07,3.39,5.53,5.53,0,0,1-1.76,1.31,5.12,5.12,0,0,1,2.66,2,6.08,6.08,0,0,1,.9,3.37,6.66,6.66,0,0,1-1,3.67,6.15,6.15,0,0,1-1.63,1.81,6.24,6.24,0,0,1-2.6,1.16,15.8,15.8,0,0,1-3.25.31H162.32V.7h11.12Q177.66.76,179.41,3.15ZM166.91,4.7V9.78h5.59a4.64,4.64,0,0,0,2.44-.57,2.19,2.19,0,0,0,.93-2,2.06,2.06,0,0,0-1.23-2.12,8.65,8.65,0,0,0-2.72-.36Zm0,8.89v6.13h5.59a5.45,5.45,0,0,0,2.33-.4,2.9,2.9,0,0,0,1.51-2.88A2.47,2.47,0,0,0,174.88,14a5.85,5.85,0,0,0-2.3-.39Z"/><path class="cls-2" d="M185.34.7h4.81V19.58h11.49v4.14h-16.3Z"/><path class="cls-2" d="M221.9,4.78H209.72V9.67H220.9v4H209.72v5.92h12.74v4.14H205V.7H221.9Z"/><path class="cls-2" d="M252.11,4.78H239.93V9.67h11.18v4H239.93v5.92h12.75v4.14H235.23V.7h16.88Z"/><path class="cls-2" d="M256.35.7h5l9.14,16.05V.7H275v23H270.2L260.83,7.39V23.72h-4.48Z"/><path class="cls-2" d="M296.54,4.78H284.36V9.67h11.18v4H284.36v5.92h12.75v4.14H279.66V.7h16.88Z"/><path class="cls-2" d="M315.6,1.3a5.71,5.71,0,0,1,2.16,1.6,7.35,7.35,0,0,1,1.16,1.94,6.57,6.57,0,0,1,.42,2.42,7,7,0,0,1-.82,3.23,4.7,4.7,0,0,1-2.74,2.24A4.26,4.26,0,0,1,318,14.55a7.58,7.58,0,0,1,.66,3.6v1.54a12,12,0,0,0,.13,2.14,1.9,1.9,0,0,0,.89,1.31v.58h-5.31c-.15-.51-.25-.92-.31-1.23a10.92,10.92,0,0,1-.21-2l0-2.13a4.35,4.35,0,0,0-.76-2.94,3.88,3.88,0,0,0-2.74-.73h-4.7v9H301V.7h11A9.79,9.79,0,0,1,315.6,1.3Zm-9.94,3.4v6.18h5.18a5.48,5.48,0,0,0,2.31-.37,2.59,2.59,0,0,0,1.37-2.59,2.9,2.9,0,0,0-1.32-2.81A4.81,4.81,0,0,0,311,4.7Z"/><path class="cls-2" d="M339.43,7.89a4.53,4.53,0,0,0-2.67-3.3,6.65,6.65,0,0,0-2.64-.51,5.72,5.72,0,0,0-4.57,2.09q-1.79,2.1-1.79,6.31t1.94,6a6.38,6.38,0,0,0,4.4,1.76,5.71,5.71,0,0,0,4-1.39,6,6,0,0,0,1.9-3.64h-5.32V11.37h9.59V23.72h-3.19l-.48-2.87a11.12,11.12,0,0,1-2.5,2.3,8.8,8.8,0,0,1-4.69,1.17,9.72,9.72,0,0,1-7.49-3.17q-3-3.19-3.05-8.71a12.78,12.78,0,0,1,3.08-9A10.47,10.47,0,0,1,334.05.11a10.63,10.63,0,0,1,7.06,2.23,8.27,8.27,0,0,1,3.05,5.55Z"/><path class="cls-2" d="M362,.7h5.45l-7.7,14.39v8.63H354.9V15.09L346.94.7h5.67l4.78,10Z"/><path class="cls-2" d="M383.89.7h5.45l8.14,23h-5.22L390.75,19h-8.48l-1.56,4.73h-5ZM383.58,15h5.89l-2.9-9Z"/><path class="cls-2" d="M402.61,3.11A9.44,9.44,0,0,1,409.68.27q5.76,0,8.41,3.81a8.22,8.22,0,0,1,1.57,4.29h-4.81a6.47,6.47,0,0,0-1.17-2.5,4.75,4.75,0,0,0-3.81-1.5,4.7,4.7,0,0,0-4.06,2.12,10.34,10.34,0,0,0-1.48,6q0,3.87,1.56,5.8a4.92,4.92,0,0,0,4,1.93,4.51,4.51,0,0,0,3.78-1.66,7.26,7.26,0,0,0,1.19-2.67h4.78A10.37,10.37,0,0,1,416.46,22,9.18,9.18,0,0,1,410,24.36a9.79,9.79,0,0,1-7.73-3.18c-1.87-2.14-2.81-5.06-2.81-8.78Q399.41,6.37,402.61,3.11Z"/><path class="cls-2" d="M425.7,3.11A9.48,9.48,0,0,1,432.78.27q5.75,0,8.41,3.81a8.31,8.31,0,0,1,1.57,4.29H438a6.47,6.47,0,0,0-1.18-2.5,5.21,5.21,0,0,0-7.86.62,10.34,10.34,0,0,0-1.48,6q0,3.87,1.56,5.8a4.9,4.9,0,0,0,4,1.93,4.48,4.48,0,0,0,3.77-1.66,7.25,7.25,0,0,0,1.2-2.67h4.77A10.31,10.31,0,0,1,439.55,22,9.15,9.15,0,0,1,433,24.36a9.77,9.77,0,0,1-7.72-3.18c-1.88-2.14-2.81-5.06-2.81-8.78Q422.51,6.37,425.7,3.11Z"/><path class="cls-2" d="M463.63,4.78H451.44V9.67h11.19v4H451.44v5.92h12.75v4.14H446.74V.7h16.89Z"/><path class="cls-2" d="M471.4,16.62a4.61,4.61,0,0,0,.88,2.35c.8,1,2.16,1.43,4.1,1.43A8.76,8.76,0,0,0,479.2,20a2.68,2.68,0,0,0,2.06-2.67,2,2,0,0,0-1-1.76,10.74,10.74,0,0,0-3.2-1.08L474.56,14a15.68,15.68,0,0,1-5.05-1.76,5.63,5.63,0,0,1-2.32-5,6.58,6.58,0,0,1,2.27-5.13Q471.74,0,476.15,0A10.22,10.22,0,0,1,482.43,2a6.83,6.83,0,0,1,2.73,5.6h-4.62a3.3,3.3,0,0,0-1.86-2.95A6.28,6.28,0,0,0,475.82,4a5.49,5.49,0,0,0-3.05.75,2.38,2.38,0,0,0-1.13,2.09,2,2,0,0,0,1.12,1.84,14.17,14.17,0,0,0,3.06,1l4,.95a10.32,10.32,0,0,1,4,1.67,5.63,5.63,0,0,1,2.05,4.7,6.62,6.62,0,0,1-2.43,5.24,10.31,10.31,0,0,1-6.89,2.09,11.29,11.29,0,0,1-7.16-2.06,6.81,6.81,0,0,1-2.6-5.64Z"/><path class="cls-2" d="M492.73,16.62a4.7,4.7,0,0,0,.88,2.35c.8,1,2.16,1.43,4.1,1.43a8.76,8.76,0,0,0,2.82-.38,2.68,2.68,0,0,0,2.06-2.67,2,2,0,0,0-1-1.76,10.74,10.74,0,0,0-3.2-1.08L495.89,14a15.68,15.68,0,0,1-5.05-1.76,5.63,5.63,0,0,1-2.32-5,6.62,6.62,0,0,1,2.27-5.13Q493.07,0,497.48,0A10.25,10.25,0,0,1,503.77,2a6.85,6.85,0,0,1,2.72,5.6h-4.62A3.28,3.28,0,0,0,500,4.61,6.28,6.28,0,0,0,497.15,4a5.43,5.43,0,0,0-3,.75A2.37,2.37,0,0,0,493,6.87a2,2,0,0,0,1.12,1.84,14.17,14.17,0,0,0,3.06,1l4,.95a10.33,10.33,0,0,1,4,1.67,5.64,5.64,0,0,1,2.06,4.7,6.63,6.63,0,0,1-2.44,5.24,10.3,10.3,0,0,1-6.89,2.09,11.24,11.24,0,0,1-7.15-2.06,6.79,6.79,0,0,1-2.61-5.64Z"/><path class="cls-2" d="M534.94,13.76a8.8,8.8,0,0,1-5.77,1.68h-4.8v8.28H519.6V.7h9.88a8,8,0,0,1,5.45,1.78q2,1.78,2,5.52Q537,12.07,534.94,13.76Zm-3.67-8.29a3.87,3.87,0,0,0-2.56-.77h-4.34v6.78h4.34a3.68,3.68,0,0,0,2.56-.83A3.37,3.37,0,0,0,532.18,8,3.16,3.16,0,0,0,531.27,5.47Z"/><path class="cls-2" d="M555.57,1.3a5.6,5.6,0,0,1,2.15,1.6,7.09,7.09,0,0,1,1.16,1.94,6.37,6.37,0,0,1,.43,2.42,7,7,0,0,1-.83,3.23,4.65,4.65,0,0,1-2.73,2.24A4.23,4.23,0,0,1,558,14.55a7.44,7.44,0,0,1,.67,3.6v1.54a12.28,12.28,0,0,0,.12,2.14,1.93,1.93,0,0,0,.89,1.31v.58h-5.31c-.14-.51-.25-.92-.31-1.23a11.88,11.88,0,0,1-.2-2l0-2.13a4.4,4.4,0,0,0-.76-2.94,3.9,3.9,0,0,0-2.74-.73h-4.7v9h-4.7V.7h11A9.87,9.87,0,0,1,555.57,1.3Zm-9.94,3.4v6.18h5.17a5.56,5.56,0,0,0,2.32-.37,2.59,2.59,0,0,0,1.36-2.59,2.9,2.9,0,0,0-1.32-2.81,4.73,4.73,0,0,0-2.22-.41Z"/><path class="cls-2" d="M579.37,13.76a8.8,8.8,0,0,1-5.77,1.68h-4.8v8.28H564V.7h9.89a8,8,0,0,1,5.45,1.78q2,1.78,2,5.52Q581.39,12.07,579.37,13.76ZM575.7,5.47a3.87,3.87,0,0,0-2.56-.77H568.8v6.78h4.34a3.68,3.68,0,0,0,2.56-.83A3.37,3.37,0,0,0,576.61,8,3.16,3.16,0,0,0,575.7,5.47Z"/><path class="cls-2" d="M603,21.68q-2.61,2.68-7.54,2.68c-3.29,0-5.81-.89-7.54-2.68q-3.51-3.3-3.5-9.5t3.5-9.49C589.62.9,592.14,0,595.43,0s5.8.9,7.54,2.69q3.48,3.17,3.48,9.49T603,21.68Zm-3-3.5a9.5,9.5,0,0,0,1.67-6,9.49,9.49,0,0,0-1.67-6,5.5,5.5,0,0,0-4.54-2.11,5.56,5.56,0,0,0-4.56,2.1,9.32,9.32,0,0,0-1.7,6,9.32,9.32,0,0,0,1.7,6,6,6,0,0,0,9.1,0Z"/><path class="cls-2" d="M612.94,15v.53a10.36,10.36,0,0,0,.55,3.76,2.53,2.53,0,0,0,4.21-.1A6.39,6.39,0,0,0,618,16.8V.7h4.81v16a9.34,9.34,0,0,1-1,4.65c-1.12,1.94-3.14,2.9-6.06,2.9s-4.89-.78-5.88-2.35a11.81,11.81,0,0,1-1.5-6.41V15Z"/><path class="cls-2" d="M644.93,4.78H632.75V9.67h11.18v4H632.75v5.92H645.5v4.14H628.05V.7h16.88Z"/><path class="cls-2" d="M651.44,3.11A9.48,9.48,0,0,1,658.52.27q5.75,0,8.4,3.81a8.24,8.24,0,0,1,1.58,4.29h-4.81a6.62,6.62,0,0,0-1.18-2.5,4.75,4.75,0,0,0-3.81-1.5,4.7,4.7,0,0,0-4.05,2.12,10.33,10.33,0,0,0-1.49,6c0,2.58.53,4.51,1.57,5.8a4.89,4.89,0,0,0,4,1.93,4.48,4.48,0,0,0,3.77-1.66,7.1,7.1,0,0,0,1.19-2.67h4.78A10.31,10.31,0,0,1,665.29,22a9.15,9.15,0,0,1-6.51,2.36,9.77,9.77,0,0,1-7.72-3.18c-1.88-2.14-2.82-5.06-2.82-8.78Q648.24,6.37,651.44,3.11Z"/><path class="cls-2" d="M689.07.7V4.78h-6.89V23.72h-4.84V4.78h-6.92V.7Z"/><path class="cls-2" d="M695.34,16.62a4.7,4.7,0,0,0,.88,2.35c.8,1,2.16,1.43,4.1,1.43a8.76,8.76,0,0,0,2.82-.38,2.68,2.68,0,0,0,2.06-2.67,2,2,0,0,0-1-1.76,10.74,10.74,0,0,0-3.2-1.08L698.5,14a15.68,15.68,0,0,1-5-1.76,5.63,5.63,0,0,1-2.32-5,6.62,6.62,0,0,1,2.27-5.13Q695.68,0,700.09,0A10.25,10.25,0,0,1,706.38,2a6.85,6.85,0,0,1,2.72,5.6h-4.62a3.3,3.3,0,0,0-1.86-2.95A6.28,6.28,0,0,0,699.76,4a5.43,5.43,0,0,0-3,.75,2.37,2.37,0,0,0-1.14,2.09,2,2,0,0,0,1.12,1.84,14.17,14.17,0,0,0,3.06,1l4,.95a10.33,10.33,0,0,1,4,1.67,5.64,5.64,0,0,1,2.06,4.7,6.63,6.63,0,0,1-2.44,5.24,10.3,10.3,0,0,1-6.89,2.09,11.24,11.24,0,0,1-7.15-2.06,6.79,6.79,0,0,1-2.61-5.64Z"/><path class="cls-2" d="M89.64,242.55H74.38v6.12h14v5h-14v7.41h16v5.19H68.49V237.44H89.64Z"/><path class="cls-2" d="M94.94,237.44h6.32l11.44,20.11V237.44h5.62v28.84h-6l-11.74-20.46v20.46H94.94Z"/><path class="cls-2" d="M145.29,242.55H130v6.12h14v5H130v7.41h16v5.19H124.14V237.44h21.15Z"/><path class="cls-2" d="M169.17,238.19a7,7,0,0,1,2.7,2,8.77,8.77,0,0,1,1.44,2.43,8,8,0,0,1,.54,3,8.65,8.65,0,0,1-1,4,5.81,5.81,0,0,1-3.42,2.81,5.37,5.37,0,0,1,2.83,2.28,9.49,9.49,0,0,1,.83,4.5v1.94a14.18,14.18,0,0,0,.16,2.68,2.41,2.41,0,0,0,1.11,1.64v.73h-6.65c-.18-.64-.31-1.16-.39-1.55a14.59,14.59,0,0,1-.26-2.48l0-2.68c0-1.84-.34-3.07-.95-3.68s-1.76-.92-3.43-.92h-5.89v11.31h-5.88V237.44h13.79A12.52,12.52,0,0,1,169.17,238.19Zm-12.46,4.26v7.75h6.49a7,7,0,0,0,2.9-.47,3.24,3.24,0,0,0,1.7-3.25c0-1.75-.55-2.92-1.65-3.52a6,6,0,0,0-2.79-.51Z"/><path class="cls-2" d="M199,246.44a5.68,5.68,0,0,0-3.35-4.13,8.21,8.21,0,0,0-3.31-.64,7.17,7.17,0,0,0-5.72,2.63q-2.24,2.63-2.24,7.89t2.43,7.52a8,8,0,0,0,5.51,2.2,7.18,7.18,0,0,0,5-1.73,7.55,7.55,0,0,0,2.39-4.56H193V250.8h12v15.48h-4l-.61-3.6a13.79,13.79,0,0,1-3.13,2.88,11.06,11.06,0,0,1-5.87,1.46,12.15,12.15,0,0,1-9.38-4q-3.83-4-3.82-10.91t3.85-11.22a13.16,13.16,0,0,1,10.2-4.22,13.33,13.33,0,0,1,8.83,2.79,10.34,10.34,0,0,1,3.82,6.95Z"/><path class="cls-2" d="M227.23,237.44h6.83l-9.64,18v10.81h-6V255.47l-10-18h7.1l6,12.56Z"/><path class="cls-2" d="M251.85,237.44,255.66,254l.83,4.6.83-4.5,3.25-16.61h6.36L270.36,254l.87,4.6.9-4.42L276,237.44h6.13L274,266.28h-5.77l-3.48-16.86-1-5.58-1,5.58-3.49,16.86h-5.59l-8.18-28.84Z"/><path class="cls-2" d="M285.7,266.28V237.44h6v11h11.2v-11h6v28.84h-6V253.41h-11.2v12.87Z"/><path class="cls-2" d="M336,242.55H320.73v6.12h14v5h-14v7.41h16v5.19H314.85V237.44H336Z"/><path class="cls-2" d="M359.87,238.19a7,7,0,0,1,2.7,2,9.05,9.05,0,0,1,1.45,2.43,8.15,8.15,0,0,1,.53,3,8.63,8.63,0,0,1-1,4,5.86,5.86,0,0,1-3.43,2.81,5.37,5.37,0,0,1,2.83,2.28,9.49,9.49,0,0,1,.83,4.5v1.94a14.18,14.18,0,0,0,.16,2.68,2.41,2.41,0,0,0,1.11,1.64v.73h-6.65c-.18-.64-.31-1.16-.39-1.55a13.63,13.63,0,0,1-.25-2.48l0-2.68c0-1.84-.35-3.07-1-3.68S355,255,353.3,255h-5.88v11.31h-5.89V237.44h13.79A12.48,12.48,0,0,1,359.87,238.19Zm-12.45,4.26v7.75h6.48a7,7,0,0,0,2.9-.47,3.25,3.25,0,0,0,1.71-3.25c0-1.75-.55-2.92-1.66-3.52a5.93,5.93,0,0,0-2.78-.51Z"/><path class="cls-2" d="M391.64,242.55H376.39v6.12h14v5h-14v7.41h16v5.19H370.5V237.44h21.14Z"/><path class="cls-2" d="M413.67,266.28h-6V237.44h6Z"/><path class="cls-2" d="M440.25,237.44v5.11h-8.62v23.73h-6.07V242.55H416.9v-5.11Z"/><path class="cls-2" d="M474,237.44h8.67v28.84h-5.61V246.77c0-.56,0-1.34,0-2.35s0-1.79,0-2.34l-5.47,24.2h-5.85l-5.43-24.2c0,.55,0,1.33,0,2.34s0,1.79,0,2.35v19.51h-5.61V237.44h8.76l5.25,22.68Z"/><path class="cls-2" d="M496.52,237.44h6.82l10.2,28.84H507l-1.91-5.93H494.49l-2,5.93h-6.3Zm-.4,17.94h7.39L499.87,244Z"/><path class="cls-2" d="M535.2,237.44v5.11h-8.62v23.73h-6.07V242.55h-8.66v-5.11Z"/><path class="cls-2" d="M559.68,237.44v5.11h-8.63v23.73H545V242.55h-8.67v-5.11Z"/><path class="cls-2" d="M584.52,242.55H569.26v6.12h14v5h-14v7.41h16v5.19H563.37V237.44h21.15Z"/><path class="cls-2" d="M608.39,238.19a6.9,6.9,0,0,1,2.7,2,8.8,8.8,0,0,1,1.45,2.43,8,8,0,0,1,.54,3,8.65,8.65,0,0,1-1,4,5.81,5.81,0,0,1-3.42,2.81,5.31,5.31,0,0,1,2.82,2.28,9.35,9.35,0,0,1,.84,4.5v1.94a15.43,15.43,0,0,0,.15,2.68,2.39,2.39,0,0,0,1.12,1.64v.73H606.9a15.14,15.14,0,0,1-.39-1.55,13.64,13.64,0,0,1-.26-2.48l0-2.68c0-1.84-.34-3.07-1-3.68s-1.76-.92-3.43-.92h-5.89v11.31h-5.89V237.44h13.79A12.44,12.44,0,0,1,608.39,238.19Zm-12.45,4.26v7.75h6.49a6.92,6.92,0,0,0,2.89-.47,3.25,3.25,0,0,0,1.71-3.25c0-1.75-.55-2.92-1.65-3.52a6,6,0,0,0-2.79-.51Z"/><path class="cls-2" d="M623.19,257.38a5.85,5.85,0,0,0,1.1,2.95q1.5,1.79,5.13,1.78a11.19,11.19,0,0,0,3.54-.47,3.35,3.35,0,0,0,2.57-3.34,2.45,2.45,0,0,0-1.26-2.21,13.54,13.54,0,0,0-4-1.35l-3.12-.69a19.44,19.44,0,0,1-6.33-2.21q-2.91-2-2.91-6.24a8.3,8.3,0,0,1,2.85-6.44c1.9-1.7,4.69-2.56,8.38-2.56A12.85,12.85,0,0,1,637,239a8.57,8.57,0,0,1,3.41,7h-5.79a4.13,4.13,0,0,0-2.32-3.7,8,8,0,0,0-3.59-.72,6.8,6.8,0,0,0-3.81.94,3,3,0,0,0-1.43,2.62,2.48,2.48,0,0,0,1.41,2.31,17.1,17.1,0,0,0,3.83,1.19l5.06,1.19a12.92,12.92,0,0,1,5,2.1,7.07,7.07,0,0,1,2.57,5.89,8.26,8.26,0,0,1-3.05,6.56c-2,1.74-4.91,2.61-8.63,2.61s-6.78-.86-9-2.57a8.53,8.53,0,0,1-3.26-7.07Z"/></g></g></svg>