<svg xmlns="http://www.w3.org/2000/svg" viewBox="0 0 687.52 687.52"><defs><style>.cls-1{fill:#f6f8ed;}.cls-2{fill:#0e486e;}.cls-3{fill:#318250;}.cls-4{fill:#0f496f;}.cls-5{fill:#0d496e;}</style></defs><g id="Layer_2" data-name="Layer 2"><g id="Layer_1-2" data-name="Layer 1"><circle class="cls-1" cx="343.76" cy="343.76" r="338.23"/><path class="cls-2" d="M343.76,687.52A343.65,343.65,0,0,1,100.69,100.69,343.84,343.84,0,1,1,343.76,687.52Zm0-677C160,10.53,10.53,160,10.53,343.76S160,677,343.76,677,677,527.51,677,343.76,527.5,10.53,343.76,10.53Z"/><path class="cls-3" d="M138.93,368q1.22,8.59,4.78,12.85,6.51,7.74,22.33,7.74,9.47,0,15.38-2,11.21-3.91,11.21-14.55a10.75,10.75,0,0,0-5.49-9.62q-5.5-3.32-17.42-5.87l-13.58-3q-20-4.42-27.51-9.61Q116,335.21,116,316.74a36.08,36.08,0,0,1,12.41-28q12.4-11.14,36.44-11.14,20.07,0,34.24,10.51t14.86,30.5H188.71q-.69-11.31-10.12-16.08-6.28-3.15-15.61-3.15-10.39,0-16.58,4.09a12.91,12.91,0,0,0-6.19,11.4,10.75,10.75,0,0,0,6.1,10q3.93,2.22,16.67,5.19l22,5.19q14.47,3.4,21.69,9.11Q217.9,353.25,217.9,370q0,17.19-13.29,28.55t-37.54,11.36q-24.78,0-39-11.19T113.91,368Z"/><path class="cls-3" d="M329,303.47H262.66V330.1h60.93v21.79H262.66v32.25H332.1v22.55H237.05V281.26h92Z"/><path class="cls-4" d="M418.05,281.26H388.39L343.62,406.69H371l8.49-25.78h24.05a1.5,1.5,0,0,1-.2-.89,3.84,3.84,0,0,0-.95-2.88,6,6,0,0,1-1.3-3.46,9.1,9.1,0,0,0-1.34-4,6.57,6.57,0,0,1-.83-1.78,5.07,5.07,0,0,1,.35-3.16,4.82,4.82,0,0,1,.31-.74,4,4,0,0,0,.29-3.16,10.27,10.27,0,0,0-2.89-5.07,2.21,2.21,0,0,1-.51-2.29,19.66,19.66,0,0,0,.37-2.17c.05-.69-.33-1-1-1a8.14,8.14,0,0,0-1,0,1.13,1.13,0,0,1-1.24-.68,1.59,1.59,0,0,0-1.68-.92,5.12,5.12,0,0,0-1,.16c-.77.25-1.54.52-2.3.8a1.66,1.66,0,0,1-1.12.09,3.32,3.32,0,0,0-2.3.18,2,2,0,0,1-2.4-.37c-.68-.6-1.44-1.12-2.1-1.75a3.94,3.94,0,0,1-.87-1.27,4.17,4.17,0,0,0-1.15-1.51l-.73-.62a1.89,1.89,0,0,1-.69-1.13,2.1,2.1,0,0,0-.19-.53,1.6,1.6,0,0,1-.07-1.37c.23-.67.5-1.33.69-2a4.05,4.05,0,0,0-.07-2.13.83.83,0,0,0-.2-.37.64.64,0,0,1-.16-.83,14.38,14.38,0,0,1,3.34-4.91,2.67,2.67,0,0,1,.78-.5,2.12,2.12,0,0,0,1.29-1.82,2.88,2.88,0,0,1,.38-1.17,2,2,0,0,1,.81-.74,3.62,3.62,0,0,0,1.56-1.44,2.19,2.19,0,0,1,.5-.6c.25-.2.51-.11.75.12a.78.78,0,0,0,.49.16c.47,0,.94,0,1.42,0a1.3,1.3,0,0,0,.93-.22,7.13,7.13,0,0,1,3.53-1.17c1.13-.1,2.26-.16,3.4-.27.24,0,.49-.12.73-.16a.73.73,0,0,1,1,.8,2.57,2.57,0,0,1-.42,1.57.53.53,0,0,0,0,.46,1.73,1.73,0,0,0,1.36.84,4.93,4.93,0,0,1,2.8,1.14,3.51,3.51,0,0,0,.69.38c.35.19.74.34,1.07.56.51.34,1,.22,1.07-.47a7.9,7.9,0,0,1,.09-.82,1,1,0,0,1,.78-.79,2.65,2.65,0,0,1,1.75.22,8,8,0,0,0,1.93.61,15.59,15.59,0,0,1,1.76.55,2,2,0,0,0,1.54-.07,2,2,0,0,1,1.52-.05,2,2,0,0,0,1.26.09.42.42,0,0,1,.55.29,2.19,2.19,0,0,1-.09,2.09c-.09.15-.29.24-.44.36h-.14l1.26,2.42c.3.61.61,1.22.92,1.83a2.18,2.18,0,0,0,.2.37,3.42,3.42,0,0,1,.79,1.92,2.25,2.25,0,0,0,.75,1.4,3.11,3.11,0,0,1,.89,1.52,2.45,2.45,0,0,0,1.14,1.48c.41.28.83.53,1.22.84a4.46,4.46,0,0,1,.67.77.57.57,0,0,1,0,.68.47.47,0,0,0,0,.38,1.6,1.6,0,0,0,1.66.64c.81-.17,1.62-.31,2.42-.5a12.81,12.81,0,0,0,1.4-.48c.34-.13.53-.06.55.28a3.17,3.17,0,0,1-.15,1.15,27.69,27.69,0,0,1-2.18,4.44,10.34,10.34,0,0,1-2.19,2.24,15.62,15.62,0,0,0-3.81,4.29c-.24.45-.45.93-.68,1.39a1.43,1.43,0,0,0,.12,1.41,1.58,1.58,0,0,1,.22.84,2.79,2.79,0,0,0,.44,1.85,1.75,1.75,0,0,1,.25,1.14,8.31,8.31,0,0,0,0,1.41,2.27,2.27,0,0,1-1.37,2.6,9.24,9.24,0,0,0-2.59,1.86,2,2,0,0,0-.51,1.83c.08.51.14,1,.17,1.54a1.1,1.1,0,0,1-.59,1.09c-.3.18-.61.32-.92.47a1,1,0,0,0-.66.85,5.1,5.1,0,0,1-1.51,3.19c-.58.65-1.18,1.29-1.81,1.89a3.42,3.42,0,0,1-1.2.77h15.52L434,406.69h28.42Zm10.5,85.59-.32-.19a7.49,7.49,0,0,1-.22,1c-.27.84-.55,1.66-.86,2.49-.37,1-.77,2-1.16,3.08a2.06,2.06,0,0,1-1.66,1.48,1.06,1.06,0,0,1-1.31-.87,10.66,10.66,0,0,1-.2-1.77,2,2,0,0,1,.29-1,3.15,3.15,0,0,0,.51-2.36,4.8,4.8,0,0,1,0-.93c0-.61.42-1,1.13-1.09l.39-.06a1.78,1.78,0,0,0,1.45-1.16,2.14,2.14,0,0,1,.63-.91,2.17,2.17,0,0,0,.37-.71,4.19,4.19,0,0,0,.11-.49A4.55,4.55,0,0,1,428.55,366.85Z"/><path class="cls-4" d="M562.59,352.4q-11,9.18-31.45,9.19H505v45.1H479V281.26h53.86q18.61,0,29.7,9.7t11.07,30Q573.61,343.2,562.59,352.4Zm-20-45.19q-5-4.17-14-4.17H505V340h23.62q9,0,14-4.51t5-14.29Q547.57,311.38,542.59,307.21Z"/><path class="cls-4" d="M88.73,453.45a7.29,7.29,0,0,0,2.92-2.64q1.36-2.55-.31-6.77a13.76,13.76,0,0,0-2.17-3.88q-2.23-2.58-5.07-1.45a3.06,3.06,0,0,0-2,2.49,16.76,16.76,0,0,0,.28,5.26l.65,3.94c.63,3.87.74,6.65.35,8.35q-1,4.31-5.89,6.26a10.37,10.37,0,0,1-8.78-.33c-2.86-1.42-5.13-4.26-6.84-8.53a16.15,16.15,0,0,1-.83-10.25,10.74,10.74,0,0,1,6.56-7.2l2.67,6.72a5.14,5.14,0,0,0-3.21,4.4,9.77,9.77,0,0,0,.82,4.5,8.52,8.52,0,0,0,2.84,4,3.72,3.72,0,0,0,3.7.45,3.11,3.11,0,0,0,2-2.7,22.32,22.32,0,0,0-.39-5l-1-6.42a15.91,15.91,0,0,1,.13-6.75,8.78,8.78,0,0,1,5.63-5.71,10.34,10.34,0,0,1,9,.52q4.44,2.32,7,8.8t1.16,11.57a10.64,10.64,0,0,1-6.7,7.05Z"/><path class="cls-4" d="M54.57,433.21l-1.91-7.4,21.41-5.5a12.5,12.5,0,0,0,5-2.2q2.59-2.07,1.45-6.5t-4.4-5a12.3,12.3,0,0,0-5.46.5l-21.41,5.5-1.9-7.4,21.42-5.51c3.7-1,6.74-1.12,9.1-.5Q84.39,401,86.71,410T84.2,423.75q-2.65,2.52-8.21,3.95Z"/><path class="cls-4" d="M69.48,386.22A7.29,7.29,0,0,0,73,384.39q2-2.13,1.4-6.63a13.76,13.76,0,0,0-1.14-4.3,4.19,4.19,0,0,0-4.55-2.67,3.08,3.08,0,0,0-2.53,1.91,17.08,17.08,0,0,0-1,5.17l-.35,4c-.36,3.91-.94,6.63-1.75,8.18-1.34,2.61-3.76,4.15-7.26,4.59a10.31,10.31,0,0,1-8.42-2.52q-3.62-3.12-4.49-10A16,16,0,0,1,44.57,372a10.73,10.73,0,0,1,8.15-5.33l.91,7.16a5.14,5.14,0,0,0-4.21,3.47,9.78,9.78,0,0,0-.33,4.55,8.46,8.46,0,0,0,1.76,4.57,3.72,3.72,0,0,0,3.47,1.36A3.1,3.1,0,0,0,57,385.67a21.41,21.41,0,0,0,.88-4.93l.68-6.45a16.05,16.05,0,0,1,1.81-6.5,8.79,8.79,0,0,1,6.88-4.12,10.35,10.35,0,0,1,8.61,2.75q3.7,3.38,4.59,10.28c.6,4.69,0,8.53-1.78,11.49a10.62,10.62,0,0,1-8.24,5.15Z"/><path class="cls-4" d="M41.27,332.28l6.37-.08L47.76,343l29.61-.35.09,7.57-29.61.35L48,361.35l-6.37.07Z"/><path class="cls-4" d="M42.43,318.35l.82-8.47,37-9.21-.78,8.12-7.59,1.65-1.28,13.19,7.13,3.14L77,334.6ZM64.67,321l.88-9.18L51,315Z"/><path class="cls-4" d="M82.75,290.27l-1.4,7.34L46,290.89l1.4-7.34Z"/><path class="cls-4" d="M49.1,274.26l2.18-7.58,28.06-6.81L55.22,253l1.93-6.74,34.59,9.93-2.07,7.22-28.59,7,24.55,7.05-1.93,6.73Z"/><path class="cls-4" d="M64.92,226.72l3.41-7.79,38.07,2.71-3.26,7.48-7.73-.78-5.3,12.14,5.81,5.2-3.15,7.21Zm20.33,9.41,3.68-8.45-14.8-1.49Z"/><path class="cls-4" d="M94.49,179.06a9.11,9.11,0,0,1,5.56,1.42,8,8,0,0,1,3.68,4.16,8.71,8.71,0,0,1,.34,3.41,8,8,0,0,1,4.86-1.92,9.5,9.5,0,0,1,5.24,1.52,10.56,10.56,0,0,1,4.09,4.33,10,10,0,0,1,1.11,3.65,9.84,9.84,0,0,1-.55,4.41,25.38,25.38,0,0,1-2.21,4.61l-8.37,13.89L77.42,200l9-14.89Q89.88,179.48,94.49,179.06Zm-8,18,6.79,4.1,4.52-7.49a7.17,7.17,0,0,0,1.2-3.72A3.42,3.42,0,0,0,97,187,3.24,3.24,0,0,0,93.2,187a13.44,13.44,0,0,0-2.68,3.36Zm11.9,7.17,8.21,4.95,4.51-7.48a8.48,8.48,0,0,0,1.34-3.45q.23-2.62-2.63-4.34a3.84,3.84,0,0,0-4.48,0,9,9,0,0,0-2.38,2.77Z"/><path class="cls-4" d="M98.41,166.73l4.63-5.92L126.31,179l11.05-14.17,5.1,4-15.68,20.08Z"/><path class="cls-4" d="M142.8,126,129.43,139.6l5.44,5.36,12.28-12.44,4.45,4.39-12.28,12.44,6.59,6.5,14-14.18,4.61,4.54-19.15,19.42-25.63-25.27,18.54-18.79Z"/><path class="cls-4" d="M183,94.85l-15.49,11.08,4.44,6.21L186.14,102l3.64,5.09-14.22,10.17,5.38,7.52,16.2-11.59,3.77,5.27-22.18,15.86L157.79,105l21.47-15.35Z"/><path class="cls-4" d="M187.83,84.28l6.94-3.74,24.47,15.32L207.35,73.77l6.17-3.33,17.06,31.69L224,105.69,199,90.16l12.11,22.48L204.89,116Z"/><path class="cls-4" d="M250.3,62.55l-17.78,6.83,2.74,7.13,16.32-6.26,2.24,5.83L237.5,82.35,240.82,91l18.6-7.15,2.32,6-25.46,9.78-12.9-33.59L248,56.6Z"/><path class="cls-4" d="M280.4,48.94a9,9,0,0,1,3.87,1.64,11.4,11.4,0,0,1,2.48,2.52,10.06,10.06,0,0,1,1.54,3.51,10.82,10.82,0,0,1-.05,5.21,7.29,7.29,0,0,1-3.32,4.42,6.68,6.68,0,0,1,4.1,1.92,11.9,11.9,0,0,1,2.34,5.22l.58,2.35a17.83,17.83,0,0,0,1,3.2,3,3,0,0,0,1.83,1.66l.22.88-8.07,2c-.41-.72-.72-1.3-.93-1.76a17,17,0,0,1-1-2.93l-.85-3.24q-.85-3.33-2.24-4.18t-4.44-.09L270.28,73l3.35,13.71-7.14,1.74-8.54-35,16.72-4.09A15.56,15.56,0,0,1,280.4,48.94ZM266.57,57.8l2.3,9.39,7.86-1.92a8.59,8.59,0,0,0,3.37-1.43q1.83-1.5,1.11-4.44c-.52-2.12-1.53-3.38-3-3.78a7.39,7.39,0,0,0-3.53.21Z"/><path class="cls-4" d="M321.48,53.29a7,7,0,0,0-4.75-4.62,10.35,10.35,0,0,0-4.19-.32,9,9,0,0,0-6.71,4.1q-2.38,3.59-1.61,10.12t4.11,9a10,10,0,0,0,7.16,1.92,8.92,8.92,0,0,0,5.9-2.89,9.4,9.4,0,0,0,2.29-6l-8.27,1-.71-6,14.89-1.77L331.87,77l-4.95.58-1.28-4.37a17.2,17.2,0,0,1-3.45,4,13.73,13.73,0,0,1-7.06,2.68,15.22,15.22,0,0,1-12.22-3.54q-5.32-4.38-6.34-13t3.13-14.47q4.16-5.8,12-6.73,6.81-.81,11.35,2.15a13,13,0,0,1,5.77,8.06Z"/><path class="cls-4" d="M359.46,41.71l8.52.21L355.37,64.1,355,77.59l-7.52-.19.34-13.49L336,41.11l8.86.23,7.07,15.85Z"/><path class="cls-4" d="M398.09,46.26l8.35,1.63L412,85.66l-8-1.57-.9-7.72-13-2.54-3.82,6.79-7.71-1.51ZM393.3,68.13l9,1.78L400.6,55.14Z"/><path class="cls-4" d="M428.87,57.3a14.81,14.81,0,0,1,11.9-.67q8.52,2.88,10.55,9.85a13,13,0,0,1,.18,7.15l-7.12-2.41a10.21,10.21,0,0,0-.5-4.29,8.17,8.17,0,0,0-11.95-3q-3.26,2.4-5.2,8.13t-.58,9.38a7.7,7.7,0,0,0,4.93,4.85,7.07,7.07,0,0,0,6.42-.57,11.29,11.29,0,0,0,3.1-3.36l7.08,2.39a16.26,16.26,0,0,1-7.74,7.49,14.41,14.41,0,0,1-10.83.24q-7.28-2.46-9.84-8.59t.22-14.4Q422.51,60.55,428.87,57.3Z"/><path class="cls-4" d="M465.66,71a14.81,14.81,0,0,1,11.88.89q8.07,4,9.16,11.15A13,13,0,0,1,486,90.1l-6.75-3.32a10,10,0,0,0,.07-4.32,8.15,8.15,0,0,0-11.45-4.56q-3.54,1.95-6.22,7.38t-1.8,9.22a7.65,7.65,0,0,0,4.25,5.45,7,7,0,0,0,6.43.28A11.38,11.38,0,0,0,474,97.31l6.7,3.3A16.17,16.17,0,0,1,472,107a14.38,14.38,0,0,1-10.76-1.18q-6.88-3.39-8.64-9.8t2.12-14.26Q458.92,73.33,465.66,71Z"/><path class="cls-4" d="M518.08,104.19l-15.9-10.48L498,100.09l14.59,9.62-3.44,5.22-14.59-9.63L489.44,113l16.63,11-3.57,5.4-22.76-15,19.82-30,22,14.54Z"/><path class="cls-4" d="M517.64,127.43a7.29,7.29,0,0,0-1.34,3.7q0,2.9,3.45,5.84a13.59,13.59,0,0,0,3.74,2.4q3.18,1.23,5.15-1.1a3.06,3.06,0,0,0,.59-3.12,17.27,17.27,0,0,0-2.72-4.52l-2.42-3.17c-2.37-3.12-3.78-5.53-4.23-7.21q-1.17-4.25,2.26-8.29a10.35,10.35,0,0,1,7.91-3.82q4.79-.14,10.05,4.32a16,16,0,0,1,5.53,8.66,10.71,10.71,0,0,1-2.41,9.43l-5.51-4.67a5.14,5.14,0,0,0,.77-5.4,9.9,9.9,0,0,0-2.83-3.59,8.52,8.52,0,0,0-4.38-2.18,3.69,3.69,0,0,0-3.47,1.34,3.07,3.07,0,0,0-.53,3.33,21.7,21.7,0,0,0,2.68,4.23l3.85,5.22a16.17,16.17,0,0,1,3.06,6,8.84,8.84,0,0,1-2.31,7.69,10.31,10.31,0,0,1-8.2,3.77q-5,0-10.32-4.48t-6.45-9.68a10.6,10.6,0,0,1,2.61-9.36Z"/><path class="cls-4" d="M542.55,150.06a7.25,7.25,0,0,0-1.77,3.51c-.25,1.92.66,4,2.71,6.21a13.76,13.76,0,0,0,3.43,2.84c2,1.07,3.75.91,5.25-.47a3.1,3.1,0,0,0,1-3,17.16,17.16,0,0,0-2.16-4.81l-2-3.44q-3-5.09-3.33-7.67-.64-4.37,3.25-8a10.33,10.33,0,0,1,8.31-2.84q4.77.43,9.45,5.5a16,16,0,0,1,4.45,9.26,10.71,10.71,0,0,1-3.53,9.08l-4.9-5.31a5.15,5.15,0,0,0,1.41-5.26,9.84,9.84,0,0,0-2.38-3.91,8.57,8.57,0,0,0-4.09-2.69,3.71,3.71,0,0,0-3.6.91,3.09,3.09,0,0,0-.93,3.25,22.18,22.18,0,0,0,2.15,4.52l3.2,5.65a15.88,15.88,0,0,1,2.3,6.34,8.77,8.77,0,0,1-3.21,7.35,10.33,10.33,0,0,1-8.6,2.76q-5-.58-9.71-5.69T534,153.77a10.63,10.63,0,0,1,3.72-9Z"/><path class="cls-4" d="M586.71,200.18q-3.93-1.22-7.12-6.14l-4.07-6.29-10.86,7-4.06-6.27L590.81,169l8.39,13a12.5,12.5,0,0,1,2.3,8.67q-.62,4.17-5.51,7.35Q590.64,201.39,586.71,200.18Zm7.77-11.86a6,6,0,0,0-1.18-4l-3.68-5.69-8.89,5.76,3.68,5.69a5.73,5.73,0,0,0,3.26,2.65,5.27,5.27,0,0,0,4.22-1A5,5,0,0,0,594.48,188.32Z"/><path class="cls-4" d="M619.36,221.25a8.88,8.88,0,0,1-.81,4.13,11.07,11.07,0,0,1-1.95,2.94,9.92,9.92,0,0,1-3.12,2.24,10.8,10.8,0,0,1-5.1,1,7.27,7.27,0,0,1-5-2.34,6.73,6.73,0,0,1-1,4.41,11.8,11.8,0,0,1-4.62,3.37l-2.18,1a18.51,18.51,0,0,0-2.93,1.62,3,3,0,0,0-1.25,2.14l-.81.39-3.6-7.48c.62-.55,1.13-1,1.53-1.27a17.06,17.06,0,0,1,2.66-1.63l3-1.49q3.09-1.53,3.63-3.06c.36-1,.08-2.47-.82-4.36l-3.18-6.62L581,222.42l-3.18-6.63,32.44-15.57,7.45,15.51A15.7,15.7,0,0,1,619.36,221.25Zm-11.53-11.7-8.71,4.18,3.5,7.3a8.56,8.56,0,0,0,2.09,3c1.24,1,2.76,1.05,4.58.17,2-.94,3-2.2,3.07-3.76a7.38,7.38,0,0,0-.93-3.41Z"/><path class="cls-4" d="M614.87,265.45q-3.51-2.16-5.35-7.73l-2.36-7.11-12.28,4.07-2.35-7.09,34.15-11.33,4.87,14.66a12.47,12.47,0,0,1,0,9q-1.64,3.89-7.18,5.73Q618.37,267.62,614.87,265.45Zm10.49-9.53a6,6,0,0,0-.12-4.17l-2.14-6.43-10.05,3.33,2.13,6.44a5.79,5.79,0,0,0,2.49,3.39,5.28,5.28,0,0,0,4.34.06C623.79,258,624.91,257.08,625.36,255.92Z"/><path class="cls-4" d="M610.73,304.74q-4.89-3.21-6.33-10.79t1.91-12.37q4-6.34,13.55-8.16,9.72-1.86,15.61,2.58,4.89,3.22,6.34,10.8t-1.92,12.37q-3.84,6.27-13.55,8.13Q616.82,309.13,610.73,304.74Zm4.49-5.64q3.74,1.95,9.7.82t8.71-4.34a8.57,8.57,0,0,0,1.92-7.59,8.71,8.71,0,0,0-4.58-6.38q-3.74-2-9.71-.85t-8.7,4.37a8.7,8.7,0,0,0-1.91,7.62A8.61,8.61,0,0,0,615.22,299.1Z"/><path class="cls-4" d="M622.69,318.87l-.82.06a16.46,16.46,0,0,0-5.8,1.26c-1.09.59-1.58,1.72-1.47,3.4a3.24,3.24,0,0,0,2.08,3.17,10.18,10.18,0,0,0,3.74.22l25.11-1.74.52,7.5-25,1.73a14.4,14.4,0,0,1-7.36-1q-4.71-2.31-5.19-9.14t3-9.42c2.34-1.73,5.61-2.74,9.84-3l.82-.06Z"/><path class="cls-4" d="M638.91,370.08l.79-19-7.64-.31-.72,17.46-6.24-.26.72-17.46-9.24-.39L615.75,370l-6.46-.27,1.12-27.25,36,1.49-1.09,26.37Z"/><path class="cls-4" d="M640,383.29a14.83,14.83,0,0,1,2.52,11.65q-1.5,8.87-8.07,11.95a13,13,0,0,1-7,1.31l1.26-7.41a10.22,10.22,0,0,0,4.16-1.17,8.16,8.16,0,0,0,1.11-12.28q-2.88-2.83-8.85-3.85t-9.35.89a7.67,7.67,0,0,0-4,5.63,7.07,7.07,0,0,0,1.56,6.25,11.35,11.35,0,0,0,3.8,2.53l-1.25,7.37a16.19,16.19,0,0,1-8.6-6.47A14.36,14.36,0,0,1,605.28,389q1.29-7.57,6.93-11.07t14.26-2Q635.77,377.51,640,383.29Z"/><path class="cls-4" d="M629.31,444.35l-6.11-1.82,3.09-10.32-28.38-8.48,2.17-7.25L628.45,425l3.1-10.36,6.11,1.82Z"/><path class="cls-4" d="M601.62,446.58a7.21,7.21,0,0,0-3.93-.2c-1.85.56-3.38,2.22-4.58,5a14,14,0,0,0-1.21,4.28q-.24,3.4,2.57,4.61a3.08,3.08,0,0,0,3.15-.35,17.18,17.18,0,0,0,3.53-3.92l2.32-3.24c2.3-3.18,4.18-5.24,5.66-6.16q3.74-2.36,8.6-.25a10.31,10.31,0,0,1,6,6.44q1.53,4.54-1.2,10.87a16,16,0,0,1-6.66,7.83,10.75,10.75,0,0,1-9.73.45L609,465.3a5.12,5.12,0,0,0,5.38-.84,9.9,9.9,0,0,0,2.61-3.75,8.59,8.59,0,0,0,.8-4.84,3.68,3.68,0,0,0-2.3-2.92,3.09,3.09,0,0,0-3.34.47,21.73,21.73,0,0,0-3.26,3.8L605,462.43a16.21,16.21,0,0,1-4.87,4.68,8.8,8.8,0,0,1-8,0,10.32,10.32,0,0,1-6-6.74q-1.49-4.8,1.27-11.18c1.88-4.36,4.33-7.35,7.37-9a10.65,10.65,0,0,1,9.72-.24Z"/><path class="cls-5" d="M185.62,495.36H168.48v6.88h15.74v5.62H168.48v8.33h17.93V522H161.87V489.63h23.75Z"/><path class="cls-5" d="M191.58,489.63h7.09l12.86,22.58V489.63h6.31V522h-6.77l-13.19-23v23h-6.3Z"/><path class="cls-5" d="M248.14,495.36H231v6.88h15.73v5.62H231v8.33h17.93V522H224.38V489.63h23.76Z"/><path class="cls-5" d="M275,490.46a8,8,0,0,1,3,2.26,9.91,9.91,0,0,1,1.62,2.73,8.88,8.88,0,0,1,.61,3.4,9.65,9.65,0,0,1-1.17,4.54,6.55,6.55,0,0,1-3.84,3.16,6.05,6.05,0,0,1,3.17,2.55,10.73,10.73,0,0,1,.93,5.07v2.18a16.34,16.34,0,0,0,.18,3,2.71,2.71,0,0,0,1.25,1.84V522h-7.47c-.2-.71-.35-1.29-.44-1.73a16.09,16.09,0,0,1-.28-2.79l-.05-3c0-2.07-.38-3.44-1.07-4.13s-2-1-3.85-1H261V522h-6.62V489.63h15.5A14,14,0,0,1,275,490.46Zm-14,4.79V504h7.28a7.83,7.83,0,0,0,3.26-.52c1.28-.62,1.92-1.84,1.92-3.65,0-2-.62-3.28-1.86-4a6.74,6.74,0,0,0-3.13-.57Z"/><path class="cls-5" d="M308.47,499.73a6.32,6.32,0,0,0-3.76-4.63,9.1,9.1,0,0,0-3.71-.73,8.1,8.1,0,0,0-6.43,2.95q-2.51,3-2.51,8.87c0,4,.91,6.79,2.72,8.45a9,9,0,0,0,6.2,2.47,8,8,0,0,0,5.58-2,8.44,8.44,0,0,0,2.68-5.12h-7.49v-5.41h13.49V522h-4.48l-.68-4a15.75,15.75,0,0,1-3.52,3.24,12.44,12.44,0,0,1-6.59,1.64,13.72,13.72,0,0,1-10.55-4.46q-4.29-4.47-4.28-12.25t4.33-12.61a14.74,14.74,0,0,1,11.44-4.74q6.18,0,9.92,3.13a11.66,11.66,0,0,1,4.3,7.81Z"/><path class="cls-5" d="M340.18,489.63h7.67L337,509.87V522h-6.76V509.87L319,489.63h8l6.72,14.1Z"/><path class="cls-5" d="M367.83,489.63l4.28,18.54.93,5.16.93-5.05,3.66-18.65h7.14l3.85,18.54,1,5.16,1-5,4.32-18.74h6.89L392.7,522h-6.48l-3.91-18.94-1.14-6.26L380,503.07,376.11,522h-6.28l-9.18-32.38Z"/><path class="cls-5" d="M405.85,522V489.63h6.73V502h12.59V489.63h6.72V522h-6.72V507.56H412.58V522Z"/><path class="cls-5" d="M462.35,495.36H445.21v6.88h15.73v5.62H445.21v8.33h17.93V522H438.59V489.63h23.76Z"/><path class="cls-5" d="M489.17,490.46a8.05,8.05,0,0,1,3,2.26,10.19,10.19,0,0,1,1.63,2.73,9.08,9.08,0,0,1,.6,3.4,9.65,9.65,0,0,1-1.17,4.54,6.55,6.55,0,0,1-3.84,3.16,6.05,6.05,0,0,1,3.17,2.55,10.71,10.71,0,0,1,.94,5.07v2.18a16.63,16.63,0,0,0,.17,3A2.71,2.71,0,0,0,495,521.2V522h-7.47c-.2-.71-.35-1.29-.44-1.73a16.09,16.09,0,0,1-.28-2.79l-.05-3c0-2.07-.38-3.44-1.07-4.13s-2-1-3.85-1h-6.61V522h-6.62V489.63h15.5A14.14,14.14,0,0,1,489.17,490.46Zm-14,4.79V504h7.28a7.83,7.83,0,0,0,3.26-.52c1.28-.62,1.92-1.84,1.92-3.65,0-2-.62-3.28-1.86-4a6.74,6.74,0,0,0-3.13-.57Z"/><path class="cls-5" d="M524.86,495.36H507.72v6.88h15.73v5.62H507.72v8.33h17.93V522H501.1V489.63h23.76Z"/><path class="cls-5" d="M219.14,576h-6.72V543.63h6.72Z"/><path class="cls-5" d="M249,543.63v5.73h-9.69V576H232.5V549.36h-9.73v-5.73Z"/><path class="cls-5" d="M287,543.63h9.73V576h-6.3v-21.9c0-.63,0-1.51,0-2.65s0-2,0-2.63L284.28,576h-6.57l-6.1-27.18c0,.62,0,1.49,0,2.63s0,2,0,2.65V576h-6.31V543.63h9.85l5.89,25.46Z"/><path class="cls-5" d="M312.21,543.63h7.65L331.32,576H324l-2.13-6.65H309.92L307.73,576h-7.08Zm-.45,20.15h8.3L316,551Z"/><path class="cls-5" d="M355.66,543.63v5.73H346V576h-6.81V549.36h-9.74v-5.73Z"/><path class="cls-5" d="M383.15,543.63v5.73h-9.69V576h-6.82V549.36h-9.73v-5.73Z"/><path class="cls-5" d="M411.05,549.36H393.91v6.88h15.73v5.62H393.91v8.33h17.93V576H387.3V543.63h23.75Z"/><path class="cls-5" d="M437.87,544.46a8,8,0,0,1,3,2.26,9.94,9.94,0,0,1,1.63,2.73,9.08,9.08,0,0,1,.6,3.4,9.76,9.76,0,0,1-1.16,4.54,6.54,6.54,0,0,1-3.85,3.16,6,6,0,0,1,3.18,2.55,10.73,10.73,0,0,1,.93,5.07v2.18a16.34,16.34,0,0,0,.18,3,2.71,2.71,0,0,0,1.25,1.84V576h-7.47c-.21-.71-.35-1.29-.44-1.73a16.09,16.09,0,0,1-.29-2.79l0-3c0-2.07-.38-3.44-1.07-4.13s-2-1-3.86-1h-6.61V576h-6.61V543.63h15.49A14.06,14.06,0,0,1,437.87,544.46Zm-14,4.79V558h7.29a7.78,7.78,0,0,0,3.25-.52c1.28-.62,1.92-1.84,1.92-3.65,0-2-.62-3.28-1.85-4a6.76,6.76,0,0,0-3.14-.57Z"/><path class="cls-5" d="M454.49,566a6.47,6.47,0,0,0,1.24,3.31c1.12,1.34,3,2,5.76,2a12.48,12.48,0,0,0,4-.52,3.77,3.77,0,0,0,2.89-3.76,2.76,2.76,0,0,0-1.41-2.48,15.52,15.52,0,0,0-4.5-1.52l-3.51-.77q-5.16-1.14-7.1-2.48c-2.18-1.5-3.27-3.83-3.27-7a9.33,9.33,0,0,1,3.2-7.23q3.21-2.88,9.41-2.88a14.49,14.49,0,0,1,8.84,2.71,9.66,9.66,0,0,1,3.84,7.88h-6.5a4.66,4.66,0,0,0-2.62-4.15,9,9,0,0,0-4-.81,7.7,7.7,0,0,0-4.28,1.05,3.34,3.34,0,0,0-1.6,2.95,2.78,2.78,0,0,0,1.58,2.59,19.41,19.41,0,0,0,4.3,1.34l5.68,1.34a14.64,14.64,0,0,1,5.61,2.35,7.92,7.92,0,0,1,2.89,6.61,9.31,9.31,0,0,1-3.43,7.38q-3.43,2.93-9.69,2.93T451.69,574A9.56,9.56,0,0,1,448,566Z"/></g></g></svg>