<svg xmlns="http://www.w3.org/2000/svg" viewBox="0 0 467.7 140.33"><defs><style>.cls-1{fill:#fff;}.cls-2{fill:#318250;}.cls-3{fill:#0f496f;}</style></defs><g id="Layer_2" data-name="Layer 2"><g id="Layer_1-2" data-name="Layer 1"><path class="cls-1" d="M57.16,140.33c-17.36,0-31.3-4.06-41.44-12.05C5.29,120.06,0,108.65,0,94.37v-4H32.49L33,93.81c.7,5,2,8.6,3.88,10.85,3.53,4.18,10,6.31,19.27,6.31,5.84,0,10.57-.62,14.07-1.82,5.89-2.06,8.52-5.38,8.52-10.78a6.74,6.74,0,0,0-3.6-6.21c-3.22-2-8.67-3.76-16.15-5.36l-13.6-3c-14-3.09-23.45-6.43-28.93-10.23C6.89,67,2,56.8,2,43.15a40.07,40.07,0,0,1,13.73-31C24.76,4.1,37.92,0,54.89,0,69.08,0,81.4,3.8,91.51,11.3c10.43,7.73,16,19,16.48,33.58l.14,4.14H75l-.23-3.76c-.38-6.16-2.9-10.21-7.93-12.76-3.6-1.8-8.25-2.71-13.81-2.71-6.1,0-10.93,1.15-14.38,3.42a9,9,0,0,0-4.39,8.06,6.81,6.81,0,0,0,4,6.53c1.62.91,5.6,2.46,15.67,4.81L76,57.8c10.31,2.43,17.92,5.65,23.25,9.86C107.71,74.33,112,84,112,96.42,112,109,107.05,119.67,97.3,128,87.74,136.18,74.23,140.33,57.16,140.33Z"/><path class="cls-2" d="M29,94.37q1.21,8.59,4.78,12.85Q40.31,115,56.13,115q9.46,0,15.38-2Q82.72,109,82.72,98.37a10.73,10.73,0,0,0-5.49-9.61q-5.51-3.32-17.42-5.87l-13.58-3q-20-4.43-27.51-9.62Q6,61.61,6,43.15a36,36,0,0,1,12.41-28Q30.85,4,54.89,4,75,4,89.13,14.51T104,45H78.8q-.69-11.33-10.12-16.09-6.29-3.13-15.61-3.14-10.4,0-16.58,4.08a12.91,12.91,0,0,0-6.19,11.4,10.74,10.74,0,0,0,6.1,10q3.93,2.22,16.67,5.2l22,5.19q14.48,3.4,21.69,9.1Q108,79.65,108,96.42,108,113.61,94.7,125T57.16,136.33q-24.78,0-39-11.19T4,94.37Z"/><polygon class="cls-1" points="123.14 137.09 123.14 3.66 223.13 3.66 223.13 33.87 156.75 33.87 156.75 52.51 217.68 52.51 217.68 82.29 156.75 82.29 156.75 106.54 226.19 106.54 226.19 137.09 123.14 137.09"/><path class="cls-2" d="M219.13,29.87H152.75V56.51h60.93V78.29H152.75v32.25h69.44v22.55h-95V7.66h92Z"/><path class="cls-1" d="M321.18,137.1l-8.28-25.79H272.52L264,137.1H228L275.66,3.66H311l47.2,133.44Zm-21-26.19-3.38-5.08c-.08,0-.07-1-.13-1,.53-.51,3.05-2.21,3.61-2.84a2.31,2.31,0,0,0,.51-.71,5,5,0,0,1,2-3.7A5.89,5.89,0,0,1,304.41,93a13,13,0,0,1,2.85-2.24c0-.21,0-.42,0-.61a6.73,6.73,0,0,1-.68-2.77,5.34,5.34,0,0,1,0-4.44l.24-.49c.17-.38.35-.75.55-1.12a19.42,19.42,0,0,1,4.72-5.42l.47-.4a6,6,0,0,1-2.43-1.75l-.12-.14-.1-.15a4.39,4.39,0,0,1-.67-1.48l-.29-.19a6.35,6.35,0,0,1-2.68-3.54,6.31,6.31,0,0,1-1.8-3.64h0a5.51,5.51,0,0,1-.63-1.08L303,61.75l-1.46-2.83a6.9,6.9,0,0,1-1.61-.29l-.66-.23c-.26-.09-.56-.19-.69-.22l-.79-.18a4.44,4.44,0,0,1-3.53,1.69,4.94,4.94,0,0,1-2.74-.85l-.2-.09-.47-.24a6.29,6.29,0,0,1-1.48-.91c-.06-.05-.17-.15-.62-.19a5.78,5.78,0,0,1-4.37-2.77,5.12,5.12,0,0,1-.27-.52l-.67.05a3.17,3.17,0,0,0-1.55.44,5.12,5.12,0,0,1-3.09,1h-1.2a7.35,7.35,0,0,1-1,.8,6,6,0,0,1-3.37,4.25,9,9,0,0,0-1.62,2.2,8,8,0,0,1,0,4c-.14.5-.3,1-.47,1.43l.15.13a8.23,8.23,0,0,1,2.25,3,10,10,0,0,0,.88.75l.27.21a7.24,7.24,0,0,1,2-.27,7.46,7.46,0,0,1,1.16.1c.64-.23,1.29-.46,1.95-.67a8.72,8.72,0,0,1,1.9-.33l.57,0a5.53,5.53,0,0,1,3.91,1.6,5,5,0,0,1,3.55,1.55A4.93,4.93,0,0,1,291,78a16.74,16.74,0,0,1-.32,2,14.5,14.5,0,0,1,3.24,6.18,7.91,7.91,0,0,1-.64,6l-.07.19a6.37,6.37,0,0,0-.25.81,3,3,0,0,0,.32.6,13,13,0,0,1,2,5.76c.1.88.23,1.13.33,1.25a7.86,7.86,0,0,1,2,5Z"/><path class="cls-3" d="M308.14,7.66H278.48L233.71,133.1h27.42l8.49-25.79h24.05a1.47,1.47,0,0,1-.2-.89,3.84,3.84,0,0,0-1-2.88,5.93,5.93,0,0,1-1.3-3.46,9.14,9.14,0,0,0-1.34-4,6.43,6.43,0,0,1-.83-1.78,5.07,5.07,0,0,1,.35-3.16,4.71,4.71,0,0,1,.31-.73,4,4,0,0,0,.29-3.17,10.2,10.2,0,0,0-2.89-5.06,2.22,2.22,0,0,1-.51-2.29,20.5,20.5,0,0,0,.37-2.17c0-.7-.33-1-1-1a8.14,8.14,0,0,0-1,0,1.12,1.12,0,0,1-1.24-.67,1.6,1.6,0,0,0-1.68-.93,5.13,5.13,0,0,0-1,.17c-.77.24-1.54.51-2.3.79a1.73,1.73,0,0,1-1.12.1,3.21,3.21,0,0,0-2.3.18,2,2,0,0,1-2.4-.38c-.68-.59-1.44-1.12-2.1-1.75A3.84,3.84,0,0,1,269.9,73a4.05,4.05,0,0,0-1.15-1.5l-.73-.62a1.89,1.89,0,0,1-.69-1.14,1.91,1.91,0,0,0-.19-.52,1.61,1.61,0,0,1-.07-1.37c.23-.68.5-1.34.69-2a4,4,0,0,0-.07-2.12.78.78,0,0,0-.2-.37.65.65,0,0,1-.16-.84,14.47,14.47,0,0,1,3.34-4.91,2.89,2.89,0,0,1,.78-.5,2.11,2.11,0,0,0,1.29-1.81,2.93,2.93,0,0,1,.38-1.18,2.07,2.07,0,0,1,.81-.74,3.66,3.66,0,0,0,1.56-1.43,2.05,2.05,0,0,1,.5-.6c.25-.2.51-.11.75.11a.85.85,0,0,0,.49.17c.47,0,.94,0,1.42,0a1.35,1.35,0,0,0,.93-.22,7,7,0,0,1,3.53-1.17c1.13-.1,2.26-.17,3.4-.27a6.41,6.41,0,0,0,.73-.17.73.73,0,0,1,1,.8,2.57,2.57,0,0,1-.42,1.57.53.53,0,0,0,0,.46,1.77,1.77,0,0,0,1.36.85,4.92,4.92,0,0,1,2.8,1.13,2.71,2.71,0,0,0,.69.38,11,11,0,0,1,1.07.57c.51.33,1.05.21,1.07-.48a7.43,7.43,0,0,1,.09-.81.94.94,0,0,1,.78-.79,2.53,2.53,0,0,1,1.75.22,7.59,7.59,0,0,0,1.93.6,15.64,15.64,0,0,1,1.76.56,2.1,2.1,0,0,0,1.54-.07,2,2,0,0,1,1.52-.06,2,2,0,0,0,1.26.09.43.43,0,0,1,.55.29,2.18,2.18,0,0,1-.09,2.09c-.09.15-.29.24-.44.36h-.14l1.26,2.43.92,1.82a1.86,1.86,0,0,0,.2.37,3.45,3.45,0,0,1,.79,1.93,2.31,2.31,0,0,0,.75,1.4,3,3,0,0,1,.89,1.51,2.42,2.42,0,0,0,1.14,1.48c.41.28.83.54,1.22.84a4.18,4.18,0,0,1,.67.78.57.57,0,0,1,0,.68.47.47,0,0,0,0,.38,1.6,1.6,0,0,0,1.66.63c.81-.17,1.62-.3,2.42-.5a9.63,9.63,0,0,0,1.4-.48c.34-.12.53-.06.55.28a3.22,3.22,0,0,1-.15,1.16A28.54,28.54,0,0,1,317,76.66a10.81,10.81,0,0,1-2.19,2.24A15.58,15.58,0,0,0,311,83.18c-.24.46-.45.93-.68,1.39a1.45,1.45,0,0,0,.12,1.42,1.52,1.52,0,0,1,.22.83,2.79,2.79,0,0,0,.44,1.85,1.77,1.77,0,0,1,.25,1.14,8.42,8.42,0,0,0,0,1.42,2.26,2.26,0,0,1-1.37,2.59,9.24,9.24,0,0,0-2.59,1.86,2,2,0,0,0-.51,1.84c.08.5.14,1,.17,1.53a1.12,1.12,0,0,1-.59,1.1c-.3.17-.61.32-.92.46a1,1,0,0,0-.66.85,5.1,5.1,0,0,1-1.51,3.19c-.58.65-1.18,1.29-1.81,1.9a3.4,3.4,0,0,1-1.2.76h15.52l8.28,25.79h28.42Zm10.5,85.59-.32-.19a7.64,7.64,0,0,1-.22,1c-.27.83-.55,1.66-.86,2.48-.37,1-.77,2-1.16,3.08a2.06,2.06,0,0,1-1.66,1.48,1.06,1.06,0,0,1-1.31-.86,10.66,10.66,0,0,1-.2-1.77,2,2,0,0,1,.29-1,3.14,3.14,0,0,0,.51-2.36,4.72,4.72,0,0,1,0-.92c.05-.61.42-1,1.13-1.09l.39-.07a1.78,1.78,0,0,0,1.45-1.16,2.27,2.27,0,0,1,.63-.91,2.17,2.17,0,0,0,.37-.71,3.76,3.76,0,0,0,.11-.49A4.56,4.56,0,0,1,318.64,93.25Z"/><path class="cls-1" d="M365.07,137.09V3.66h57.86c13.35,0,24.23,3.6,32.33,10.69,8.25,7.23,12.44,18.35,12.44,33.05,0,16-4.19,27.58-12.45,34.47-8.05,6.72-19.5,10.12-34,10.12H399.11v45.1Zm53.66-74.71c4.93,0,8.72-1.17,11.26-3.48s3.67-6,3.67-11.33-1.2-8.92-3.55-10.89c-2.56-2.15-6.39-3.24-11.38-3.24H399.11V62.38Z"/><path class="cls-3" d="M452.68,78.8q-11,9.2-31.45,9.19H395.11v45.1h-26V7.66h53.86q18.61,0,29.7,9.7t11.07,30Q463.7,69.62,452.68,78.8Zm-20-45.19q-5-4.16-13.95-4.17H395.11V66.38h23.62q9,0,13.95-4.51t5-14.3Q437.66,37.79,432.68,33.61Z"/></g></g></svg>