<svg width="25" height="26" viewBox="0 0 25 26" fill="none" xmlns="http://www.w3.org/2000/svg">
<path d="M2.22656 1.28418H6.89355C7.17741 1.28426 7.3888 1.37055 7.56152 1.5332C7.75442 1.71478 7.9001 1.96369 7.98535 2.30371L8.875 6.33203C8.92193 6.66001 8.91214 6.93065 8.85938 7.15234C8.81033 7.35839 8.71134 7.53037 8.55566 7.67871L8.5498 7.68555L5.19238 10.9961L4.91309 11.2715L5.11328 11.6084C5.67909 12.5592 6.2801 13.4492 6.91602 14.2783C7.55474 15.1111 8.26392 15.9032 9.04297 16.6543C9.85655 17.4945 10.7068 18.2566 11.5938 18.9395C12.4867 19.627 13.4193 20.2284 14.3916 20.7432L14.7227 20.9189L14.9844 20.6504L18.1904 17.3604L18.2002 17.3496C18.4043 17.1281 18.6249 16.9895 18.8643 16.918L18.8652 16.9189C19.0593 16.8614 19.2526 16.8394 19.4473 16.8535L19.6426 16.8799L23.416 17.7148C23.7411 17.8054 23.9858 17.9648 24.1709 18.1885C24.3518 18.407 24.4413 18.6543 24.4414 18.9512V23.499C24.4414 23.8568 24.3266 24.1298 24.1016 24.3525C23.8738 24.5778 23.6005 24.6904 23.25 24.6904C20.7224 24.6904 18.1386 24.0831 15.4941 22.8545C12.8505 21.6263 10.3931 19.8804 8.12305 17.6104C5.99503 15.4823 4.32677 13.1885 3.1123 10.7295L2.875 10.2363L2.65137 9.74023C1.56983 7.26582 1.03516 4.8479 1.03516 2.4834C1.03518 2.17032 1.12297 1.92089 1.2959 1.71191L1.375 1.625C1.59994 1.39882 1.87251 1.28418 2.22656 1.28418ZM2.32227 3.08496C2.36298 4.02325 2.51053 5.0096 2.76172 6.04297C3.01445 7.08261 3.41185 8.23339 3.94824 9.49219L4.2373 10.1709L4.76074 9.65039L7.45215 6.97266L7.64551 6.78027L7.58887 6.51367L6.83008 2.95898L6.74609 2.56348H2.2998L2.32227 3.08496ZM23.1631 18.9629L22.7637 18.8809L19.4502 18.1953L19.1787 18.1387L18.9873 18.3398L16.3701 21.083L15.8887 21.5869L16.5205 21.8809C17.4366 22.307 18.4307 22.6536 19.501 22.9219C20.5726 23.1904 21.6184 23.3518 22.6377 23.4033L23.1631 23.4297V18.9629Z" fill="black" stroke="black"/>
</svg>
