<svg width="32" height="46" viewBox="0 0 32 46" fill="none" xmlns="http://www.w3.org/2000/svg">
<path d="M4.11967 45.299C3.17134 45.299 2.3645 44.9675 1.69917 44.3045C1.03384 43.6415 0.701172 42.8375 0.701172 41.8925V4.10746C0.701172 3.18413 1.04017 2.38363 1.71817 1.70596C2.39584 1.02796 3.19634 0.688965 4.11967 0.688965H25.7807C26.729 0.688965 27.5358 1.02163 28.2012 1.68696C28.8665 2.3523 29.1992 3.15913 29.1992 4.10746V11.34C29.7992 11.475 30.3012 11.785 30.7052 12.27C31.1092 12.755 31.3112 13.3 31.3112 13.905V17.59C31.3112 18.2393 31.1092 18.8093 30.7052 19.3C30.3012 19.7906 29.7992 20.1021 29.1992 20.2345V41.8925C29.1992 42.8375 28.8665 43.6415 28.2012 44.3045C27.5358 44.9675 26.729 45.299 25.7807 45.299H4.11967ZM4.10767 41.9045H25.7927V4.09546H4.10767V41.9045ZM14.0002 25V31.84C14.0002 32.075 14.1142 32.2206 14.3422 32.277C14.5698 32.3336 14.721 32.2666 14.7957 32.076L19.3667 22.2555C19.5 21.9568 19.4862 21.673 19.3252 21.404C19.1645 21.1346 18.9297 21 18.6207 21H16.0002V14.148C16.0002 13.9233 15.8862 13.7821 15.6582 13.7245C15.4305 13.6668 15.2793 13.7333 15.2047 13.924L10.6457 23.7445C10.5043 24.0431 10.5142 24.327 10.6752 24.596C10.8358 24.8653 11.0707 25 11.3797 25H14.0002Z" fill="black"/>
</svg>
