<svg width="41" height="42" viewBox="0 0 41 42" fill="none" xmlns="http://www.w3.org/2000/svg">
<path d="M14.1542 29.1575C15.2228 29.1575 16.1402 28.782 16.9062 28.031C17.6718 27.28 18.0547 26.377 18.0547 25.322C18.0547 24.2673 17.6718 23.3638 16.9062 22.6115C16.1402 21.8588 15.2228 21.4825 14.1542 21.4825C13.1132 21.4825 12.2238 21.8586 11.4862 22.611C10.7485 23.3633 10.3797 24.2678 10.3797 25.3245C10.3797 26.3778 10.7485 27.28 11.4862 28.031C12.2238 28.782 13.1132 29.1575 14.1542 29.1575ZM26.5037 29.1575C27.556 29.1575 28.4578 28.782 29.2092 28.031C29.9608 27.28 30.3367 26.377 30.3367 25.322C30.3367 24.2673 29.9618 23.3638 29.2122 22.6115C28.4628 21.8588 27.562 21.4825 26.5097 21.4825C25.457 21.4825 24.5525 21.8586 23.7962 22.611C23.0398 23.3633 22.6617 24.2678 22.6617 25.3245C22.6617 26.3778 23.0388 27.28 23.7932 28.031C24.5475 28.782 25.451 29.1575 26.5037 29.1575ZM20.3262 18.29C21.3932 18.29 22.308 17.9111 23.0707 17.1535C23.8333 16.3958 24.2147 15.4825 24.2147 14.4135C24.2147 13.3445 23.8342 12.4441 23.0732 11.7125C22.3125 10.9808 21.3978 10.615 20.3292 10.615C19.2882 10.615 18.3983 10.9881 17.6597 11.7345C16.921 12.4811 16.5517 13.375 16.5517 14.416C16.5517 15.4843 16.9142 16.3971 17.6392 17.1545C18.3638 17.9115 19.2595 18.29 20.3262 18.29ZM20.3482 41.299C17.5415 41.299 14.9075 40.7676 12.4462 39.705C9.98485 38.6423 7.83218 37.189 5.98818 35.345C4.14418 33.501 2.69085 31.3476 1.62818 28.885C0.565513 26.4223 0.0341797 23.7861 0.0341797 20.9765C0.0341797 18.1671 0.565513 15.5305 1.62818 13.0665C2.69085 10.6028 4.14351 8.45713 5.98618 6.62946C7.82885 4.80146 9.98185 3.35446 12.4452 2.28846C14.9085 1.22213 17.5453 0.688965 20.3557 0.688965C23.1657 0.688965 25.8032 1.2218 28.2682 2.28746C30.7328 3.35313 32.8787 4.7993 34.7057 6.62596C36.533 8.45263 37.9795 10.6006 39.0452 13.07C40.1112 15.5393 40.6442 18.1781 40.6442 20.9865C40.6442 23.7945 40.111 26.429 39.0447 28.89C37.9787 31.3513 36.5317 33.5005 34.7037 35.3375C32.876 37.1741 30.7282 38.627 28.2602 39.696C25.7922 40.7646 23.1548 41.299 20.3482 41.299ZM20.3582 37.8925C25.0428 37.8925 29.0253 36.2466 32.3057 32.955C35.5857 29.663 37.2257 25.6696 37.2257 20.975C37.2257 16.2903 35.5887 12.3078 32.3147 9.02746C29.041 5.74746 25.0452 4.10746 20.3272 4.10746C15.6552 4.10746 11.6727 5.74446 8.37968 9.01846C5.08701 12.2921 3.44068 16.288 3.44068 21.006C3.44068 25.678 5.08651 29.6605 8.37818 32.9535C11.6702 36.2461 15.6635 37.8925 20.3582 37.8925Z" fill="black"/>
</svg>
