<svg width="30" height="42" viewBox="0 0 30 42" fill="none" xmlns="http://www.w3.org/2000/svg">
<path d="M15.0087 41.622C11.1383 41.622 7.976 41.0516 5.52167 39.911C3.06734 38.7706 1.84017 37.3083 1.84017 35.524C1.84017 34.6926 2.11651 33.9206 2.66917 33.208C3.22184 32.4953 4.04517 31.8611 5.13917 31.3055C5.55384 31.1228 5.97667 31.0995 6.40767 31.2355C6.839 31.3711 7.14584 31.6483 7.32817 32.067C7.51084 32.4853 7.53634 32.9101 7.40467 33.3415C7.27267 33.7725 6.99951 34.0793 6.58517 34.262C6.31051 34.462 6.0585 34.6703 5.82917 34.887C5.59984 35.1036 5.38517 35.312 5.18517 35.512C5.78484 36.233 7.05767 36.8618 9.00367 37.3985C10.95 37.9351 12.9508 38.2035 15.0062 38.2035C17.0615 38.2035 19.062 37.9351 21.0077 37.3985C22.9533 36.8618 24.2265 36.233 24.8272 35.512C24.6272 35.312 24.4125 35.1036 24.1832 34.887C23.9538 34.6703 23.7018 34.462 23.4272 34.262C23.0128 34.0793 22.7397 33.7725 22.6077 33.3415C22.476 32.9101 22.5013 32.4833 22.6837 32.061C22.8583 31.6463 23.1613 31.3711 23.5927 31.2355C24.0237 31.0995 24.4505 31.1228 24.8732 31.3055C25.9592 31.8611 26.7805 32.4953 27.3372 33.208C27.8938 33.9206 28.1722 34.6926 28.1722 35.524C28.1722 37.3083 26.9458 38.7706 24.4932 39.911C22.0405 41.0516 18.879 41.622 15.0087 41.622ZM15.0742 31.0465C18.6675 28.3945 21.3708 25.6965 23.1842 22.9525C24.9978 20.2088 25.9047 17.6403 25.9047 15.247C25.9047 11.5683 24.733 8.79213 22.3897 6.91846C20.0463 5.04446 17.5873 4.10746 15.0127 4.10746C12.4617 4.10746 10.0063 5.04413 7.64667 6.91746C5.28734 8.79113 4.10767 11.5685 4.10767 15.2495C4.10767 17.6528 5.01634 20.1591 6.83367 22.7685C8.65134 25.3778 11.3982 28.1371 15.0742 31.0465ZM15.0122 34.515C14.6722 34.515 14.3323 34.4591 13.9927 34.3475C13.6527 34.2355 13.3373 34.0675 13.0467 33.8435C8.915 30.5861 5.8245 27.415 3.77517 24.33C1.72584 21.245 0.701172 18.219 0.701172 15.252C0.701172 12.8536 1.1365 10.746 2.00717 8.92896C2.87784 7.11196 4.0015 5.59213 5.37817 4.36946C6.75484 3.14646 8.28834 2.2273 9.97867 1.61196C11.669 0.99663 13.346 0.688965 15.0097 0.688965C16.6733 0.688965 18.3582 0.99663 20.0642 1.61196C21.7702 2.2273 23.3028 3.14646 24.6622 4.36946C26.0212 5.59213 27.1357 7.11196 28.0057 8.92896C28.876 10.746 29.3112 12.8536 29.3112 15.252C29.3112 18.214 28.2865 21.2348 26.2372 24.3145C24.1878 27.3938 21.0845 30.5661 16.9272 33.8315C16.6312 34.0595 16.3238 34.2305 16.0052 34.3445C15.6865 34.4581 15.3555 34.515 15.0122 34.515ZM15.0097 19.036C16.1353 19.036 17.0977 18.6361 17.8967 17.8365C18.696 17.0365 19.0957 16.075 19.0957 14.952C19.0957 13.8283 18.6957 12.8668 17.8957 12.0675C17.0957 11.2681 16.1338 10.8685 15.0102 10.8685C13.8832 10.8685 12.9192 11.2681 12.1182 12.0675C11.3172 12.8668 10.9167 13.8283 10.9167 14.952C10.9167 16.076 11.3173 17.0376 12.1187 17.837C12.9203 18.6363 13.884 19.036 15.0097 19.036Z" fill="black"/>
</svg>
