<svg width="35" height="36" viewBox="0 0 35 36" fill="none" xmlns="http://www.w3.org/2000/svg">
<path d="M5.17909 30.4445C3.68643 28.9125 2.52226 27.1416 1.68659 25.132C0.851261 23.1226 0.433594 21.0676 0.433594 18.9669C0.433594 16.5099 0.866594 14.2551 1.73259 12.2024C2.59859 10.1498 3.88959 8.26545 5.60559 6.54945C7.75193 4.41111 10.8116 2.87295 14.7846 1.93495C18.7579 0.996949 23.6329 0.595283 29.4096 0.72995C30.1559 0.763283 30.8358 0.914614 31.4491 1.18395C32.0621 1.45295 32.6171 1.82811 33.1141 2.30945C33.6008 2.79711 33.9866 3.34778 34.2716 3.96145C34.5563 4.57511 34.7136 5.25928 34.7436 6.01395C34.8356 8.90228 34.7983 11.5701 34.6316 14.0174C34.4649 16.4651 34.1399 18.693 33.6566 20.701C33.1733 22.7086 32.5414 24.4953 31.7611 26.061C30.9808 27.6263 30.0391 28.9619 28.9361 30.068C27.2364 31.7756 25.3858 33.071 23.3841 33.954C21.3824 34.8366 19.2466 35.278 16.9766 35.278C14.6313 35.278 12.4844 34.8883 10.5361 34.109C8.58743 33.3296 6.80176 32.1081 5.17909 30.4445ZM10.5926 30.1334C11.4313 30.7001 12.3993 31.1295 13.4966 31.4215C14.5939 31.7135 15.7518 31.8595 16.9701 31.8595C18.7221 31.8595 20.4229 31.4948 22.0726 30.7655C23.7219 30.0361 25.2181 28.9835 26.5611 27.6075C27.5168 26.6435 28.3133 25.3926 28.9506 23.855C29.5879 22.3173 30.0946 20.543 30.4706 18.532C30.8466 16.5206 31.0894 14.3028 31.1991 11.8784C31.3084 9.45412 31.3004 6.87745 31.1751 4.14845C28.0658 4.07378 25.2773 4.11345 22.8096 4.26745C20.3423 4.42145 18.1646 4.69845 16.2766 5.09845C14.3886 5.49845 12.7693 6.00878 11.4186 6.62945C10.0679 7.25012 8.97109 7.99845 8.12809 8.87445C6.75209 10.2761 5.69343 11.7743 4.95209 13.3689C4.21076 14.9636 3.84009 16.5793 3.84009 18.216C3.84009 19.7816 4.17176 21.4323 4.83509 23.168C5.49876 24.9036 6.33176 26.3008 7.33409 27.3595C9.05043 24.1405 11.1299 21.247 13.5726 18.679C16.0156 16.111 18.6523 14.057 21.4826 12.517C18.6146 15.025 16.2846 17.7333 14.4926 20.6419C12.7003 23.5506 11.4003 26.7144 10.5926 30.1334Z" fill="black"/>
</svg>
