<svg width="37" height="45" viewBox="0 0 37 45" fill="none" xmlns="http://www.w3.org/2000/svg">
<path d="M4.69116 29.1351V31.1676C4.69116 31.7749 4.48066 32.2879 4.05966 32.7066C3.63833 33.1256 3.12633 33.3351 2.52366 33.3351C1.917 33.3351 1.40616 33.1226 0.991164 32.6976C0.575831 32.2729 0.368164 31.7589 0.368164 31.1556V15.8361C0.368164 15.6644 0.378498 15.4889 0.399164 15.3096C0.419831 15.1299 0.467498 14.9449 0.542164 14.7546L4.41816 3.0381C4.64216 2.3251 5.0505 1.76126 5.64316 1.3466C6.23583 0.932264 6.901 0.725098 7.63866 0.725098H29.6957C30.4333 0.725098 31.0985 0.932264 31.6912 1.3466C32.2838 1.76126 32.6962 2.3251 32.9282 3.0381L36.7922 14.7546C36.8668 14.9449 36.9165 15.1299 36.9412 15.3096C36.9658 15.4889 36.9782 15.6644 36.9782 15.8361V31.1676C36.9782 31.7749 36.7657 32.2879 36.3407 32.7066C35.9153 33.1256 35.4013 33.3351 34.7987 33.3351C34.2 33.3351 33.6828 33.1178 33.2472 32.6831C32.8112 32.2488 32.5932 31.7229 32.5932 31.1056V29.1351H4.69116ZM4.94866 12.3241H32.3977L29.6837 4.1316H7.65067L4.94866 12.3241ZM9.01516 23.2761C9.78183 23.2761 10.4255 23.0116 10.9462 22.4826C11.4668 21.9536 11.7272 21.3181 11.7272 20.5761C11.7272 19.7904 11.4627 19.1274 10.9337 18.5871C10.4047 18.0464 9.76917 17.7761 9.02717 17.7761C8.24117 17.7761 7.578 18.0453 7.03766 18.5836C6.49733 19.1216 6.22716 19.7819 6.22716 20.5646C6.22716 21.3309 6.49616 21.9744 7.03416 22.4951C7.5725 23.0158 8.23283 23.2761 9.01516 23.2761ZM28.3692 23.2761C29.1472 23.2761 29.8083 23.0116 30.3527 22.4826C30.897 21.9536 31.1692 21.3181 31.1692 20.5761C31.1692 19.7904 30.8982 19.1274 30.3562 18.5871C29.8138 18.0464 29.1555 17.7761 28.3812 17.7761C27.6065 17.7761 26.9608 18.0453 26.4442 18.5836C25.9275 19.1216 25.6692 19.7819 25.6692 20.5646C25.6692 21.3309 25.9317 21.9744 26.4567 22.4951C26.9817 23.0158 27.6192 23.2761 28.3692 23.2761ZM20.5032 41.0481V43.6901C20.5032 44.0028 20.3685 44.2406 20.0992 44.4036C19.8302 44.5666 19.5463 44.5734 19.2477 44.4241L10.6532 39.9196C10.4545 39.8116 10.3792 39.6501 10.4272 39.4351C10.4752 39.2198 10.6085 39.1121 10.8272 39.1121H16.6312V36.6196C16.6312 36.3069 16.7658 36.0693 17.0352 35.9066C17.3042 35.7436 17.588 35.7328 17.8867 35.8741L26.6312 40.2401C26.8298 40.3544 26.8983 40.5176 26.8367 40.7296C26.775 40.9419 26.6318 41.0481 26.4072 41.0481H20.5032ZM3.77466 25.7166H33.5597V15.3241H3.77466V25.7166Z" fill="black"/>
</svg>
