<svg width="26" height="42" viewBox="0 0 26 42" fill="none" xmlns="http://www.w3.org/2000/svg">
<path d="M9.49458 41.1316V39.6501C9.49458 38.5181 9.89224 37.5673 10.6876 36.7976C11.4829 36.0276 12.4466 35.6259 13.5786 35.5926V20.8076C12.7196 20.5996 11.9567 20.2203 11.2901 19.6696C10.6234 19.1189 10.1029 18.4476 9.72858 17.6556L5.12058 18.7796C4.03958 19.0543 3.00808 18.9719 2.02608 18.5326C1.04441 18.0936 0.374911 17.3627 0.0175781 16.3401L9.19258 14.0926C9.40858 12.6672 10.0396 11.4796 11.0856 10.5296C12.1316 9.57958 13.3672 9.05925 14.7926 8.96858L16.2166 3.97308C16.5322 2.89175 17.1241 2.00542 17.9921 1.31408C18.8597 0.622751 19.8047 0.40975 20.8271 0.675083L18.2556 9.84008C19.2142 10.3307 19.9416 11.0448 20.4376 11.9821C20.9336 12.9194 21.1816 13.9254 21.1816 15.0001C21.1816 15.4507 21.1272 15.8991 21.0186 16.3451C20.9099 16.7911 20.7556 17.2101 20.5556 17.6021L23.8351 21.1196C24.5667 21.9263 25.0084 22.8741 25.1601 23.9631C25.3114 25.0521 25.0504 26.0166 24.3771 26.8566L18.0761 20.2056C17.9174 20.3976 17.7147 20.5396 17.4681 20.6316C17.2214 20.7236 16.9726 20.7822 16.7216 20.8076V35.5926C17.8536 35.6259 18.8276 36.0276 19.6436 36.7976C20.4596 37.5673 20.8676 38.5181 20.8676 39.6501V41.1316H9.49458ZM15.1501 18.4001C16.1167 18.4001 16.9251 18.0751 17.5751 17.4251C18.2251 16.7751 18.5501 15.9667 18.5501 15.0001C18.5501 14.0334 18.2251 13.2251 17.5751 12.5751C16.9251 11.9251 16.1167 11.6001 15.1501 11.6001C14.1834 11.6001 13.3751 11.9251 12.7251 12.5751C12.0751 13.2251 11.7501 14.0334 11.7501 15.0001C11.7501 15.9667 12.0751 16.7751 12.7251 17.4251C13.3751 18.0751 14.1834 18.4001 15.1501 18.4001Z" fill="black"/>
</svg>
