<svg width="44" height="37" viewBox="0 0 44 37" fill="none" xmlns="http://www.w3.org/2000/svg">
<path d="M22.0002 29.0381C22.1689 29.0381 22.3396 29.0028 22.5122 28.9321C22.6849 28.8614 22.8494 28.7594 23.0057 28.6261C23.5991 28.0928 24.3214 27.4114 25.1727 26.5821C26.0244 25.7528 26.8439 24.8558 27.6312 23.8911C28.4186 22.9264 29.0936 21.9361 29.6562 20.9201C30.2189 19.9041 30.5002 18.9641 30.5002 18.1001C30.5002 16.8061 30.0752 15.7326 29.2252 14.8796C28.3752 14.0266 27.3002 13.6001 26.0002 13.6001C25.2336 13.6001 24.5002 13.7918 23.8002 14.1751C23.1002 14.5584 22.5002 15.0168 22.0002 15.5501C21.5002 15.0168 20.8989 14.5584 20.1962 14.1751C19.4936 13.7918 18.7674 13.6001 18.0177 13.6001C16.7061 13.6001 15.6252 14.0266 14.7752 14.8796C13.9252 15.7326 13.5002 16.8061 13.5002 18.1001C13.5002 18.9668 13.7816 19.9074 14.3442 20.9221C14.9069 21.9368 15.5819 22.9264 16.3692 23.8911C17.1566 24.8558 17.9761 25.7528 18.8277 26.5821C19.6791 27.4114 20.4014 28.0928 20.9947 28.6261C21.1511 28.7594 21.3156 28.8614 21.4882 28.9321C21.6609 29.0028 21.8316 29.0381 22.0002 29.0381ZM9.16774 36.1316C8.23107 36.1316 7.42907 35.7979 6.76174 35.1306C6.09474 34.4636 5.76124 33.6618 5.76124 32.7251V16.0816L2.94024 18.2381C2.57157 18.5288 2.16841 18.6403 1.73074 18.5726C1.29274 18.5049 0.932408 18.2909 0.649742 17.9306C0.366742 17.5703 0.257575 17.1651 0.322241 16.7151C0.387241 16.2648 0.604241 15.9048 0.973241 15.6351L19.9492 1.1966C20.2556 0.972931 20.5817 0.796764 20.9277 0.668097C21.2737 0.53943 21.6267 0.475098 21.9867 0.475098C22.3547 0.475098 22.7122 0.53943 23.0592 0.668097C23.4062 0.796764 23.7329 0.972931 24.0392 1.1966L43.0537 15.6851C43.4197 15.9551 43.6294 16.3151 43.6827 16.7651C43.7364 17.2151 43.6219 17.6249 43.3392 17.9946C43.0502 18.3503 42.6957 18.5524 42.2757 18.6011C41.8557 18.6498 41.4632 18.5328 41.0982 18.2501L38.2272 16.0816V32.7251C38.2272 33.6618 37.8946 34.4636 37.2292 35.1306C36.5639 35.7979 35.7571 36.1316 34.8087 36.1316H9.16774ZM9.03624 32.8686H34.9522V13.5786L21.9882 3.7021L9.03624 13.5741V32.8686Z" fill="black"/>
</svg>
