<svg width="47" height="33" viewBox="0 0 47 33" fill="none" xmlns="http://www.w3.org/2000/svg">
<path d="M6.3086 32.8468C4.72893 32.8468 3.38943 32.297 2.2901 31.1973C1.1911 30.0976 0.641602 28.7625 0.641602 27.1918V13.4048C0.641602 12.5291 0.950601 11.7823 1.5686 11.1643C2.1866 10.5463 2.93327 10.2373 3.8086 10.2373H15.2491V1.9403C15.2491 1.45964 15.4128 1.05564 15.7401 0.728305C16.0674 0.400972 16.4714 0.237305 16.9521 0.237305H25.6946C27.2806 0.237305 28.6393 0.803473 29.7706 1.93581C30.9019 3.06781 31.4676 4.44647 31.4676 6.0718V14.7013H34.5176V12.1198C34.5176 11.6815 34.6043 11.2535 34.7776 10.8358C34.9513 10.4185 35.1878 10.0548 35.4871 9.74481L37.4536 7.72881C37.8679 7.31414 38.3649 7.14814 38.9446 7.2308C39.5243 7.31347 39.9428 7.62397 40.2001 8.1623L46.1966 19.7168C46.4873 20.2885 46.4639 20.8438 46.1266 21.3828C45.7889 21.9221 45.2906 22.1918 44.6316 22.1918H37.6851C36.8094 22.1918 36.0626 21.8828 35.4446 21.2648C34.8266 20.6468 34.5176 19.9 34.5176 19.0243V18.0243H31.4676V22.8568C32.1343 23.4118 32.6446 24.0641 32.9986 24.8138C33.3526 25.5635 33.5296 26.3561 33.5296 27.1918C33.5296 28.7625 32.9798 30.0976 31.8801 31.1973C30.7804 32.297 29.4451 32.8468 27.8741 32.8468C26.6248 32.8468 25.5164 32.4821 24.5491 31.7528C23.5818 31.0235 22.9043 30.0755 22.5166 28.9088H11.6656C11.2756 30.0755 10.5961 31.0235 9.6271 31.7528C8.6581 32.4821 7.55193 32.8468 6.3086 32.8468ZM6.2986 29.5958C6.97693 29.5958 7.54893 29.3661 8.0146 28.9068C8.48027 28.4471 8.7131 27.8776 8.7131 27.1983C8.7131 26.5096 8.48327 25.9336 8.0236 25.4703C7.56427 25.007 6.99493 24.7753 6.3156 24.7753C5.62693 24.7753 5.05093 25.0048 4.5876 25.4638C4.12427 25.9228 3.8926 26.4945 3.8926 27.1788C3.8926 27.8635 4.12627 28.4375 4.5936 28.9008C5.06127 29.3641 5.6296 29.5958 6.2986 29.5958ZM27.8616 29.5958C28.5459 29.5958 29.1198 29.3661 29.5831 28.9068C30.0468 28.4471 30.2786 27.8776 30.2786 27.1983C30.2786 26.5096 30.0488 25.9336 29.5891 25.4703C29.1294 25.007 28.5599 24.7753 27.8806 24.7753C27.1923 24.7753 26.6163 25.0048 26.1526 25.4638C25.6893 25.9228 25.4576 26.4945 25.4576 27.1788C25.4576 27.8635 25.6871 28.4375 26.1461 28.9008C26.6051 29.3641 27.1769 29.5958 27.8616 29.5958ZM15.2491 25.5243V13.5603H3.9641V22.1263C4.3071 21.9503 4.68327 21.806 5.0926 21.6933C5.50193 21.5806 5.90727 21.5243 6.3086 21.5243C7.55027 21.5243 8.66277 21.8973 9.6461 22.6433C10.6291 23.3893 11.3026 24.3496 11.6666 25.5243H15.2491ZM18.5716 25.5243H22.4666C22.8156 24.3816 23.4699 23.4391 24.4296 22.6968C25.3889 21.9548 26.4773 21.568 27.6946 21.5363H28.1946V18.0243H18.5716V25.5243ZM42.1336 18.9403L38.2686 11.6708C38.1099 11.7788 37.9869 11.9141 37.8996 12.0768C37.8123 12.2395 37.7686 12.4208 37.7686 12.6208V18.9403H42.1336ZM18.5716 14.7013H28.1946V6.0718C28.1946 5.36014 27.9551 4.76364 27.4761 4.28231C26.9968 3.80097 26.4029 3.56031 25.6946 3.56031H18.5716V14.7013ZM15.2491 25.5243V21.5243V22.1263V13.5603V25.5243Z" fill="black"/>
</svg>
