<svg width="42" height="32" viewBox="0 0 42 32" fill="none" xmlns="http://www.w3.org/2000/svg">
<path d="M2.1652 31.6695C1.6682 31.6695 1.2582 31.508 0.935195 31.185C0.611862 30.8617 0.450195 30.4555 0.450195 29.9665C0.450195 29.4772 0.611862 29.071 0.935195 28.748C1.2582 28.4247 1.6682 28.263 2.1652 28.263H12.6652C12.1399 25.879 11.1185 23.7207 9.6012 21.788C8.08386 19.8553 6.31653 18.3065 4.2992 17.1415C3.47653 16.6602 3.1392 16.181 3.2872 15.704C3.43486 15.2267 3.97803 15 4.9167 15.024C9.44703 15.1117 13.2602 16.7533 16.3562 19.949C19.4522 23.1447 21.0002 27.0515 21.0002 31.6695H2.1652ZM24.0002 31.6695C24.0002 30.2455 23.8649 28.9827 23.5942 27.881C23.3235 26.7793 22.9762 25.6838 22.5522 24.5945C23.8935 21.6055 25.9035 19.279 28.5822 17.615C31.2609 15.9513 34.0907 15.0877 37.0717 15.024C38.034 15 38.5912 15.2247 38.7432 15.698C38.8949 16.171 38.5555 16.664 37.7252 17.177C35.6492 18.3757 33.8485 19.954 32.3232 21.912C30.7979 23.87 29.8057 25.987 29.3467 28.263H39.8467C40.336 28.263 40.7422 28.4247 41.0652 28.748C41.3885 29.071 41.5502 29.4772 41.5502 29.9665C41.5502 30.4555 41.3885 30.8617 41.0652 31.185C40.7422 31.508 40.336 31.6695 39.8467 31.6695H24.0002ZM21.1242 21.7685C20.5939 17.4062 21.4144 13.5795 23.5857 10.2885C25.757 6.9975 28.6365 4.75416 32.2242 3.55849C33.1212 3.25216 33.7314 3.313 34.0547 3.741C34.3777 4.16866 34.2234 4.69783 33.5917 5.3285C32.317 6.56816 31.186 7.96866 30.1987 9.52999C29.2114 11.091 28.551 12.7088 28.2177 14.3835C26.711 15.1075 25.3339 16.1323 24.0862 17.458C22.8382 18.7837 21.8509 20.2205 21.1242 21.7685ZM18.0382 17.825C17.4809 17.293 16.8657 16.7592 16.1927 16.2235C15.5194 15.6875 14.962 15.2862 14.5207 15.0195C14.6287 14.5955 14.7097 14.118 14.7637 13.587C14.8177 13.0557 14.8447 12.6362 14.8447 12.3285C14.8447 10.4872 14.63 8.71049 14.2007 6.99849C13.7714 5.28649 13.1607 3.65983 12.3687 2.1185C11.9034 1.27216 11.8927 0.713662 12.3367 0.442995C12.7804 0.172328 13.3762 0.327495 14.1242 0.908495C15.6242 2.07383 16.9199 3.45583 18.0112 5.0545C19.1025 6.65283 19.9149 8.422 20.4482 10.362C19.8242 11.4607 19.2959 12.6628 18.8632 13.9685C18.4305 15.2742 18.1555 16.5597 18.0382 17.825Z" fill="black"/>
</svg>
