<svg width="19" height="19" viewBox="0 0 19 19" fill="none" xmlns="http://www.w3.org/2000/svg">
<path fill-rule="evenodd" clip-rule="evenodd" d="M13.7344 0.233887H5.73438C2.97295 0.233887 0.734375 2.47247 0.734375 5.23389V13.2339C0.734375 15.9953 2.97295 18.2339 5.73438 18.2339H13.7344C16.4958 18.2339 18.7344 15.9953 18.7344 13.2339V5.23389C18.7344 2.47247 16.4958 0.233887 13.7344 0.233887ZM16.9844 13.2339C16.9789 15.0265 15.527 16.4784 13.7344 16.4839H5.73438C3.94173 16.4784 2.48986 15.0265 2.48438 13.2339V5.23389C2.48986 3.44124 3.94173 1.98938 5.73438 1.98389H13.7344C15.527 1.98938 16.9789 3.44124 16.9844 5.23389V13.2339ZM14.4844 5.48389C15.0367 5.48389 15.4844 5.03617 15.4844 4.48389C15.4844 3.93161 15.0367 3.48389 14.4844 3.48389C13.9321 3.48389 13.4844 3.93161 13.4844 4.48389C13.4844 5.03617 13.9321 5.48389 14.4844 5.48389ZM9.73438 4.73389C7.24909 4.73389 5.23438 6.74861 5.23438 9.23389C5.23438 11.7192 7.24909 13.7339 9.73438 13.7339C12.2197 13.7339 14.2344 11.7192 14.2344 9.23389C14.2371 8.03959 13.7638 6.89346 12.9193 6.04897C12.0748 5.20448 10.9287 4.73123 9.73438 4.73389ZM6.98438 9.23389C6.98438 10.7527 8.21558 11.9839 9.73438 11.9839C11.2532 11.9839 12.4844 10.7527 12.4844 9.23389C12.4844 7.71509 11.2532 6.48389 9.73438 6.48389C8.21558 6.48389 6.98438 7.71509 6.98438 9.23389Z" fill="black"/>
</svg>
