<svg width="41" height="39" viewBox="0 0 41 39" fill="none" xmlns="http://www.w3.org/2000/svg">
<path d="M0.470041 15.4539L8.08754 1.76686C8.27454 1.46686 8.49221 1.25086 8.74054 1.11886C8.98854 0.987196 9.26437 0.921362 9.56804 0.921362C9.87137 0.921362 10.1467 0.987196 10.394 1.11886C10.6414 1.25086 10.8587 1.46686 11.046 1.76686L18.6515 15.4539C18.8422 15.7422 18.9272 16.0365 18.9065 16.3369C18.8859 16.6369 18.8014 16.9142 18.653 17.1689C18.5107 17.4175 18.3104 17.6207 18.052 17.7784C17.7937 17.936 17.5004 18.0149 17.172 18.0149H1.94904C1.61937 18.0149 1.32454 17.9352 1.06454 17.7759C0.804874 17.6165 0.601541 17.4112 0.454541 17.1599C0.307541 16.9089 0.225708 16.6337 0.209041 16.3344C0.192374 16.0347 0.279374 15.7412 0.470041 15.4539ZM9.62854 38.5649C7.34321 38.5649 5.38671 37.7527 3.75904 36.1284C2.13137 34.5037 1.31754 32.5509 1.31754 30.2699C1.31754 27.9542 2.13071 25.9915 3.75704 24.3819C5.38337 22.7719 7.33854 21.9669 9.62254 21.9669C11.9062 21.9669 13.8594 22.7795 15.482 24.4049C17.1044 26.0299 17.9155 27.9835 17.9155 30.2659C17.9155 32.5512 17.104 34.5057 15.481 36.1294C13.8584 37.753 11.9075 38.5649 9.62854 38.5649ZM9.62804 35.1464C10.9887 35.1464 12.1424 34.6747 13.089 33.7314C14.0357 32.788 14.509 31.6329 14.509 30.2659C14.509 28.9052 14.0349 27.7497 13.0865 26.7994C12.1385 25.8487 10.9839 25.3734 9.62254 25.3734C8.25821 25.3734 7.10271 25.8487 6.15604 26.7994C5.20937 27.7497 4.73604 28.907 4.73604 30.2714C4.73604 31.6357 5.20887 32.7894 6.15454 33.7324C7.09987 34.675 8.25771 35.1464 9.62804 35.1464ZM4.85804 14.6084H14.2755L9.56654 6.14286L4.85804 14.6084ZM21.8055 36.8614V23.6704C21.8055 23.1894 21.9694 22.7852 22.297 22.4579C22.6244 22.1305 23.0284 21.9669 23.509 21.9669H36.7005C37.1812 21.9669 37.5852 22.1305 37.9125 22.4579C38.2399 22.7852 38.4035 23.1894 38.4035 23.6704V36.8614C38.4035 37.3424 38.2399 37.7465 37.9125 38.0739C37.5852 38.4012 37.1812 38.5649 36.7005 38.5649H23.509C23.0284 38.5649 22.6244 38.4012 22.297 38.0739C21.9694 37.7465 21.8055 37.3424 21.8055 36.8614ZM25.224 35.1464H34.997V25.3734H25.224V35.1464ZM29.023 17.0954L25.9875 14.4974C23.5995 12.4764 21.9722 10.885 21.1055 9.72336C20.2389 8.5617 19.8055 7.2827 19.8055 5.88636C19.8055 4.2987 20.3505 2.97036 21.4405 1.90136C22.5305 0.832031 23.8987 0.297363 25.545 0.297363C26.4254 0.297363 27.2715 0.50153 28.0835 0.909863C28.8955 1.31786 29.5732 1.90503 30.1165 2.67136C30.6532 1.90503 31.3287 1.31786 32.143 0.909863C32.957 0.50153 33.8055 0.297363 34.6885 0.297363C36.3349 0.297363 37.7009 0.832031 38.7865 1.90136C39.8725 2.97036 40.4155 4.2987 40.4155 5.88636C40.4155 7.2827 39.9822 8.5617 39.1155 9.72336C38.2489 10.885 36.6257 12.4764 34.246 14.4974L31.198 17.0954C30.882 17.3604 30.5192 17.4929 30.1095 17.4929C29.6999 17.4929 29.3377 17.3604 29.023 17.0954ZM30.1165 13.4909C32.8862 11.1975 34.7274 9.5642 35.64 8.59086C36.5527 7.61753 37.009 6.77736 37.009 6.07036C37.009 5.37036 36.8044 4.80486 36.395 4.37386C35.986 3.9432 35.4267 3.72786 34.717 3.72786C34.294 3.72786 33.8832 3.84136 33.4845 4.06836C33.0859 4.2957 32.5705 4.68286 31.9385 5.22986L30.1105 6.90386L28.295 5.22986C27.674 4.67086 27.158 4.2807 26.747 4.05936C26.336 3.83836 25.9259 3.72786 25.5165 3.72786C24.8022 3.72786 24.2415 3.9432 23.8345 4.37386C23.4275 4.80486 23.224 5.37036 23.224 6.07036C23.224 6.7767 23.6789 7.61586 24.5885 8.58786C25.4979 9.55986 27.3405 11.1942 30.1165 13.4909Z" fill="black"/>
</svg>
