<svg width="19" height="19" viewBox="0 0 19 19" fill="none" xmlns="http://www.w3.org/2000/svg">
<path fill-rule="evenodd" clip-rule="evenodd" d="M2.23438 0.233887C1.40595 0.233887 0.734375 0.905457 0.734375 1.73389V16.7339C0.734375 17.5623 1.40595 18.2339 2.23438 18.2339H17.2344C18.0628 18.2339 18.7344 17.5623 18.7344 16.7339V1.73389C18.7344 0.905457 18.0628 0.233887 17.2344 0.233887H2.23438ZM6.25513 4.23661C6.26076 5.19286 5.54498 5.78208 4.6956 5.77786C3.89544 5.77364 3.19795 5.13661 3.20217 4.23802C3.20639 3.39286 3.87435 2.71364 4.74201 2.73333C5.62232 2.75302 6.26076 3.39849 6.25513 4.23661ZM10.0141 6.99565H7.49409H7.49267V15.5555H10.1561V15.3558C10.1561 14.9759 10.1558 14.5959 10.1555 14.2158C10.1547 13.202 10.1538 12.1871 10.159 11.1736C10.1604 10.9275 10.1716 10.6716 10.2349 10.4367C10.4725 9.55919 11.2615 8.99249 12.1418 9.13179C12.7071 9.22029 13.0811 9.54799 13.2386 10.081C13.3357 10.4142 13.3793 10.7728 13.3835 11.1202C13.3949 12.1678 13.3933 13.2154 13.3917 14.2631C13.3911 14.6329 13.3905 15.0029 13.3905 15.3727V15.5541H16.0624V15.3488C16.0624 14.8968 16.0622 14.4449 16.0619 13.993C16.0614 12.8635 16.0608 11.734 16.0638 10.6041C16.0652 10.0936 16.0104 9.59019 15.8852 9.09659C15.6982 8.36249 15.3115 7.75499 14.6829 7.31629C14.2371 7.00408 13.7477 6.80299 13.2007 6.78049C13.1384 6.7779 13.0756 6.77451 13.0125 6.7711C12.7328 6.75598 12.4485 6.74062 12.1811 6.79455C11.4161 6.94783 10.744 7.29799 10.2363 7.91529C10.1773 7.98609 10.1196 8.05799 10.0335 8.16529L10.0141 8.18959V6.99565ZM3.41602 15.5583H6.0668V7.00122H3.41602V15.5583Z" fill="black"/>
</svg>
