<svg width="23" height="27" viewBox="0 0 23 27" fill="none" xmlns="http://www.w3.org/2000/svg">
<path d="M11.7334 0.950684C14.4758 0.950733 16.8869 1.90694 18.9863 3.83838C21.0569 5.74317 22.1073 8.30084 22.1074 11.5669C22.1074 12.9061 21.8124 14.2433 21.2139 15.5806C20.6042 16.943 19.8387 18.2469 18.918 19.4937C17.9912 20.7486 16.9845 21.9198 15.8975 23.0073C14.7982 24.1072 13.7727 25.081 12.8213 25.9282L12.8164 25.9331L12.8105 25.938C12.6716 26.0695 12.5115 26.1647 12.3252 26.2251C12.1146 26.2934 11.9142 26.3257 11.7227 26.3257C11.5313 26.3257 11.3357 26.2932 11.1338 26.2261C10.9556 26.1668 10.8027 26.0736 10.6699 25.9438L10.6611 25.9351L10.6514 25.9272L9.9209 25.2681C9.17697 24.5856 8.3925 23.832 7.56836 23.0073C6.48142 21.9199 5.47453 20.7485 4.54785 19.4937C3.62734 18.2471 2.86375 16.9427 2.25684 15.5806C1.66095 14.2433 1.36719 12.9063 1.36719 11.5669C1.36729 8.30067 2.4164 5.74311 4.48438 3.83838C6.58111 1.90708 8.99092 0.950684 11.7334 0.950684ZM11.7324 2.22998C9.19486 2.23008 7.03181 3.10453 5.27539 4.85107C3.51078 6.6059 2.63877 8.85905 2.63867 11.5669C2.63867 13.4139 3.41111 15.4348 4.87402 17.6138C6.33742 19.7932 8.51538 22.2216 11.3926 24.8979L11.7285 25.2114L12.0693 24.9019C15.0142 22.2302 17.2126 19.8003 18.6455 17.6128C20.0745 15.431 20.8281 13.4106 20.8281 11.5669C20.828 8.85892 19.9552 6.60594 18.1904 4.85107C16.4335 3.10448 14.2702 2.22998 11.7324 2.22998ZM11.7305 9.42725C12.2624 9.42731 12.7013 9.60877 13.0752 9.98096C13.4484 10.3526 13.6299 10.7902 13.6299 11.3218C13.6299 11.8539 13.4486 12.2907 13.0771 12.6616C12.7058 13.0324 12.2687 13.2133 11.7363 13.2134C11.2034 13.2134 10.7662 13.0332 10.3955 12.6646C10.0255 12.2959 9.84375 11.8601 9.84375 11.3276C9.84376 10.7946 10.0239 10.3547 10.3936 9.98096L10.3945 9.98193C10.7634 9.60955 11.199 9.42725 11.7305 9.42725Z" fill="black" stroke="black"/>
</svg>
