<svg width="28" height="22" viewBox="0 0 28 22" fill="none" xmlns="http://www.w3.org/2000/svg">
<path d="M2.47461 0.617676H24.9971C25.4744 0.617676 25.8831 0.786748 26.2451 1.14893C26.6073 1.51093 26.7764 1.91962 26.7764 2.39697V19.5864C26.7764 20.061 26.6071 20.467 26.2451 20.8276C25.8833 21.1884 25.475 21.3579 24.9971 21.3579H2.47461C2.05892 21.3579 1.69581 21.2284 1.37012 20.9546L1.23242 20.8286C0.871781 20.4682 0.703125 20.0615 0.703125 19.5864V2.39697C0.703125 1.9192 0.871857 1.5107 1.23242 1.14893H1.2334C1.594 0.786897 2.00007 0.617676 2.47461 0.617676ZM1.97461 2.55713V20.0864H25.4971V3.48584L24.7227 3.99561L14.1016 10.9878C14.0162 11.0326 13.9405 11.0687 13.873 11.0952C13.8518 11.1036 13.8089 11.1147 13.7354 11.1147C13.6621 11.1147 13.6198 11.1035 13.5986 11.0952C13.531 11.0686 13.4548 11.0328 13.3691 10.9878L2.97461 4.14404V3.2124L13.4619 10.0815L13.7354 10.2612L14.0088 10.0815L25.1377 2.81494L26.5439 1.89697H0.964844L1.97461 2.55713Z" fill="black" stroke="black"/>
</svg>
