<svg width="688" height="688" viewBox="0 0 688 688" fill="none" xmlns="http://www.w3.org/2000/svg">
<path d="M343.76 681.99C530.559 681.99 681.99 530.559 681.99 343.76C681.99 156.961 530.559 5.52979 343.76 5.52979C156.961 5.52979 5.52979 156.961 5.52979 343.76C5.52979 530.559 156.961 681.99 343.76 681.99Z" fill="#F6F8ED"/>
<path d="M343.76 687.52C275.749 687.57 209.252 667.439 152.688 629.675C96.1248 591.911 52.0389 538.212 26.0124 475.378C-0.0141582 412.543 -6.81091 343.399 6.4827 276.7C19.7763 210 52.5624 148.745 100.69 100.69C140.662 60.6713 189.889 31.1316 244.008 14.689C298.127 -1.75362 355.467 -4.59136 410.945 6.42729C466.424 17.4459 518.327 41.9807 562.055 77.8569C605.783 113.733 639.985 159.843 661.63 212.099C683.275 264.356 691.695 321.145 686.142 377.434C680.59 433.722 661.237 487.772 629.799 534.792C598.361 581.812 555.808 620.351 505.913 646.992C456.018 673.633 400.322 687.553 343.76 687.52ZM343.76 10.5198C160 10.5298 10.5299 160 10.5299 343.76C10.5299 527.52 160 677 343.76 677C527.52 677 677 527.51 677 343.76C677 160.01 527.5 10.5298 343.76 10.5298V10.5198Z" fill="#0E486E"/>
<path d="M138.93 368C139.743 373.726 141.337 378.01 143.71 380.85C148.05 386.01 155.493 388.59 166.04 388.59C172.353 388.59 177.48 387.923 181.42 386.59C188.893 383.983 192.63 379.133 192.63 372.04C192.674 370.089 192.186 368.163 191.219 366.468C190.252 364.773 188.842 363.374 187.14 362.42C183.473 360.206 177.667 358.25 169.72 356.55L156.14 353.55C142.807 350.603 133.637 347.4 128.63 343.94C120.21 338.12 116 329.053 116 316.74C115.888 311.448 116.942 306.196 119.086 301.357C121.231 296.519 124.414 292.211 128.41 288.74C136.677 281.313 148.823 277.6 164.85 277.6C178.23 277.6 189.643 281.103 199.09 288.11C208.537 295.116 213.49 305.283 213.95 318.61H188.71C188.25 311.07 184.877 305.71 178.59 302.53C174.403 300.43 169.2 299.38 162.98 299.38C156.053 299.38 150.527 300.743 146.4 303.47C144.454 304.655 142.856 306.333 141.769 308.336C140.682 310.338 140.144 312.592 140.21 314.87C140.151 316.948 140.696 318.999 141.778 320.773C142.861 322.548 144.435 323.971 146.31 324.87C148.93 326.35 154.487 328.08 162.98 330.06L184.98 335.25C194.627 337.516 201.857 340.553 206.67 344.36C214.157 350.286 217.9 358.833 217.9 370C217.9 381.46 213.47 390.976 204.61 398.55C195.75 406.123 183.237 409.91 167.07 409.91C150.55 409.91 137.55 406.18 128.07 398.72C118.59 391.26 113.87 381.02 113.91 368H138.93Z" fill="#318250"/>
<path d="M329 303.47H262.66V330.1H323.59V351.89H262.66V384.14H332.1V406.69H237.05V281.26H329.05L329 303.47Z" fill="#318250"/>
<path d="M418.05 281.26H388.39L343.62 406.69H371L379.49 380.91H403.54C403.383 380.641 403.313 380.33 403.34 380.02C403.386 379.5 403.325 378.977 403.161 378.482C402.998 377.987 402.736 377.53 402.39 377.14C401.604 376.152 401.149 374.941 401.09 373.68C400.963 372.26 400.504 370.89 399.75 369.68C399.386 369.131 399.106 368.531 398.92 367.9C398.695 366.836 398.818 365.728 399.27 364.74C399.353 364.485 399.456 364.237 399.58 364C399.841 363.521 400.002 362.993 400.052 362.45C400.102 361.906 400.04 361.358 399.87 360.84C399.417 358.906 398.413 357.145 396.98 355.77C396.689 355.474 396.486 355.103 396.396 354.698C396.306 354.293 396.332 353.871 396.47 353.48C396.634 352.764 396.757 352.039 396.84 351.31C396.89 350.62 396.51 350.31 395.84 350.31C395.507 350.289 395.173 350.289 394.84 350.31C394.587 350.354 394.326 350.311 394.101 350.188C393.875 350.064 393.699 349.867 393.6 349.63C393.458 349.315 393.217 349.054 392.914 348.888C392.611 348.722 392.262 348.66 391.92 348.71C391.582 348.73 391.247 348.784 390.92 348.87C390.15 349.12 389.38 349.39 388.62 349.67C388.269 349.829 387.873 349.861 387.5 349.76C386.737 349.543 385.921 349.607 385.2 349.94C384.815 350.15 384.371 350.228 383.938 350.161C383.504 350.094 383.104 349.886 382.8 349.57C382.12 348.97 381.36 348.45 380.7 347.82C380.329 347.458 380.034 347.026 379.83 346.55C379.568 345.965 379.174 345.448 378.68 345.04L377.95 344.42C377.591 344.139 377.346 343.737 377.26 343.29C377.221 343.105 377.157 342.927 377.07 342.76C376.958 342.551 376.893 342.32 376.881 342.083C376.869 341.846 376.909 341.609 377 341.39C377.23 340.72 377.5 340.06 377.69 339.39C377.857 338.686 377.833 337.951 377.62 337.26C377.586 337.121 377.517 336.994 377.42 336.89C377.297 336.795 377.213 336.658 377.184 336.505C377.154 336.352 377.181 336.194 377.26 336.06C378.02 334.209 379.157 332.536 380.6 331.15C380.829 330.939 381.093 330.77 381.38 330.65C381.743 330.496 382.056 330.245 382.284 329.923C382.512 329.602 382.646 329.223 382.67 328.83C382.711 328.417 382.841 328.018 383.05 327.66C383.246 327.342 383.526 327.086 383.86 326.92C384.512 326.606 385.056 326.105 385.42 325.48C385.55 325.251 385.719 325.048 385.92 324.88C386.17 324.68 386.43 324.77 386.67 325C386.811 325.107 386.983 325.163 387.16 325.16C387.63 325.16 388.1 325.16 388.58 325.16C388.907 325.207 389.239 325.129 389.51 324.94C390.563 324.244 391.781 323.841 393.04 323.77C394.17 323.67 395.3 323.61 396.44 323.5C396.68 323.5 396.93 323.38 397.17 323.34C397.291 323.289 397.423 323.272 397.553 323.291C397.683 323.309 397.805 323.362 397.907 323.443C398.009 323.525 398.088 323.633 398.134 323.756C398.18 323.878 398.193 324.011 398.17 324.14C398.204 324.695 398.056 325.246 397.75 325.71C397.716 325.781 397.698 325.86 397.698 325.94C397.698 326.019 397.716 326.098 397.75 326.17C397.893 326.409 398.091 326.61 398.327 326.756C398.564 326.902 398.833 326.989 399.11 327.01C400.14 327.087 401.119 327.486 401.91 328.15C402.125 328.302 402.357 328.429 402.6 328.53C402.95 328.72 403.34 328.87 403.67 329.09C404.18 329.43 404.67 329.31 404.74 328.62C404.756 328.345 404.786 328.071 404.83 327.8C404.868 327.606 404.962 327.427 405.1 327.287C405.239 327.146 405.417 327.05 405.61 327.01C406.201 326.881 406.819 326.959 407.36 327.23C407.975 327.514 408.624 327.719 409.29 327.84C409.887 327.988 410.475 328.172 411.05 328.39C411.299 328.481 411.563 328.521 411.827 328.509C412.091 328.497 412.351 328.433 412.59 328.32C413.07 328.104 413.617 328.086 414.11 328.27C414.509 328.435 414.951 328.467 415.37 328.36C415.425 328.34 415.484 328.332 415.542 328.336C415.601 328.34 415.657 328.356 415.709 328.383C415.761 328.41 415.807 328.448 415.843 328.494C415.879 328.54 415.906 328.593 415.92 328.65C416.081 328.978 416.157 329.341 416.141 329.706C416.125 330.071 416.018 330.427 415.83 330.74C415.74 330.89 415.54 330.98 415.39 331.1H415.25L416.51 333.52C416.81 334.13 417.12 334.74 417.43 335.35C417.485 335.479 417.552 335.603 417.63 335.72C418.086 336.262 418.362 336.933 418.42 337.64C418.492 338.182 418.758 338.68 419.17 339.04C419.607 339.45 419.916 339.978 420.06 340.56C420.23 341.184 420.64 341.716 421.2 342.04C421.61 342.32 422.03 342.57 422.42 342.88C422.672 343.11 422.897 343.368 423.09 343.65C423.163 343.748 423.203 343.867 423.203 343.99C423.203 344.112 423.163 344.231 423.09 344.33C423.064 344.39 423.05 344.454 423.05 344.52C423.05 344.585 423.064 344.65 423.09 344.71C423.272 344.969 423.527 345.168 423.823 345.282C424.118 345.396 424.441 345.419 424.75 345.35C425.56 345.18 426.37 345.04 427.17 344.85C427.646 344.717 428.113 344.557 428.57 344.37C428.91 344.24 429.1 344.31 429.12 344.65C429.141 345.039 429.09 345.429 428.97 345.8C428.377 347.342 427.648 348.828 426.79 350.24C426.178 351.093 425.44 351.849 424.6 352.48C423.076 353.662 421.784 355.117 420.79 356.77C420.55 357.22 420.34 357.7 420.11 358.16C420.006 358.385 419.962 358.633 419.983 358.881C420.005 359.128 420.09 359.365 420.23 359.57C420.38 359.824 420.457 360.115 420.45 360.41C420.376 361.059 420.531 361.714 420.89 362.26C421.101 362.6 421.19 363.002 421.14 363.4C421.1 363.869 421.1 364.341 421.14 364.81C421.257 365.335 421.184 365.885 420.933 366.361C420.682 366.838 420.27 367.209 419.77 367.41C418.806 367.875 417.929 368.504 417.18 369.27C416.95 369.509 416.783 369.801 416.694 370.12C416.605 370.44 416.597 370.776 416.67 371.1C416.75 371.61 416.81 372.1 416.84 372.64C416.863 372.86 416.819 373.081 416.713 373.276C416.608 373.47 416.447 373.628 416.25 373.73C415.95 373.91 415.64 374.05 415.33 374.2C415.151 374.264 414.993 374.378 414.876 374.528C414.759 374.679 414.688 374.86 414.67 375.05C414.562 376.259 414.027 377.39 413.16 378.24C412.58 378.89 411.98 379.53 411.35 380.13C411.009 380.468 410.6 380.73 410.15 380.9H425.67L434 406.69H462.42L418.05 281.26ZM428.55 366.85L428.23 366.66C428.18 366.998 428.106 367.332 428.01 367.66C427.74 368.5 427.46 369.32 427.15 370.15C426.78 371.15 426.38 372.15 425.99 373.23C425.884 373.609 425.671 373.951 425.377 374.213C425.083 374.475 424.719 374.648 424.33 374.71C424.187 374.746 424.037 374.752 423.891 374.728C423.745 374.703 423.605 374.648 423.482 374.566C423.359 374.484 423.254 374.377 423.174 374.252C423.095 374.127 423.042 373.986 423.02 373.84C422.904 373.256 422.837 372.664 422.82 372.07C422.827 371.717 422.927 371.372 423.11 371.07C423.346 370.729 423.513 370.346 423.6 369.941C423.688 369.536 423.694 369.117 423.62 368.71C423.59 368.4 423.59 368.089 423.62 367.78C423.62 367.17 424.04 366.78 424.75 366.69L425.14 366.63C425.465 366.589 425.773 366.458 426.028 366.254C426.284 366.049 426.479 365.778 426.59 365.47C426.717 365.116 426.934 364.803 427.22 364.56C427.386 364.348 427.512 364.107 427.59 363.85C427.637 363.689 427.673 363.525 427.7 363.36C428.071 363.853 428.338 364.417 428.484 365.017C428.63 365.617 428.653 366.241 428.55 366.85Z" fill="#0F496F"/>
<path d="M562.59 352.4C555.257 358.52 544.773 361.583 531.14 361.59H505V406.69H479V281.26H532.86C545.267 281.26 555.167 284.493 562.56 290.96C569.953 297.426 573.643 307.426 573.63 320.96C573.617 335.786 569.937 346.266 562.59 352.4ZM542.59 307.21C539.257 304.43 534.59 303.04 528.59 303.04H505V340H528.62C534.62 340 539.287 338.496 542.62 335.49C545.953 332.483 547.62 327.72 547.62 321.2C547.587 314.653 545.91 309.99 542.59 307.21Z" fill="#0F496F"/>
<path d="M88.7298 453.45C89.9268 452.854 90.937 451.941 91.6498 450.81C92.5565 449.11 92.4531 446.853 91.3398 444.04C90.8315 442.638 90.0986 441.327 89.1698 440.16C87.6831 438.44 85.9931 437.957 84.0998 438.71C83.5695 438.901 83.1021 439.234 82.7492 439.673C82.3963 440.113 82.1715 440.641 82.0998 441.2C81.9153 442.957 82.0098 444.732 82.3798 446.46L83.0298 450.4C83.6598 454.27 83.7698 457.05 83.3798 458.75C82.7131 461.623 80.7498 463.71 77.4898 465.01C76.0914 465.601 74.5802 465.878 73.0631 465.821C71.546 465.764 70.0599 465.374 68.7098 464.68C65.8498 463.26 63.5798 460.42 61.8698 456.15C60.4837 452.915 60.1922 449.316 61.0398 445.9C61.4885 444.268 62.3166 442.765 63.4566 441.514C64.5967 440.262 66.0163 439.298 67.5998 438.7L70.2698 445.42C69.3763 445.779 68.6016 446.382 68.0341 447.16C67.4666 447.938 67.129 448.86 67.0598 449.82C66.9732 451.364 67.2542 452.906 67.8798 454.32C68.4138 455.903 69.4014 457.294 70.7198 458.32C71.2424 458.714 71.8597 458.963 72.5094 459.042C73.159 459.121 73.818 459.027 74.4198 458.77C74.9767 458.559 75.4613 458.192 75.8158 457.713C76.1703 457.235 76.38 456.664 76.4198 456.07C76.478 454.394 76.3472 452.717 76.0298 451.07L75.0298 444.65C74.5897 442.417 74.6341 440.115 75.1598 437.9C75.5774 436.57 76.3058 435.358 77.2848 434.365C78.2639 433.372 79.4654 432.626 80.7898 432.19C82.2319 431.592 83.7907 431.328 85.3494 431.418C86.9082 431.508 88.4262 431.95 89.7898 432.71C92.7498 434.257 95.0831 437.19 96.7898 441.51C98.4965 445.83 98.8831 449.687 97.9498 453.08C97.4738 454.703 96.6177 456.189 95.4525 457.415C94.2873 458.641 92.8465 459.572 91.2498 460.13L88.7298 453.45Z" fill="#0F496F"/>
<path d="M54.5701 433.21L52.6601 425.81L74.0701 420.31C75.8786 419.954 77.586 419.203 79.0701 418.11C80.7968 416.73 81.2801 414.563 80.5201 411.61C79.7601 408.656 78.2934 406.99 76.1201 406.61C74.2857 406.363 72.4193 406.534 70.6601 407.11L49.2501 412.61L47.3501 405.21L68.7701 399.7C72.4701 398.7 75.5101 398.58 77.8701 399.2C82.2168 400.4 85.1634 404 86.7101 410C88.2568 416 87.4201 420.583 84.2001 423.75C82.4334 425.43 79.6968 426.746 75.9901 427.7L54.5701 433.21Z" fill="#0F496F"/>
<path d="M69.4801 386.22C70.8 385.947 72.0185 385.313 73.0001 384.39C74.3334 382.97 74.8001 380.76 74.4001 377.76C74.2558 376.274 73.8708 374.822 73.2601 373.46C72.9225 372.561 72.2863 371.805 71.458 371.319C70.6298 370.833 69.6596 370.646 68.7101 370.79C68.1548 370.849 67.6261 371.058 67.1805 371.394C66.7349 371.731 66.3891 372.182 66.1801 372.7C65.5815 374.361 65.2442 376.105 65.1801 377.87L64.8301 381.87C64.4701 385.78 63.8901 388.5 63.0801 390.05C61.7401 392.66 59.3201 394.2 55.8201 394.64C54.3176 394.866 52.7837 394.757 51.3281 394.322C49.8725 393.886 48.5312 393.134 47.4001 392.12C44.9867 390.04 43.4901 386.706 42.9101 382.12C42.3381 378.656 42.9214 375.099 44.5701 372C45.4119 370.531 46.5892 369.283 48.0056 368.357C49.422 367.43 51.0375 366.852 52.7201 366.67L53.6301 373.83C52.6734 373.955 51.7712 374.346 51.0267 374.96C50.2822 375.574 49.7254 376.384 49.4201 377.3C48.9529 378.769 48.8399 380.328 49.0901 381.85C49.2134 383.513 49.8257 385.103 50.8501 386.42C51.2578 386.932 51.7932 387.327 52.4025 387.566C53.0117 387.804 53.6732 387.878 54.3201 387.78C54.9242 387.729 55.5 387.501 55.9764 387.126C56.4527 386.751 56.8086 386.245 57.0001 385.67C57.4853 384.066 57.7806 382.412 57.8801 380.74L58.5601 374.29C58.696 372.019 59.313 369.804 60.3701 367.79C61.1079 366.606 62.1166 365.616 63.3129 364.899C64.5092 364.183 65.8587 363.761 67.2501 363.67C68.7998 363.447 70.3798 363.579 71.8711 364.055C73.3625 364.531 74.7264 365.34 75.8601 366.42C78.3267 368.673 79.8567 372.1 80.4501 376.7C81.0501 381.39 80.4501 385.23 78.6701 388.19C77.8055 389.642 76.6068 390.867 75.1736 391.762C73.7405 392.658 72.1142 393.199 70.4301 393.34L69.4801 386.22Z" fill="#0F496F"/>
<path d="M41.27 332.28L47.64 332.2L47.76 343L77.37 342.65L77.46 350.22L47.85 350.57L48 361.35L41.63 361.42L41.27 332.28Z" fill="#0F496F"/>
<path d="M42.4297 318.35L43.2497 309.88L80.2497 300.67L79.4697 308.79L71.8797 310.44L70.5997 323.63L77.7297 326.77L76.9997 334.6L42.4297 318.35ZM64.6697 321L65.5497 311.82L50.9997 315L64.6697 321Z" fill="#0F496F"/>
<path d="M82.75 290.27L81.35 297.61L46 290.89L47.4 283.55L82.75 290.27Z" fill="#0F496F"/>
<path d="M49.1001 274.26L51.2801 266.68L79.3401 259.87L55.2201 253L57.1501 246.26L91.7401 256.19L89.6701 263.41L61.0801 270.41L85.6301 277.46L83.7001 284.19L49.1001 274.26Z" fill="#0F496F"/>
<path d="M64.9199 226.72L68.3299 218.93L106.4 221.64L103.14 229.12L95.4099 228.34L90.1099 240.48L95.9199 245.68L92.7699 252.89L64.9199 226.72ZM85.2499 236.13L88.9299 227.68L74.1299 226.19L85.2499 236.13Z" fill="#0F496F"/>
<path d="M94.4899 179.06C96.4478 178.922 98.398 179.42 100.05 180.48C101.734 181.382 103.039 182.858 103.73 184.64C104.068 185.743 104.184 186.902 104.07 188.05C105.429 186.884 107.141 186.208 108.93 186.13C110.788 186.113 112.609 186.642 114.17 187.65C115.92 188.671 117.34 190.174 118.26 191.98C118.861 193.114 119.238 194.353 119.37 195.63C119.525 197.122 119.337 198.631 118.82 200.04C118.24 201.647 117.5 203.191 116.61 204.65L108.24 218.54L77.4199 200L86.4199 185.11C88.7266 181.356 91.4166 179.34 94.4899 179.06ZM86.4899 197.06L93.2799 201.16L97.7999 193.67C98.5367 192.565 98.9522 191.277 98.9999 189.95C98.9699 189.322 98.7674 188.714 98.4146 188.194C98.0617 187.673 97.5723 187.26 96.9999 187C96.4472 186.6 95.7823 186.384 95.0999 186.384C94.4176 186.384 93.7526 186.6 93.1999 187C92.1321 187.969 91.2272 189.103 90.5199 190.36L86.4899 197.06ZM98.3899 204.23L106.6 209.18L111.11 201.7C111.805 200.662 112.263 199.484 112.45 198.25C112.603 196.503 111.727 195.056 109.82 193.91C109.167 193.441 108.384 193.189 107.58 193.189C106.776 193.189 105.993 193.441 105.34 193.91C104.366 194.661 103.556 195.603 102.96 196.68L98.3899 204.23Z" fill="#0F496F"/>
<path d="M98.4097 166.73L103.04 160.81L126.31 179L137.36 164.83L142.46 168.83L126.78 188.91L98.4097 166.73Z" fill="#0F496F"/>
<path d="M142.8 126L129.43 139.6L134.87 144.96L147.15 132.52L151.6 136.91L139.32 149.35L145.91 155.85L159.91 141.67L164.52 146.21L145.37 165.63L119.74 140.36L138.28 121.57L142.8 126Z" fill="#0F496F"/>
<path d="M183 94.8499L167.51 105.93L171.95 112.14L186.14 102L189.78 107.09L175.56 117.26L180.94 124.78L197.14 113.19L200.91 118.46L178.73 134.32L157.79 105L179.26 89.6499L183 94.8499Z" fill="#0F496F"/>
<path d="M187.83 84.2799L194.77 80.5399L219.24 95.8599L207.35 73.7699L213.52 70.4399L230.58 102.13L224 105.69L199 90.1599L211.11 112.64L204.89 116L187.83 84.2799Z" fill="#0F496F"/>
<path d="M250.3 62.5496L232.52 69.3796L235.26 76.5096L251.58 70.2496L253.82 76.0796L237.5 82.3496L240.82 90.9996L259.42 83.8496L261.74 89.8496L236.28 99.6296L223.38 66.0396L248 56.5996L250.3 62.5496Z" fill="#0F496F"/>
<path d="M280.4 48.9397C281.801 49.1733 283.127 49.7353 284.27 50.5797C285.222 51.2856 286.059 52.1358 286.75 53.0997C287.483 54.1602 288.006 55.3518 288.29 56.6097C288.698 58.3245 288.68 60.113 288.24 61.8197C287.756 63.6718 286.564 65.2594 284.92 66.2397C286.468 66.383 287.918 67.062 289.02 68.1597C290.213 69.6836 291.016 71.4753 291.36 73.3797L291.94 75.7297C292.172 76.8254 292.507 77.8968 292.94 78.9297C293.109 79.3205 293.36 79.6706 293.676 79.9568C293.991 80.2431 294.364 80.4588 294.77 80.5897L294.99 81.4697L286.92 83.4697C286.51 82.7497 286.2 82.1697 285.99 81.7097C285.568 80.7655 285.233 79.7848 284.99 78.7797L284.14 75.5397C283.573 73.3197 282.826 71.9264 281.9 71.3597C280.973 70.793 279.493 70.763 277.46 71.2697L270.28 72.9997L273.63 86.7097L266.49 88.4497L257.95 53.4497L274.67 49.3597C276.537 48.8652 278.48 48.7228 280.4 48.9397ZM266.57 57.7997L268.87 67.1897L276.73 65.2697C277.943 65.0407 279.092 64.553 280.1 63.8397C281.32 62.8397 281.69 61.3597 281.21 59.3997C280.69 57.2797 279.68 56.0197 278.21 55.6197C277.033 55.403 275.822 55.4751 274.68 55.8297L266.57 57.7997Z" fill="#0F496F"/>
<path d="M321.48 53.2896C321.131 52.1871 320.515 51.1882 319.686 50.382C318.857 49.5758 317.842 48.9875 316.73 48.6696C315.37 48.2776 313.944 48.1686 312.54 48.3496C311.184 48.4807 309.876 48.9178 308.713 49.628C307.551 50.3382 306.565 51.303 305.83 52.4496C304.243 54.843 303.707 58.2163 304.22 62.5696C304.733 66.9229 306.103 69.9229 308.33 71.5696C310.382 73.1033 312.945 73.7905 315.49 73.4896C317.753 73.312 319.863 72.2785 321.39 70.5996C322.834 68.9305 323.645 66.8064 323.68 64.5996L315.41 65.5996L314.7 59.5996L329.59 57.8296L331.87 76.9996L326.92 77.5796L325.64 73.2096C324.703 74.7126 323.539 76.0619 322.19 77.2096C320.133 78.7453 317.687 79.6737 315.13 79.8896C312.958 80.2161 310.742 80.0687 308.632 79.4577C306.523 78.8466 304.571 77.7863 302.91 76.3496C299.363 73.4296 297.25 69.0963 296.57 63.3496C295.89 57.6029 296.933 52.7796 299.7 48.8796C302.473 45.013 306.473 42.7696 311.7 42.1496C316.24 41.6096 320.023 42.3263 323.05 44.2996C325.962 46.1188 328.037 49.0163 328.82 52.3596L321.48 53.2896Z" fill="#0F496F"/>
<path d="M359.46 41.7099L367.98 41.9199L355.37 64.0999L355 77.5899L347.48 77.3999L347.82 63.9099L336 41.1099L344.86 41.3399L351.93 57.1899L359.46 41.7099Z" fill="#0F496F"/>
<path d="M398.09 46.2598L406.44 47.8898L412 85.6598L404 84.0898L403.1 76.3698L390.1 73.8298L386.28 80.6198L378.57 79.1098L398.09 46.2598ZM393.3 68.1298L402.3 69.9098L400.6 55.1398L393.3 68.1298Z" fill="#0F496F"/>
<path d="M428.87 57.2998C430.699 56.3699 432.701 55.8302 434.749 55.7148C436.798 55.5995 438.848 55.9111 440.77 56.6298C446.45 58.5498 449.966 61.8331 451.32 66.4798C452.047 68.7994 452.109 71.2765 451.5 73.6298L444.38 71.2198C444.521 69.7705 444.35 68.3078 443.88 66.9298C443.35 65.8892 442.604 64.9742 441.691 64.2463C440.778 63.5185 439.72 62.9948 438.587 62.7106C437.455 62.4263 436.275 62.388 435.126 62.5983C433.978 62.8086 432.888 63.2626 431.93 63.9298C429.756 65.5298 428.023 68.2398 426.73 72.0598C425.436 75.8798 425.243 79.0064 426.15 81.4398C426.536 82.5766 427.184 83.6073 428.04 84.4494C428.896 85.2915 429.937 85.9218 431.08 86.2898C432.118 86.7104 433.242 86.878 434.358 86.7789C435.475 86.6798 436.551 86.3168 437.5 85.7198C438.751 84.8229 439.806 83.6795 440.6 82.3598L447.68 84.7498C446.026 88.0533 443.296 90.6949 439.94 92.2398C436.498 93.7253 432.614 93.8114 429.11 92.4798C424.256 90.8398 420.976 87.9764 419.27 83.8898C417.563 79.8031 417.636 75.0031 419.49 69.4898C421.503 63.5298 424.63 59.4664 428.87 57.2998Z" fill="#0F496F"/>
<path d="M465.66 70.9998C467.594 70.3176 469.648 70.0444 471.693 70.1976C473.738 70.3508 475.729 70.9271 477.54 71.8898C482.92 74.5565 485.973 78.2732 486.7 83.0398C487.126 85.4126 486.883 87.8569 486 90.0998L479.25 86.7798C479.588 85.3621 479.612 83.8877 479.32 82.4598C478.936 81.3556 478.319 80.3468 477.511 79.5019C476.703 78.6571 475.723 77.996 474.637 77.5634C473.551 77.1309 472.384 76.9371 471.217 76.9951C470.049 77.0532 468.908 77.3617 467.87 77.8998C465.51 79.1998 463.437 81.6598 461.65 85.2798C459.863 88.8998 459.263 91.9732 459.85 94.4998C460.081 95.6781 460.586 96.7853 461.324 97.7321C462.063 98.6789 463.014 99.4387 464.1 99.9498C465.071 100.507 466.162 100.824 467.281 100.873C468.4 100.921 469.514 100.701 470.53 100.23C471.871 99.4992 473.051 98.5061 474 97.3098L480.7 100.61C478.618 103.674 475.546 105.929 472 107C468.397 108.023 464.536 107.6 461.24 105.82C456.653 103.56 453.773 100.293 452.6 96.0198C451.427 91.7465 452.133 86.9932 454.72 81.7598C457.52 76.1398 461.167 72.5532 465.66 70.9998Z" fill="#0F496F"/>
<path d="M518.08 104.19L502.18 93.7099L498 100.09L512.59 109.71L509.15 114.93L494.56 105.3L489.44 113L506.07 124L502.5 129.4L479.74 114.4L499.56 84.3999L521.56 98.9399L518.08 104.19Z" fill="#0F496F"/>
<path d="M517.64 127.43C516.862 128.517 516.399 129.797 516.3 131.13C516.3 133.063 517.45 135.01 519.75 136.97C520.856 137.97 522.12 138.781 523.49 139.37C525.61 140.19 527.327 139.823 528.64 138.27C529.014 137.854 529.267 137.343 529.371 136.793C529.475 136.242 529.426 135.674 529.23 135.15C528.56 133.513 527.643 131.988 526.51 130.63L524.09 127.46C521.72 124.34 520.31 121.93 519.86 120.25C519.08 117.417 519.833 114.653 522.12 111.96C523.077 110.782 524.283 109.829 525.65 109.169C527.016 108.509 528.512 108.158 530.03 108.14C533.223 108.047 536.573 109.487 540.08 112.46C542.825 114.66 544.769 117.704 545.61 121.12C545.981 122.77 545.957 124.485 545.538 126.125C545.119 127.764 544.318 129.28 543.2 130.55L537.69 125.88C538.312 125.143 538.714 124.245 538.85 123.291C538.986 122.336 538.851 121.362 538.46 120.48C537.81 119.079 536.84 117.85 535.63 116.89C534.414 115.751 532.892 114.993 531.25 114.71C530.605 114.606 529.943 114.675 529.334 114.911C528.724 115.146 528.188 115.539 527.78 116.05C527.376 116.493 527.111 117.044 527.017 117.636C526.923 118.227 527.004 118.834 527.25 119.38C527.977 120.889 528.876 122.308 529.93 123.61L533.78 128.83C535.21 130.593 536.252 132.637 536.84 134.83C537.089 136.203 537.01 137.616 536.608 138.952C536.207 140.289 535.495 141.512 534.53 142.52C533.538 143.729 532.285 144.697 530.864 145.35C529.444 146.003 527.893 146.325 526.33 146.29C522.997 146.29 519.557 144.797 516.01 141.81C512.463 138.823 510.313 135.597 509.56 132.13C509.217 130.475 509.275 128.762 509.729 127.133C510.183 125.505 511.02 124.009 512.17 122.77L517.64 127.43Z" fill="#0F496F"/>
<path d="M542.55 150.06C541.648 151.044 541.035 152.259 540.78 153.57C540.53 155.49 541.44 157.57 543.49 159.78C544.471 160.906 545.63 161.866 546.92 162.62C548.92 163.69 550.67 163.53 552.17 162.15C552.59 161.785 552.905 161.315 553.081 160.787C553.257 160.259 553.288 159.694 553.17 159.15C552.702 157.445 551.973 155.822 551.01 154.34L549.01 150.9C547.01 147.506 545.9 144.95 545.68 143.23C545.253 140.316 546.336 137.65 548.93 135.23C550.021 134.175 551.332 133.374 552.768 132.883C554.204 132.392 555.731 132.224 557.24 132.39C560.42 132.676 563.57 134.51 566.69 137.89C569.151 140.403 570.715 143.658 571.14 147.15C571.311 148.835 571.081 150.536 570.467 152.114C569.853 153.693 568.874 155.103 567.61 156.23L562.71 150.92C563.413 150.262 563.918 149.421 564.167 148.491C564.416 147.562 564.4 146.581 564.12 145.66C563.645 144.187 562.829 142.848 561.74 141.75C560.667 140.475 559.246 139.54 557.65 139.06C557.023 138.882 556.36 138.872 555.728 139.032C555.096 139.192 554.517 139.515 554.05 139.97C553.596 140.363 553.266 140.879 553.101 141.456C552.936 142.033 552.942 142.646 553.12 143.22C553.664 144.803 554.385 146.319 555.27 147.74L558.47 153.39C559.682 155.314 560.466 157.476 560.77 159.73C560.858 161.122 560.612 162.515 560.054 163.793C559.496 165.072 558.641 166.198 557.56 167.08C556.429 168.161 555.067 168.971 553.577 169.449C552.088 169.928 550.509 170.061 548.96 169.84C545.626 169.453 542.39 167.556 539.25 164.15C536.11 160.743 534.36 157.283 534 153.77C533.858 152.082 534.121 150.384 534.769 148.819C535.416 147.253 536.427 145.865 537.72 144.77L542.55 150.06Z" fill="#0F496F"/>
<path d="M586.71 200.18C584.09 199.367 581.717 197.32 579.59 194.04L575.52 187.75L564.66 194.75L560.6 188.48L590.81 169L599.2 182C601.013 184.506 601.832 187.595 601.5 190.67C601.087 193.45 599.25 195.9 595.99 198.02C592.423 200.267 589.33 200.987 586.71 200.18ZM594.48 188.32C594.577 186.888 594.159 185.469 593.3 184.32L589.62 178.63L580.73 184.39L584.41 190.08C585.122 191.344 586.287 192.291 587.67 192.73C588.404 192.872 589.16 192.857 589.888 192.684C590.615 192.512 591.298 192.187 591.89 191.73C592.547 191.389 593.121 190.906 593.568 190.316C594.016 189.727 594.328 189.045 594.48 188.32Z" fill="#0F496F"/>
<path d="M619.36 221.25C619.425 222.671 619.147 224.088 618.55 225.38C618.061 226.458 617.403 227.45 616.6 228.32C615.716 229.263 614.656 230.023 613.48 230.56C611.887 231.303 610.136 231.646 608.38 231.56C606.47 231.467 604.674 230.627 603.38 229.22C603.565 230.761 603.212 232.319 602.38 233.63C601.139 235.115 599.553 236.272 597.76 237L595.58 238C594.556 238.45 593.576 238.992 592.65 239.62C592.301 239.867 592.009 240.186 591.794 240.555C591.578 240.924 591.444 241.335 591.4 241.76L590.59 242.15L586.99 234.67C587.61 234.12 588.12 233.67 588.52 233.4C589.355 232.776 590.245 232.231 591.18 231.77L594.18 230.28C596.24 229.26 597.45 228.24 597.81 227.22C598.17 226.22 597.89 224.75 596.99 222.86L593.81 216.24L581 222.42L577.82 215.79L610.26 200.22L617.71 215.73C618.596 217.452 619.155 219.324 619.36 221.25ZM607.83 209.55L599.12 213.73L602.62 221.03C603.092 222.169 603.805 223.192 604.71 224.03C605.95 225.03 607.47 225.08 609.29 224.2C611.29 223.26 612.29 222 612.36 220.44C612.331 219.245 612.011 218.074 611.43 217.03L607.83 209.55Z" fill="#0F496F"/>
<path d="M614.87 265.45C612.53 264.01 610.746 261.433 609.52 257.72L607.16 250.61L594.88 254.68L592.53 247.59L626.68 236.26L631.55 250.92C632.67 253.815 632.67 257.024 631.55 259.92C630.456 262.513 628.063 264.423 624.37 265.65C620.37 266.963 617.203 266.896 614.87 265.45ZM625.36 255.92C625.82 254.56 625.777 253.081 625.24 251.75L623.1 245.32L613.05 248.65L615.18 255.09C615.555 256.492 616.444 257.702 617.67 258.48C618.348 258.797 619.085 258.966 619.833 258.976C620.582 258.987 621.323 258.838 622.01 258.54C623.79 258 624.91 257.08 625.36 255.92Z" fill="#0F496F"/>
<path d="M610.73 304.74C607.47 302.6 605.36 299.003 604.4 293.95C603.44 288.896 604.077 284.773 606.31 281.58C608.977 277.353 613.493 274.633 619.86 273.42C626.34 272.18 631.543 273.04 635.47 276C638.73 278.146 640.843 281.746 641.81 286.8C642.777 291.853 642.137 295.976 639.89 299.17C637.33 303.35 632.813 306.06 626.34 307.3C619.993 308.52 614.79 307.666 610.73 304.74ZM615.22 299.1C617.713 300.4 620.947 300.673 624.92 299.92C628.893 299.166 631.797 297.72 633.63 295.58C634.53 294.558 635.173 293.337 635.507 292.017C635.841 290.697 635.856 289.316 635.55 287.99C635.339 286.642 634.815 285.362 634.02 284.254C633.224 283.146 632.18 282.24 630.97 281.61C628.477 280.276 625.24 279.993 621.26 280.76C617.28 281.526 614.38 282.983 612.56 285.13C611.666 286.161 611.028 287.388 610.696 288.712C610.364 290.036 610.348 291.419 610.65 292.75C610.856 294.094 611.378 295.37 612.172 296.474C612.966 297.577 614.011 298.477 615.22 299.1Z" fill="#0F496F"/>
<path d="M622.69 318.87L621.87 318.93C619.876 318.995 617.911 319.422 616.07 320.19C614.98 320.78 614.49 321.91 614.6 323.59C614.57 324.269 614.754 324.942 615.128 325.511C615.501 326.08 616.044 326.517 616.68 326.76C617.902 327.064 619.17 327.138 620.42 326.98L645.53 325.24L646.05 332.74L621.05 334.47C618.551 334.786 616.014 334.441 613.69 333.47C610.55 331.93 608.82 328.883 608.5 324.33C608.18 319.776 609.18 316.636 611.5 314.91C613.84 313.18 617.11 312.17 621.34 311.91L622.16 311.85L622.69 318.87Z" fill="#0F496F"/>
<path d="M638.91 370.08L639.7 351.08L632.06 350.77L631.34 368.23L625.1 367.97L625.82 350.51L616.58 350.12L615.75 370L609.29 369.73L610.41 342.48L646.41 343.97L645.32 370.34L638.91 370.08Z" fill="#0F496F"/>
<path d="M640 383.29C641.203 384.952 642.048 386.845 642.482 388.851C642.916 390.856 642.929 392.929 642.52 394.94C641.52 400.853 638.83 404.837 634.45 406.89C632.284 407.97 629.86 408.423 627.45 408.2L628.71 400.79C630.164 400.701 631.583 400.302 632.87 399.62C633.819 398.937 634.61 398.057 635.189 397.042C635.768 396.026 636.122 394.898 636.228 393.733C636.333 392.569 636.187 391.395 635.799 390.292C635.411 389.189 634.791 388.182 633.98 387.34C632.06 385.453 629.11 384.17 625.13 383.49C621.15 382.81 618.033 383.107 615.78 384.38C614.72 384.94 613.805 385.742 613.11 386.719C612.416 387.697 611.96 388.824 611.78 390.01C611.526 391.101 611.536 392.236 611.807 393.323C612.078 394.41 612.604 395.416 613.34 396.26C614.422 397.352 615.715 398.213 617.14 398.79L615.89 406.16C612.369 405.047 609.335 402.764 607.29 399.69C605.244 396.528 604.522 392.689 605.28 389C606.14 383.953 608.45 380.263 612.21 377.93C615.97 375.597 620.723 374.93 626.47 375.93C632.67 376.983 637.18 379.437 640 383.29Z" fill="#0F496F"/>
<path d="M629.31 444.35L623.2 442.53L626.29 432.21L597.91 423.73L600.08 416.48L628.45 425L631.55 414.64L637.66 416.46L629.31 444.35Z" fill="#0F496F"/>
<path d="M601.62 446.58C600.354 446.15 598.993 446.081 597.69 446.38C595.84 446.94 594.31 448.6 593.11 451.38C592.481 452.733 592.072 454.178 591.9 455.66C591.74 457.926 592.596 459.463 594.47 460.27C594.977 460.502 595.538 460.593 596.093 460.531C596.648 460.469 597.176 460.258 597.62 459.92C598.991 458.803 600.182 457.48 601.15 456L603.47 452.76C605.77 449.58 607.65 447.52 609.13 446.6C611.623 445.026 614.49 444.943 617.73 446.35C619.143 446.914 620.414 447.784 621.452 448.897C622.489 450.011 623.267 451.34 623.73 452.79C624.75 455.816 624.35 459.44 622.53 463.66C621.231 466.931 618.891 469.683 615.87 471.49C614.398 472.325 612.749 472.802 611.059 472.88C609.368 472.958 607.683 472.636 606.14 471.94L609 465.3C609.885 465.68 610.859 465.803 611.811 465.654C612.762 465.506 613.653 465.092 614.38 464.46C615.53 463.43 616.424 462.146 616.99 460.71C617.721 459.209 617.999 457.527 617.79 455.87C617.7 455.223 617.44 454.611 617.036 454.098C616.631 453.585 616.098 453.189 615.49 452.95C614.947 452.696 614.343 452.605 613.75 452.689C613.157 452.772 612.601 453.026 612.15 453.42C610.92 454.557 609.826 455.832 608.89 457.22L605 462.43C603.723 464.314 602.064 465.909 600.13 467.11C598.891 467.742 597.52 468.071 596.13 468.071C594.739 468.071 593.368 467.742 592.13 467.11C590.685 466.514 589.393 465.598 588.354 464.43C587.315 463.263 586.554 461.874 586.13 460.37C585.136 457.17 585.56 453.443 587.4 449.19C589.28 444.83 591.73 441.84 594.77 440.19C596.255 439.381 597.911 438.938 599.601 438.896C601.291 438.854 602.967 439.215 604.49 439.95L601.62 446.58Z" fill="#0F496F"/>
<path d="M185.62 495.36H168.48V502.24H184.22V507.86H168.48V516.19H186.41V522H161.87V489.63H185.62V495.36Z" fill="#0D496E"/>
<path d="M191.58 489.63H198.67L211.53 512.21V489.63H217.84V522H211.07L197.88 499V522H191.58V489.63Z" fill="#0D496E"/>
<path d="M248.14 495.36H231V502.24H246.73V507.86H231V516.19H248.93V522H224.38V489.63H248.14V495.36Z" fill="#0D496E"/>
<path d="M275 490.46C276.165 490.964 277.193 491.739 278 492.72C278.683 493.537 279.23 494.458 279.62 495.45C280.044 496.532 280.251 497.687 280.23 498.85C280.219 500.436 279.817 501.995 279.06 503.39C278.245 504.907 276.866 506.042 275.22 506.55C276.539 507.008 277.659 507.909 278.39 509.1C279.107 510.689 279.426 512.429 279.32 514.17V516.35C279.288 517.353 279.348 518.357 279.5 519.35C279.566 519.727 279.712 520.087 279.927 520.404C280.143 520.721 280.423 520.989 280.75 521.19V522H273.28C273.08 521.29 272.93 520.71 272.84 520.27C272.666 519.35 272.572 518.416 272.56 517.48L272.51 514.48C272.51 512.41 272.13 511.04 271.44 510.35C270.75 509.66 269.44 509.35 267.59 509.35H261V522H254.38V489.63H269.88C271.623 489.585 273.36 489.866 275 490.46ZM261 495.25V504H268.28C269.391 504.06 270.503 503.883 271.54 503.48C272.82 502.86 273.46 501.64 273.46 499.83C273.46 497.83 272.84 496.55 271.6 495.83C270.617 495.393 269.544 495.197 268.47 495.26L261 495.25Z" fill="#0D496E"/>
<path d="M308.47 499.73C308.272 498.708 307.826 497.751 307.17 496.943C306.514 496.136 305.669 495.502 304.71 495.1C303.538 494.599 302.274 494.351 301 494.37C299.775 494.343 298.559 494.595 297.446 495.106C296.332 495.617 295.348 496.374 294.57 497.32C292.896 499.32 292.06 502.276 292.06 506.19C292.06 510.19 292.97 512.98 294.78 514.64C296.453 516.227 298.673 517.111 300.98 517.11C303.027 517.182 305.024 516.466 306.56 515.11C308.028 513.772 308.977 511.959 309.24 509.99H301.75V504.58H315.24V522H310.76L310.08 518C309.078 519.253 307.891 520.345 306.56 521.24C304.558 522.387 302.276 522.955 299.97 522.88C297.994 522.94 296.028 522.573 294.207 521.803C292.386 521.034 290.753 519.879 289.42 518.42C286.56 515.44 285.133 511.356 285.14 506.17C285.146 500.983 286.59 496.78 289.47 493.56C290.919 491.987 292.692 490.749 294.668 489.93C296.643 489.112 298.773 488.733 300.91 488.82C305.03 488.82 308.336 489.863 310.83 491.95C313.241 493.881 314.788 496.69 315.13 499.76L308.47 499.73Z" fill="#0D496E"/>
<path d="M340.18 489.63H347.85L337 509.87V522H330.24V509.87L319 489.63H327L333.72 503.73L340.18 489.63Z" fill="#0D496E"/>
<path d="M367.83 489.63L372.11 508.17L373.04 513.33L373.97 508.28L377.63 489.63H384.77L388.62 508.17L389.62 513.33L390.62 508.33L394.94 489.59H401.83L392.7 522H386.22L382.31 503.06L381.17 496.8L380 503.07L376.11 522H369.83L360.65 489.62L367.83 489.63Z" fill="#0D496E"/>
<path d="M405.85 522V489.63H412.58V502H425.17V489.63H431.89V522H425.17V507.56H412.58V522H405.85Z" fill="#0D496E"/>
<path d="M462.35 495.36H445.21V502.24H460.94V507.86H445.21V516.19H463.14V522H438.59V489.63H462.35V495.36Z" fill="#0D496E"/>
<path d="M489.17 490.46C490.334 490.966 491.362 491.74 492.17 492.72C492.853 493.539 493.403 494.46 493.8 495.45C494.215 496.534 494.419 497.688 494.4 498.85C494.389 500.436 493.987 501.996 493.23 503.39C492.415 504.907 491.036 506.042 489.39 506.55C490.709 507.008 491.829 507.909 492.56 509.1C493.281 510.688 493.604 512.428 493.5 514.17V516.35C493.466 517.353 493.523 518.357 493.67 519.35C493.744 519.736 493.901 520.102 494.131 520.421C494.361 520.741 494.657 521.006 495 521.2V522H487.53C487.33 521.29 487.18 520.71 487.09 520.27C486.916 519.35 486.822 518.416 486.81 517.48L486.76 514.48C486.76 512.41 486.38 511.04 485.69 510.35C485 509.66 483.69 509.35 481.84 509.35H475.23V522H468.61V489.63H484.11C485.833 489.596 487.548 489.877 489.17 490.46ZM475.17 495.25V504H482.45C483.561 504.06 484.673 503.883 485.71 503.48C486.99 502.86 487.63 501.64 487.63 499.83C487.63 497.83 487.01 496.55 485.77 495.83C484.787 495.393 483.714 495.197 482.64 495.26L475.17 495.25Z" fill="#0D496E"/>
<path d="M524.86 495.36H507.72V502.24H523.45V507.86H507.72V516.19H525.65V522H501.1V489.63H524.86V495.36Z" fill="#0D496E"/>
<path d="M219.14 576H212.42V543.63H219.14V576Z" fill="#0D496E"/>
<path d="M249 543.63V549.36H239.31V576H232.5V549.36H222.77V543.63H249Z" fill="#0D496E"/>
<path d="M287 543.63H296.73V576H290.43V554.1C290.43 553.47 290.43 552.59 290.43 551.45C290.43 550.31 290.43 549.45 290.43 548.82L284.28 576H277.71L271.61 548.82C271.61 549.44 271.61 550.31 271.61 551.45C271.61 552.59 271.61 553.45 271.61 554.1V576H265.3V543.63H275.15L281.04 569.09L287 543.63Z" fill="#0D496E"/>
<path d="M312.21 543.63H319.86L331.32 576H324L321.87 569.35H309.92L307.73 576H300.65L312.21 543.63ZM311.76 563.78H320.06L316 551L311.76 563.78Z" fill="#0D496E"/>
<path d="M355.66 543.63V549.36H346V576H339.19V549.36H329.45V543.63H355.66Z" fill="#0D496E"/>
<path d="M383.15 543.63V549.36H373.46V576H366.64V549.36H356.91V543.63H383.15Z" fill="#0D496E"/>
<path d="M411.05 549.36H393.91V556.24H409.64V561.86H393.91V570.19H411.84V576H387.3V543.63H411.05V549.36Z" fill="#0D496E"/>
<path d="M437.87 544.46C439.035 544.964 440.063 545.739 440.87 546.72C441.556 547.536 442.106 548.458 442.5 549.45C442.915 550.534 443.119 551.689 443.1 552.85C443.088 554.435 442.689 555.993 441.94 557.39C441.123 558.91 439.74 560.046 438.09 560.55C439.415 561.003 440.54 561.905 441.27 563.1C441.987 564.689 442.306 566.429 442.2 568.17V570.35C442.168 571.353 442.228 572.357 442.38 573.35C442.446 573.727 442.592 574.087 442.807 574.404C443.023 574.721 443.303 574.989 443.63 575.19V576H436.16C435.95 575.29 435.81 574.71 435.72 574.27C435.542 573.35 435.445 572.416 435.43 571.48V568.48C435.43 566.41 435.05 565.04 434.36 564.35C433.67 563.66 432.36 563.35 430.5 563.35H423.89V576H417.28V543.63H432.77C434.506 543.589 436.236 543.871 437.87 544.46ZM423.87 549.25V558H431.16C432.268 558.06 433.376 557.883 434.41 557.48C435.69 556.86 436.33 555.64 436.33 553.83C436.33 551.83 435.71 550.55 434.48 549.83C433.494 549.392 432.417 549.197 431.34 549.26L423.87 549.25Z" fill="#0D496E"/>
<path d="M454.49 566C454.588 567.197 455.017 568.343 455.73 569.31C456.85 570.65 458.73 571.31 461.49 571.31C462.842 571.355 464.193 571.179 465.49 570.79C466.329 570.589 467.074 570.106 467.6 569.421C468.126 568.737 468.401 567.893 468.38 567.03C468.393 566.527 468.268 566.031 468.02 565.594C467.771 565.157 467.408 564.796 466.97 564.55C465.557 563.815 464.039 563.303 462.47 563.03L458.96 562.26C455.52 561.5 453.153 560.673 451.86 559.78C449.68 558.28 448.59 555.95 448.59 552.78C448.561 551.414 448.833 550.059 449.386 548.809C449.939 547.56 450.759 546.447 451.79 545.55C453.93 543.63 457.066 542.67 461.2 542.67C464.363 542.584 467.468 543.536 470.04 545.38C471.256 546.298 472.238 547.49 472.905 548.859C473.572 550.229 473.906 551.737 473.88 553.26H467.38C467.372 552.393 467.123 551.545 466.66 550.812C466.197 550.079 465.539 549.489 464.76 549.11C463.506 548.537 462.137 548.26 460.76 548.3C459.261 548.225 457.774 548.59 456.48 549.35C455.976 549.657 455.563 550.091 455.282 550.609C455.001 551.128 454.862 551.711 454.88 552.3C454.864 552.838 455.005 553.37 455.285 553.829C455.566 554.289 455.974 554.658 456.46 554.89C457.836 555.502 459.279 555.952 460.76 556.23L466.44 557.57C468.454 557.952 470.365 558.753 472.05 559.92C473.02 560.714 473.789 561.728 474.291 562.877C474.793 564.026 475.016 565.278 474.94 566.53C474.964 567.94 474.668 569.336 474.074 570.615C473.48 571.893 472.603 573.02 471.51 573.91C469.223 575.863 465.993 576.84 461.82 576.84C457.646 576.84 454.27 575.893 451.69 574C450.478 573.06 449.51 571.843 448.868 570.45C448.226 569.058 447.928 567.532 448 566H454.49Z" fill="#0D496E"/>
</svg>
